<?xml version="1.0" encoding="utf-8"?>
<!-- Generator: Adobe Illustrator 22.0.0, SVG Export Plug-In . SVG Version: 6.00 Build 0)  -->
<svg version="1.1" xmlns="http://www.w3.org/2000/svg" xmlns:xlink="http://www.w3.org/1999/xlink" x="0px" y="0px"
	 viewBox="0 0 700 700" style="enable-background:new 0 0 700 700;" xml:space="preserve">
<style type="text/css">
	.st0{opacity:0.6;fill:#FFEEFF;}
	.st1{fill:#FF91D2;}
	.st2{opacity:0.25;}
	.st3{clip-path:url(#SVGID_2_);}
	.st4{fill:#FFF7FF;}
	.st5{opacity:8.000000e-02;}
	.st6{fill:#542668;}
	.st7{fill:#31C79C;}
	.st8{clip-path:url(#SVGID_4_);}
	.st9{opacity:0.22;}
	.st10{clip-path:url(#SVGID_6_);}
	.st11{opacity:9.000000e-02;}
	.st12{opacity:0.46;}
	.st13{clip-path:url(#SVGID_8_);}
	.st14{clip-path:url(#SVGID_10_);}
	.st15{clip-path:url(#SVGID_12_);}
	.st16{fill:#C495C6;}
	.st17{fill:#FFEEFF;}
	.st18{fill:#D78EFF;}
	.st19{clip-path:url(#SVGID_14_);}
	.st20{fill:#FF7A78;}
	.st21{fill:#FFEFF1;}
	.st22{opacity:0.24;}
	.st23{opacity:0.36;fill:#FF7A78;}
	.st24{opacity:0.26;}
	.st25{fill:#99E0CF;}
	.st26{opacity:8.000000e-02;fill:#542668;}
	.st27{clip-path:url(#SVGID_16_);fill:#FFEEFF;}
	.st28{opacity:0.33;}
	.st29{fill:#FFB363;}
	.st30{opacity:0.43;fill:#542668;}
	.st31{opacity:0.42;}
	.st32{opacity:0.71;fill:#FF7A78;}
</style>
<g id="BACKGROUND">
</g>
<g id="OBJECTS">
	<g>
		<path class="st0" d="M700,0v173.8c-13.7,0.5-28.5-2.5-41.7-5.7c-4.9-1.2-10.2-2.3-15-0.5c-12.3,4.8-9.8,22.6-6.9,35.5
			c6.2,27.7,3,57.5-9,83.3c-9.8,21.2-28.1,41-51.4,42.6c-12,0.9-24.1-3.3-36.1-2.2c-26.3,2.4-44.6,29.5-47.1,55.8
			c-2.5,26.3,6.6,52.1,14.1,77.5c7.4,25,13.3,50.5,17.7,76.2c3.4,19.8,5.7,40.7-1.5,59.4c-7.8,20.2-26.4,35.1-47.1,41.6
			c-20.7,6.5-43.2,5.2-64.1-0.3c-24.8-6.5-47.7-18.7-71.9-27.2c-24.2-8.5-51.1-13.3-75.2-4.5c-41.4,15-59.1,62.3-89.3,94.7H0V339
			c17.4-7.6,36.5-11.6,55.6-11.2c22.1,0.5,46.1,6.1,64.9-5.3c20.5-12.4,25.8-39.6,26-63.6c0.3-24-2.1-49.5,9.9-70.3
			c16-27.6,52.1-36.6,84-35.4c17,0.6,34,3.3,50.9,1.2c37.8-4.6,71-35.2,78.6-72.5c4.2-20.3,1.4-41.4,4.6-61.8
			c1.1-6.9,3.2-13.8,6.3-20.2H700z"/>
		<g>
			<g>
				<g>
					<g>
						<path class="st1" d="M235.4,302c31.1,3.8,53.6-16.8,55.6-18.8c5.8-5.5,18.2-17.9,15.7-28.5c-2.9-12.3-17.8-17.6-30.3-16.9
							c-1.4,0.1-3.1,0.2-4.1-0.8c-1.7-1.5-1-4.1-0.5-6.3c2.8-11-2.8-23.5-12.8-28.8c-10-5.3-23.5-2.9-31,5.6
							c-1.8-8-8-14.9-15.8-17.4c-7.8-2.6-16.9-0.8-23.1,4.5c-9.4,8-11.1,21.7-11,34.1c0,6.4-0.4,19.1,6.1,33.6
							c1.5,3.4,14.1,30.1,42.3,38C227.7,300.6,231,301.4,235.4,302z"/>
					</g>
					<g class="st2">
						<defs>
							<path id="SVGID_1_" class="st2" d="M235.3,302.1c31.1,3.8,53.6-16.8,55.6-18.8c5.8-5.5,18.2-17.9,15.7-28.5
								c-2.9-12.3-17.8-17.6-30.3-16.9c-1.4,0.1-3.1,0.2-4.1-0.8c-1.7-1.5-1-4.1-0.5-6.3c2.8-11-2.8-23.5-12.8-28.8
								c-10-5.3-23.5-2.9-31,5.6c-1.8-8-8-14.9-15.8-17.4c-7.8-2.6-16.9-0.8-23.1,4.5c-9.4,8-11.1,21.7-11,34.1
								c0,6.4-0.4,19.1,6.1,33.6c1.5,3.4,14.1,30.1,42.3,38C227.6,300.7,230.8,301.6,235.3,302.1z"/>
						</defs>
						<clipPath id="SVGID_2_">
							<use xlink:href="#SVGID_1_"  style="overflow:visible;"/>
						</clipPath>
						<g class="st3">
							<g>
								<path class="st4" d="M212.2,301.1c25.3-38.6,49.9-77.7,73.8-117.2c1.1-1.8-1.8-3.5-2.9-1.7c-23.9,39.5-48.5,78.6-73.8,117.2
									C208.2,301.2,211,302.9,212.2,301.1L212.2,301.1z"/>
							</g>
						</g>
						<g class="st3">
							<g>
								<path class="st4" d="M205.2,297.2c16.2-38.3,35.1-75.5,56.5-111.2c1.1-1.8-1.8-3.5-2.9-1.7c-21.6,35.9-40.6,73.3-56.8,112
									C201.2,298.2,204.4,299.1,205.2,297.2L205.2,297.2z"/>
							</g>
						</g>
						<g class="st3">
							<g>
								<path class="st4" d="M232.7,191c-21.3,35.6-35.5,75.1-41.7,116.1c-0.3,2.1,2.9,3,3.2,0.9c6.1-40.8,20.2-79.9,41.4-115.3
									C236.7,190.8,233.8,189.2,232.7,191L232.7,191z"/>
							</g>
						</g>
						<g class="st3">
							<g>
								<path class="st4" d="M190.9,280.4c2.5-33,10.9-65.3,25-95.2c0.9-1.9-2-3.6-2.9-1.7c-14.3,30.5-22.9,63.3-25.4,96.9
									C187.4,282.5,190.8,282.5,190.9,280.4L190.9,280.4z"/>
							</g>
						</g>
						<g class="st3">
							<g>
								<path class="st4" d="M278.4,231.8c-20.8,28.8-45.5,54.6-73.4,76.6c-1.7,1.3,0.7,3.7,2.3,2.3c28.1-22.2,53-48.2,73.9-77.2
									C282.5,231.7,279.6,230,278.4,231.8L278.4,231.8z"/>
							</g>
						</g>
						<g class="st3">
							<g>
								<path class="st4" d="M208,311.9c46.7-18.4,87.6-49.5,117.7-89.7c1.3-1.7-1.6-3.4-2.9-1.7c-29.5,39.4-69.9,70.2-115.7,88.2
									C205.2,309.5,206,312.7,208,311.9L208,311.9z"/>
							</g>
						</g>
					</g>
					<g class="st5">
						<path class="st6" d="M178.8,228.8c0,6.4-0.4,19.1,6.1,33.6c1.5,3.4,14.1,30.1,42.3,38c1.1,0.3,4.4,1.2,8.9,1.7
							c14.4,1.7,26.9-1.7,36.4-6.1c-18.7-8.9-37.1-18.5-53.4-31.1c-16.8-13-31.4-29.6-39.5-49C178.9,220.1,178.7,224.6,178.8,228.8z
							"/>
					</g>
				</g>
				<g>
					<path class="st7" d="M216.3,304.3c0,0,6,1.3,17.1-1.5c1-0.3,2.5-0.7,3.3-2c1-1.8-0.2-4.1-0.4-4.5c-2.7-5.5-16-4.2-16.9-4.1
						c1.4-3.3,2.7-6.8,2.5-10.3c-0.2-3.6-2.5-7.3-6-8c-4.1-0.8-7.7,2.7-10.5,5.9c-3.8-3.2-3.9-10.6-8.8-11.3
						c-2.8-0.4-5.3,1.9-6.1,4.6c-0.5,1.7-1,3.6,0.4,8.3c1.3,4.2,3,9.9,8.5,15.1C205.7,302.2,212.7,303.6,216.3,304.3z"/>
				</g>
			</g>
			<g>
				<g>
					<g>
						<path class="st7" d="M207.9,297.2c-14,29.6-17.4,63.5-9.1,95.2c7.8,30,26.6,55,44.9,79.4c31.2,41.6,68.6,99.7,34,150.7
							c-2.1,3.1-7.1,0.2-5-2.9c39.7-58.5-17.7-120.6-49.8-166.4c-16.1-23-29-47.7-32.9-75.8c-3.9-28.4,0.7-57.1,13-83.1
							C204.5,290.9,209.5,293.8,207.9,297.2L207.9,297.2z"/>
					</g>
					<g>
						<path class="st7" d="M214.4,438.9c-7.1-6.3-14.3-10.9-23.6-13c-7.3-1.6-14.9-1.9-22.3-3.3c-10.9-2.1-20.7-6.3-27.2-15.5
							c-2.2-3,2.9-5.9,5-2.9c9.1,12.7,25.6,12.9,39.6,15c13.2,2,22.7,6.8,32.6,15.6C221.3,437.3,217.2,441.4,214.4,438.9
							L214.4,438.9z"/>
					</g>
				</g>
				<g>
					<g>
						<g>
							<path class="st1" d="M153.6,385.6c8.6-23.5-3.3-44.7-4.4-46.7c-3.2-5.5-10.6-17.4-19.3-17.4c-10.1,0-16.9,10.6-18.7,20.5
								c-0.2,1.1-0.4,2.4-1.4,3.1c-1.4,1-3.4,0-5-0.8c-8-4.2-18.8-2.1-24.7,4.7c-6,6.8-6.5,17.7-1.3,25.1c-6.5-0.1-13,3.5-16.4,9.1
								c-3.4,5.6-3.7,13-0.7,18.8c4.5,8.8,14.9,12.6,24.5,14.8c5,1.1,14.8,3.8,27.2,1.4c2.9-0.6,26-5.5,37.3-26
								C151.1,391.4,152.3,389,153.6,385.6z"/>
						</g>
						<g class="st2">
							<defs>
								<path id="SVGID_3_" class="st2" d="M153.7,385.8c8.6-23.5-3.3-44.7-4.4-46.7c-3.2-5.5-10.6-17.4-19.3-17.4
									c-10.1,0-16.9,10.6-18.7,20.5c-0.2,1.1-0.4,2.4-1.4,3.1c-1.4,1-3.4,0-5-0.8c-8-4.2-18.8-2.1-24.7,4.7
									c-6,6.8-6.5,17.7-1.3,25.1c-6.5-0.1-13,3.5-16.4,9.1c-3.4,5.6-3.7,13-0.7,18.8c4.5,8.8,14.9,12.6,24.5,14.8
									c5,1.1,14.8,3.8,27.2,1.4c2.9-0.6,26-5.5,37.3-26C151.1,391.5,152.4,389.1,153.7,385.8z"/>
							</defs>
							<clipPath id="SVGID_4_">
								<use xlink:href="#SVGID_3_"  style="overflow:visible;"/>
							</clipPath>
							<g class="st8">
								<g>
									<path class="st4" d="M148.7,403.6c-25.4-26.7-51.3-53-77.7-78.8c-1.2-1.2-3.1,0.7-1.9,1.9c26.4,25.8,52.3,52.1,77.7,78.8
										C148,406.7,149.8,404.8,148.7,403.6L148.7,403.6z"/>
								</g>
							</g>
							<g class="st8">
								<g>
									<path class="st4" d="M144.3,408.3C117.5,388.7,92,367.2,68.2,344c-1.2-1.2-3.1,0.7-1.9,1.9c24,23.3,49.6,44.9,76.7,64.7
										C144.4,411.6,145.7,409.3,144.3,408.3L144.3,408.3z"/>
								</g>
							</g>
							<g class="st8">
								<g>
									<path class="st4" d="M66.7,367.4c23.9,23.2,52.1,41.4,83,53.8c1.6,0.6,2.3-1.9,0.7-2.6c-30.5-12.2-58.3-30.3-81.8-53.1
										C67.4,364.4,65.5,366.3,66.7,367.4L66.7,367.4z"/>
								</g>
							</g>
							<g class="st8">
								<g>
									<path class="st4" d="M128.7,416.3c-25.2-8-48.8-20.4-69.5-36.8c-1.3-1-3.2,0.8-1.9,1.9c21.1,16.7,45,29.4,70.7,37.5
										C129.6,419.4,130.3,416.8,128.7,416.3L128.7,416.3z"/>
								</g>
							</g>
							<g class="st8">
								<g>
									<path class="st4" d="M106.8,339.4c18.6,21.4,34.1,45.3,46.2,71.1c0.7,1.5,3,0.2,2.3-1.3c-12.1-25.9-27.8-50-46.6-71.6
										C107.5,336.2,105.7,338.1,106.8,339.4L106.8,339.4z"/>
								</g>
							</g>
							<g class="st8">
								<g>
									<path class="st4" d="M156.3,408.5c-5.8-39.6-22.5-76.9-48.2-107.6c-1.1-1.3-3,0.6-1.9,1.9c25.4,30.3,41.8,67.3,47.5,106.4
										C153.9,410.9,156.5,410.1,156.3,408.5L156.3,408.5z"/>
								</g>
							</g>
						</g>
						<g class="st5">
							<path class="st6" d="M86.3,416.3c5,1.2,14.8,3.8,27.2,1.4c2.9-0.6,26-5.5,37.3-26c0.5-0.8,1.7-3.2,3-6.6
								c4-10.9,3.6-21.2,1.9-29.4c-10.3,12.9-21.1,25.5-34,35.9c-13.2,10.7-28.8,19-45.3,21.8C79.6,414.6,83,415.6,86.3,416.3z"/>
						</g>
					</g>
					<g>
						<path class="st7" d="M151.9,400.9c0,0,2.1-4.4,1.9-13.6c0-0.8-0.1-2.1-0.9-2.9c-1.2-1.1-3.2-0.6-3.6-0.5
							c-4.8,1.1-6.2,11.7-6.3,12.4c-2.3-1.7-4.8-3.4-7.6-3.9c-2.8-0.5-6.1,0.6-7.3,3.2c-1.4,3.1,0.7,6.5,2.6,9.2
							c-3.2,2.4-8.9,1.1-10.4,4.8c-0.8,2.1,0.5,4.5,2.5,5.6c1.2,0.7,2.6,1.5,6.5,1.2c3.5-0.2,8.3-0.6,13.3-3.9
							C148.4,408.8,150.7,403.6,151.9,400.9z"/>
					</g>
				</g>
			</g>
		</g>
		<g>
			<g>
				<g>
					<path class="st7" d="M278.4,598c8.1-25.3-15.9-64.3-45.5-88.6c-40.4-33.3-70.2-18.3-131.5-59.5c-12-8-22.7-18.2-35.2-25.2
						c-0.9,6.6,2,12.9,4.8,18.7c28.2,58.3,61.6,115.8,110.9,154.6c7.6,6,23.6,19,46.8,23.3c9.9,1.9,25.7,4.5,38-5.6
						C266.7,615.7,274.9,609,278.4,598z"/>
				</g>
				<g class="st9">
					<defs>
						<path id="SVGID_5_" class="st9" d="M278.4,598c8.1-25.3-15.9-64.3-45.5-88.6c-40.4-33.3-70.2-18.3-131.5-59.5
							c-12-8-22.7-18.2-35.2-25.2c-0.9,6.6,2,12.9,4.8,18.7c28.2,58.3,61.6,115.8,110.9,154.6c7.6,6,23.6,19,46.8,23.3
							c9.9,1.9,25.7,4.5,38-5.6C266.7,615.7,274.9,609,278.4,598z"/>
					</defs>
					<clipPath id="SVGID_6_">
						<use xlink:href="#SVGID_5_"  style="overflow:visible;"/>
					</clipPath>
					<g class="st10">
						<g>
							<path class="st6" d="M61.2,423.4c48.4,68.4,129.6,99.1,189.2,155.4c16.9,16,31.8,34.1,43.1,54.5c1.4,2.5,5.3,0.3,3.9-2.3
								c-40.8-73.8-121.1-107.3-183.5-158.8c-18.2-15-35-31.9-48.7-51.2C63.4,418.8,59.5,421.1,61.2,423.4L61.2,423.4z"/>
						</g>
					</g>
					<g class="st10">
						<g>
							<path class="st6" d="M246.6,568.6c3.1-19,2.3-38.1-2.6-56.7c-0.7-2.8-5.1-1.6-4.3,1.2c4.7,17.8,5.6,36.2,2.6,54.3
								C241.8,570.2,246.1,571.4,246.6,568.6L246.6,568.6z"/>
						</g>
					</g>
					<g class="st10">
						<g>
							<path class="st6" d="M241.5,568.7c-18.7,18.8-44.9,28.6-71.4,25.3c-2.9-0.4-2.8,4.1,0,4.5c27.6,3.5,55.1-7,74.6-26.6
								C246.8,569.9,243.6,566.7,241.5,568.7L241.5,568.7z"/>
						</g>
					</g>
					<g class="st10">
						<g>
							<path class="st6" d="M201.5,537.8c-19.6,11.8-41.6,18.6-64.5,19.6c-2.9,0.1-2.9,4.6,0,4.5c23.7-1,46.5-8,66.8-20.2
								C206.3,540.2,204,536.3,201.5,537.8L201.5,537.8z"/>
						</g>
					</g>
					<g class="st10">
						<g>
							<path class="st6" d="M203.3,534.6c1-19.6,1.7-41.3-12.2-56.9c-1.9-2.2-5.1,1-3.2,3.2c12.9,14.6,11.8,35.6,10.9,53.7
								C198.7,537.5,203.1,537.5,203.3,534.6L203.3,534.6z"/>
						</g>
					</g>
					<g class="st10">
						<g>
							<path class="st6" d="M157.9,504.7c0.6-13.8-1.6-27.4-6.7-40.2c-1.1-2.7-5.4-1.5-4.3,1.2c5,12.5,7.1,25.6,6.5,39
								C153.3,507.6,157.8,507.6,157.9,504.7L157.9,504.7z"/>
						</g>
					</g>
					<g class="st10">
						<g>
							<path class="st6" d="M121,476.6c1-8.3,0.5-16.4-1.5-24.5c-0.7-2.8-5-1.6-4.3,1.2c1.9,7.7,2.3,15.4,1.3,23.3
								C116.2,479.5,120.7,479.5,121,476.6L121,476.6z"/>
						</g>
					</g>
					<g class="st10">
						<g>
							<path class="st6" d="M115.6,475.7c-10.5,3.8-22.7,8-33.1,1.8c-2.5-1.5-4.7,2.4-2.3,3.9c11.5,6.9,24.8,2.9,36.5-1.3
								C119.5,479.1,118.4,474.7,115.6,475.7L115.6,475.7z"/>
						</g>
					</g>
					<g class="st10">
						<g>
							<path class="st6" d="M152.1,501.8c-19.2,13-43.4,16.1-65,7.4c-2.7-1.1-3.8,3.3-1.2,4.3c22.6,9.1,48.4,5.8,68.4-7.8
								C156.7,504.1,154.5,500.2,152.1,501.8L152.1,501.8z"/>
						</g>
					</g>
				</g>
				<g class="st11">
					<path class="st6" d="M112.2,516.7c19.7,30.9,42.6,59,70.6,81.1c7.6,6,23.6,19,46.8,23.3c9.9,1.9,25.7,4.5,38.1-5.6
						c0,0,8.2-6.7,11.7-17.7c4.2-13.2-0.3-30.1-9.8-46.8c-6.6,6.1-13.7,11.4-21.7,14.9c-26.7,11.5-56.6-0.5-81.8-14.6
						C147.4,541,129.4,529.4,112.2,516.7z"/>
				</g>
			</g>
			<g class="st12">
				<g>
					<g>
						<path class="st4" d="M242.2,533.6c-13.8-17.7-32.3-31.1-53.5-38.4c-5.5-1.9-7.8,6.8-2.4,8.7c19.8,6.9,36.7,19.7,49.5,36.1
							C239.4,544.5,245.8,538.1,242.2,533.6L242.2,533.6z"/>
					</g>
				</g>
				<g>
					<g>
						<path class="st4" d="M171.9,496.7c5.8,0,5.8-9,0-9C166.1,487.7,166.1,496.7,171.9,496.7L171.9,496.7z"/>
					</g>
				</g>
			</g>
		</g>
		<g>
			<g>
				<g>
					<g>
						<path class="st1" d="M430.6,216.4c-39.8,4.8-68.4-21.5-71-24c-7.4-7-23.2-22.9-20.1-36.4c3.7-15.7,22.7-22.5,38.8-21.6
							c1.8,0.1,3.9,0.2,5.3-1c2.2-1.9,1.3-5.3,0.6-8.1c-3.5-14,3.6-30,16.3-36.8c12.8-6.8,30-3.7,39.6,7.1
							c2.3-10.2,10.2-19,20.2-22.3c9.9-3.3,21.5-1,29.5,5.8c12,10.3,14.2,27.8,14.1,43.6c0,8.2,0.6,24.4-7.8,42.9
							c-2,4.4-18,38.5-54.1,48.5C440.5,214.6,436.3,215.7,430.6,216.4z"/>
					</g>
					<g class="st2">
						<defs>
							<path id="SVGID_7_" class="st2" d="M430.8,216.6c-39.8,4.8-68.4-21.5-71-24c-7.4-7-23.2-22.9-20.1-36.4
								c3.7-15.7,22.7-22.5,38.8-21.6c1.8,0.1,3.9,0.2,5.3-1c2.2-1.9,1.3-5.3,0.6-8.1c-3.5-14,3.6-30,16.3-36.8
								c12.8-6.8,30-3.7,39.6,7.1c2.3-10.2,10.2-19,20.2-22.3s21.5-1,29.5,5.8c12,10.3,14.2,27.8,14.1,43.6c0,8.2,0.6,24.4-7.8,42.9
								c-2,4.4-18,38.5-54.1,48.5C440.7,214.8,436.5,215.9,430.8,216.6z"/>
						</defs>
						<clipPath id="SVGID_8_">
							<use xlink:href="#SVGID_7_"  style="overflow:visible;"/>
						</clipPath>
						<g class="st13">
							<g>
								<path class="st4" d="M464,213.1c-32.3-49.4-63.7-99.3-94.3-149.8c-1.4-2.3-5.1-0.2-3.7,2.1c30.6,50.5,62,100.4,94.3,149.8
									C461.8,217.5,465.5,215.4,464,213.1L464,213.1z"/>
							</g>
						</g>
						<g class="st13">
							<g>
								<path class="st4" d="M473.3,209.1c-20.8-49.4-45-97.2-72.6-143.1c-1.4-2.3-5.1-0.2-3.7,2.1c27.4,45.6,51.6,93,72.2,142
									C470.3,212.7,474.4,211.6,473.3,209.1L473.3,209.1z"/>
							</g>
						</g>
						<g class="st13">
							<g>
								<path class="st4" d="M430.4,76.7c27.1,45.2,45,95.3,52.9,147.4c0.4,2.7,4.5,1.5,4.1-1.1c-7.9-52.4-26-102.9-53.3-148.4
									C432.7,72.2,429,74.4,430.4,76.7L430.4,76.7z"/>
							</g>
						</g>
						<g class="st13">
							<g>
								<path class="st4" d="M491.7,188.8c-3.2-42.9-14.2-84.9-32.5-123.8c-1.2-2.5-4.8-0.3-3.7,2.1c17.9,38.3,28.8,79.6,31.9,121.7
									C487.7,191.5,491.9,191.5,491.7,188.8L491.7,188.8z"/>
							</g>
						</g>
						<g class="st13">
							<g>
								<path class="st4" d="M372.1,128.8c26.7,37.2,58.5,70.4,94.4,98.7c2.1,1.7,5.1-1.3,3-3c-35.7-28.1-67.3-61-93.8-97.8
									C374.2,124.5,370.5,126.6,372.1,128.8L372.1,128.8z"/>
							</g>
						</g>
						<g class="st13">
							<g>
								<path class="st4" d="M466.8,225c-58.5-23-110.2-62.3-147.9-112.7c-1.6-2.2-5.3,0-3.7,2.1c38.4,51.3,90.7,91.2,150.4,114.6
									C468.2,230.1,469.3,226,466.8,225L466.8,225z"/>
							</g>
						</g>
					</g>
					<g class="st5">
						<path class="st6" d="M503,122.9c0,8.2,0.6,24.4-7.8,42.9c-2,4.4-18,38.5-54.1,48.6c-1.5,0.4-5.6,1.5-11.4,2.2
							c-18.4,2.2-34.4-2.2-46.5-7.8c23.9-11.4,47.4-23.6,68.2-39.8c21.4-16.6,40.1-37.8,50.5-62.6
							C502.8,111.8,503.1,117.5,503,122.9z"/>
					</g>
				</g>
				<g>
					<path class="st7" d="M455,219.3c0,0-7.6,1.6-21.8-1.9c-1.3-0.3-3.2-0.9-4.2-2.5c-1.2-2.3,0.2-5.2,0.5-5.8
						c3.5-7,20.4-5.4,21.5-5.3c-1.7-4.2-3.5-8.6-3.2-13.2c0.3-4.6,3.1-9.3,7.6-10.2c5.3-1,9.9,3.4,13.4,7.5
						c4.9-4.1,5-13.5,11.3-14.5c3.5-0.6,6.8,2.5,7.8,5.9c0.6,2.1,1.3,4.7-0.5,10.5c-1.6,5.4-3.9,12.7-10.9,19.3
						C468.6,216.7,459.6,218.5,455,219.3z"/>
				</g>
			</g>
			<g>
				<g>
					<g>
						<path class="st7" d="M465.8,210.3c17.8,37.8,22.3,81.1,11.7,121.6c-10,38.3-34,70.3-57.3,101.5
							c-39.8,53.2-87.7,127.4-43.5,192.6c2.7,3.9,9.1,0.2,6.4-3.7c-50.7-74.7,22.6-154.1,63.7-212.6c20.6-29.4,37.1-61,42.1-96.9
							c5-36.4-0.9-73-16.6-106.2C470.1,202.2,463.7,206,465.8,210.3L465.8,210.3z"/>
					</g>
					<g>
						<path class="st7" d="M457.5,391.4c9.1-8,18.2-13.9,30.2-16.6c9.4-2.1,19.1-2.4,28.5-4.2c13.9-2.6,26.4-8.1,34.8-19.8
							c2.8-3.9-3.6-7.6-6.4-3.7c-11.6,16.3-32.7,16.5-50.6,19.2c-16.9,2.5-29,8.7-41.7,19.9C448.7,389.3,453.9,394.5,457.5,391.4
							L457.5,391.4z"/>
					</g>
				</g>
				<g>
					<g>
						<g>
							<path class="st1" d="M535.2,323.3c-11-30.1,4.2-57.2,5.7-59.6c4.1-7.1,13.6-22.3,24.6-22.3c12.9,0,21.6,13.5,23.9,26.2
								c0.3,1.5,0.6,3.1,1.8,3.9c1.8,1.3,4.4,0,6.4-1c10.3-5.3,24-2.7,31.6,6c7.6,8.7,8.3,22.7,1.7,32.1c8.4-0.1,16.6,4.5,21,11.6
								c4.4,7.1,4.7,16.6,0.9,24c-5.8,11.2-19,16.1-31.3,18.9c-6.4,1.5-18.9,4.9-34.8,1.8c-3.8-0.7-33.2-7-47.6-33.2
								C538.4,330.7,536.8,327.6,535.2,323.3z"/>
						</g>
						<g class="st2">
							<defs>
								<path id="SVGID_9_" class="st2" d="M535.1,323.4c-11-30.1,4.2-57.2,5.7-59.6c4.1-7.1,13.6-22.3,24.6-22.3
									c12.9,0,21.6,13.5,23.9,26.2c0.3,1.5,0.6,3.1,1.8,3.9c1.8,1.3,4.4,0,6.4-1c10.3-5.3,24-2.7,31.6,6
									c7.6,8.7,8.3,22.7,1.7,32.1c8.4-0.1,16.6,4.5,21,11.6c4.4,7.1,4.7,16.6,0.9,24c-5.8,11.2-19,16.1-31.3,18.9
									c-6.4,1.5-18.9,4.9-34.8,1.8c-3.8-0.7-33.2-7-47.6-33.2C538.3,330.8,536.7,327.8,535.1,323.4z"/>
							</defs>
							<clipPath id="SVGID_10_">
								<use xlink:href="#SVGID_9_"  style="overflow:visible;"/>
							</clipPath>
							<g class="st14">
								<g>
									<path class="st4" d="M543.9,348.6c32.5-34.1,65.6-67.7,99.3-100.7c1.6-1.5-0.8-3.9-2.4-2.4c-33.7,33-66.8,66.6-99.3,100.7
										C540,347.8,542.4,350.2,543.9,348.6L543.9,348.6z"/>
								</g>
							</g>
							<g class="st14">
								<g>
									<path class="st4" d="M548.7,355.2c34.6-25.2,67.3-52.8,98-82.6c1.6-1.5-0.8-3.9-2.4-2.4c-30.5,29.6-63,57.1-97.3,82.1
										C545.3,353.5,547,356.5,548.7,355.2L548.7,355.2z"/>
								</g>
							</g>
							<g class="st14">
								<g>
									<path class="st4" d="M643.8,297.7c-30.1,29.2-65.6,52.3-104.6,67.9c-2,0.8-1.1,4.1,0.9,3.3c39.5-15.8,75.6-39.1,106.1-68.7
										C647.8,298.5,645.4,296.1,643.8,297.7L643.8,297.7z"/>
								</g>
							</g>
							<g class="st14">
								<g>
									<path class="st4" d="M567.9,365.8c32.8-10.4,63.4-26.6,90.3-47.9c1.7-1.4-0.7-3.7-2.4-2.4c-26.5,20.9-56.6,36.9-88.8,47
										C564.9,363.2,565.8,366.4,567.9,365.8L567.9,365.8z"/>
								</g>
							</g>
							<g class="st14">
								<g>
									<path class="st4" d="M592.6,261.8c-24,27.6-44.1,58.3-59.5,91.5c-0.9,2,2,3.7,2.9,1.7c15.3-32.9,35.2-63.4,59-90.8
										C596.5,262.5,594.1,260.1,592.6,261.8L592.6,261.8z"/>
								</g>
							</g>
							<g class="st14">
								<g>
									<path class="st4" d="M535.1,353.4c7.2-49.9,28.3-97.3,60.7-136c1.4-1.7-1-4.1-2.4-2.4c-32.8,39.1-54.3,87-61.6,137.5
										C531.5,354.6,534.8,355.5,535.1,353.4L535.1,353.4z"/>
								</g>
							</g>
						</g>
						<g class="st5">
							<path class="st6" d="M621.2,362.5c-6.4,1.5-18.9,4.9-34.8,1.8c-3.7-0.7-33.2-7-47.6-33.2c-0.6-1.1-2.2-4.1-3.8-8.4
								c-5.1-13.9-4.6-27.1-2.4-37.6c13.2,16.5,27,32.5,43.4,45.8c16.8,13.6,36.8,24.3,57.9,27.8
								C629.7,360.4,625.4,361.6,621.2,362.5z"/>
						</g>
					</g>
					<g>
						<path class="st7" d="M537.4,342.8c0,0-2.6-5.6-2.5-17.3c0-1.1,0.1-2.7,1.2-3.7c1.5-1.4,4.1-0.8,4.6-0.7
							c6.1,1.4,7.9,14.9,8,15.8c3-2.1,6.1-4.3,9.7-4.9c3.6-0.6,7.8,0.7,9.3,4.1c1.7,3.9-0.9,8.3-3.4,11.8c4,3.1,11.4,1.4,13.3,6.1
							c1.1,2.6-0.7,5.7-3.2,7.1c-1.5,0.9-3.4,1.9-8.3,1.5c-4.5-0.3-10.6-0.7-17-5C541.9,352.9,538.9,346.2,537.4,342.8z"/>
					</g>
				</g>
			</g>
		</g>
		<g>
			<g>
				<g>
					<path class="st7" d="M396.6,586.7c-6.7-29.4,27.3-70.5,66.1-94.5c53.1-32.8,87.5-12.6,166.9-51.9c15.5-7.7,29.8-17.9,45.9-24.3
						c0.3,7.5-4,14.3-8.1,20.5c-41.5,62.4-89.1,123.2-153.7,161.2c-10,5.9-31,18.6-59.7,20.9c-12.3,0.9-31.8,2.2-45.5-10.6
						C408.6,608,399.5,599.5,396.6,586.7z"/>
				</g>
				<g class="st9">
					<defs>
						<path id="SVGID_11_" class="st9" d="M396.6,586.7c-6.7-29.4,27.3-70.5,66.1-94.5c53.1-32.8,87.5-12.6,166.9-51.9
							c15.5-7.7,29.8-17.9,45.9-24.3c0.3,7.5-4,14.3-8.1,20.5c-41.5,62.4-89.1,123.2-153.7,161.2c-10,5.9-31,18.6-59.7,20.9
							c-12.3,0.9-31.8,2.2-45.5-10.6C408.6,608,399.5,599.5,396.6,586.7z"/>
					</defs>
					<clipPath id="SVGID_12_">
						<use xlink:href="#SVGID_11_"  style="overflow:visible;"/>
					</clipPath>
					<g class="st15">
						<g>
							<path class="st6" d="M677.7,411.9c-69,73.4-172,96.6-251.6,155.1c-21.3,15.7-40.7,33.7-56.5,55c-2,2.7,2.5,5.4,4.6,2.7
								c59.7-80,161.9-106.7,243.3-157.6c23.3-14.6,45.2-31.3,64.1-51.4C683.7,413.2,680,409.4,677.7,411.9L677.7,411.9z"/>
						</g>
					</g>
					<g class="st15">
						<g>
							<path class="st6" d="M444.2,556.8c-1.4-21.1,2-41.9,10-61.4c1.3-3.1-3.8-4.5-5.1-1.4c-8.1,19.9-11.6,41.4-10.2,62.9
								C439.1,560.2,444.4,560.2,444.2,556.8L444.2,556.8z"/>
						</g>
					</g>
					<g class="st15">
						<g>
							<path class="st6" d="M441,561.5c21.7,24.9,54.2,39.1,87.2,38.3c3.4-0.1,3.4-5.4,0-5.3c-31.8,0.8-62.6-12.8-83.5-36.8
								C442.4,555.2,438.7,558.9,441,561.5L441,561.5z"/>
						</g>
					</g>
					<g class="st15">
						<g>
							<path class="st6" d="M494.4,532.2c23.4,16.3,50.3,26.5,78.5,30.3c3.4,0.4,3.3-4.8,0-5.3c-27.3-3.6-53.2-13.9-75.8-29.6
								C494.2,525.7,491.6,530.2,494.4,532.2L494.4,532.2z"/>
						</g>
					</g>
					<g class="st15">
						<g>
							<path class="st6" d="M500.9,524.2c1.1-21,2.8-44.4,20-59.1c2.6-2.2-1.2-5.9-3.7-3.7c-18.3,15.5-20.4,40.4-21.6,62.8
								C495.5,527.6,500.7,527.6,500.9,524.2L500.9,524.2z"/>
						</g>
					</g>
					<g class="st15">
						<g>
							<path class="st6" d="M559.7,495.9c0.9-15,5.2-29.4,12.6-42.5c1.7-3-2.9-5.6-4.6-2.7c-7.9,13.9-12.3,29.2-13.3,45.2
								C554.2,499.3,559.5,499.2,559.7,495.9L559.7,495.9z"/>
						</g>
					</g>
					<g class="st15">
						<g>
							<path class="st6" d="M607.9,468.5c-0.2-9,1.3-17.6,4.6-26c1.2-3.2-3.9-4.5-5.1-1.4c-3.5,8.8-5,18-4.8,27.4
								C602.7,471.9,608,471.9,607.9,468.5L607.9,468.5z"/>
						</g>
					</g>
					<g class="st15">
						<g>
							<path class="st6" d="M606.9,472.5c14.1,6.3,29.6,12.4,44.7,5.8c3.1-1.4,0.4-5.9-2.7-4.6c-13,5.7-27.4-0.4-39.4-5.8
								C606.5,466.5,603.8,471.1,606.9,472.5L606.9,472.5z"/>
						</g>
					</g>
					<g class="st15">
						<g>
							<path class="st6" d="M558.2,496.9c23.2,18.2,54,24.6,82.5,16.9c3.3-0.9,1.9-6-1.4-5.1c-26.6,7.2-55.7,1.4-77.4-15.5
								C559.3,491.1,555.6,494.8,558.2,496.9L558.2,496.9z"/>
						</g>
					</g>
				</g>
				<g class="st11">
					<path class="st6" d="M608.3,514.3c-27.8,32.5-59,61.5-95.7,83.1c-10,5.9-31,18.6-59.7,20.9c-12.3,0.9-31.8,2.2-45.5-10.6
						c0,0-9.1-8.4-12-21.3c-3.5-15.3,4.1-33.9,17.7-51.5c7.3,7.6,15.2,14.4,24.5,19.2c31,16,68.7,5.9,101.1-7
						C562.5,537.6,585.8,526.6,608.3,514.3z"/>
				</g>
			</g>
			<g class="st12">
				<g>
					<g>
						<path class="st4" d="M455.6,526.1c18-17.4,40.3-29.3,64.7-34.7c6.6-1.5,3.8-11.6-2.8-10.2c-26.1,5.7-50.2,18.8-69.4,37.4
							C443.3,523.4,450.7,530.8,455.6,526.1L455.6,526.1z"/>
					</g>
				</g>
				<g>
					<g>
						<path class="st4" d="M538.9,485.2c6.8,0,6.8-10.6,0-10.6C532.1,474.6,532.1,485.2,538.9,485.2L538.9,485.2z"/>
					</g>
				</g>
			</g>
		</g>
		<g>
			<g>
				<g>
					<g>
						<path class="st6" d="M442.5,640.4l-193-16.4c-9.7-0.8-16.9-9.1-16.1-18.6l35.7-397.7c0.8-9.4,9.4-16.4,19.1-15.6l193,16.4
							c9.7,0.8,16.9,9.1,16.1,18.6l-35.7,397.7C460.8,634.3,452.2,641.3,442.5,640.4z"/>
						<path class="st16" d="M247.2,599.7l34.4-383.9c0.6-6.2,6.2-10.8,12.6-10.2L473,220.8c6.4,0.5,11.1,6,10.6,12.2l-34.4,383.9
							c-0.6,6.2-6.2,10.8-12.6,10.2l-178.7-15.2C251.4,611.3,246.7,605.9,247.2,599.7z"/>
						<path class="st17" d="M432.3,620.8c-1.5,0.3-3,0.4-4.5,0.3l-160.3-13.6c-4.1-0.3-7.8-2.2-10.5-5.3c-2.6-3.1-3.9-6.9-3.5-10.9
							l32.8-366.1c0.6-6.5,5.6-12,12.2-13.3c1.5-0.3,3-0.4,4.5-0.3l160.3,13.6c8.5,0.7,14.7,8,14,16.2l-32.9,366.1
							C443.9,614,438.9,619.4,432.3,620.8z"/>
						<g>
							<path class="st17" d="M477.3,241.4l-32.9,366.1c-0.6,6.5-5.6,12-12.2,13.3c-1.5,0.3-3,0.4-4.5,0.3l-0.7,0l-50.9-4.3l-5.1-0.4
								l-50.9-4.3l-5.5-0.5l-47.4-4c-1.2-0.1-2.3-0.3-3.4-0.7c-2.7-0.8-5.2-2.4-7.1-4.6c-2.6-3.1-3.9-6.9-3.6-10.9l32.9-366.1
								c0.6-6.5,5.6-12,12.2-13.3c1.5-0.3,3-0.4,4.5-0.3l160.3,13.6C471.8,225.9,478.1,233.2,477.3,241.4z"/>
							<g>
								<g>
									<g>
										<polygon class="st18" points="446.6,447.4 277.9,432.5 296,236.7 464.7,251.6 										"/>
									</g>
									<g>
										<defs>
											<polygon id="SVGID_13_" points="446.9,447.1 278.2,432.2 296.3,236.4 465,251.3 											"/>
										</defs>
										<clipPath id="SVGID_14_">
											<use xlink:href="#SVGID_13_"  style="overflow:visible;"/>
										</clipPath>
										<g class="st19">
											<path class="st20" d="M379.1,256.4c-10.7-2.1-19.8,2.8-24.1,5.2c-10.1,5.5-15.2,13.1-18,16.9c-5.4,7.1-10,15.4-9.4,24.1
												c0.5,8.2,5.3,17.2,0.5,23.9c-2.9,4.1-8.3,5.6-12.8,7.9c-4.5,2.3-8.8,7.1-6.9,11.8c1.6,3.9,7.3,6.8,5.7,10.7
												c-0.7,1.8-2.8,2.7-4.7,3.3c-5.9,2-12.4,3.4-16.9,7.7c-4.5,4.3-5.5,12.6-0.3,15.9c2.2,1.4,5.2,1.8,6.4,4
												c1.2,2.2-0.1,4.9-2,6.6s-4.3,2.7-6.1,4.5c-3.1,3-4,7.7-3,11.8c1,4.1,3.6,7.7,6.7,10.7c6.9,6.6,16.1,10.5,25.6,12.5
												c9.5,2,19.2,2.2,28.9,2.4c7.4,0.2,14.8,0.3,22.3,0.5c11.4,0.3,23,0.5,34.2-1.6c11.1-2.1,21.7-6.6,30.9-13
												c3.8-2.6,7.6-6.2,7.5-10.8c-0.2-7-9.5-11-10.3-18c-0.8-7,7.5-13.3,5.3-20c-1.9-5.5-9.9-7.2-11.9-12.7
												c-2.9-7.6,8-14.9,6.4-22.9c-1-5-6.2-7.8-9.4-11.8c-2.7-3.3-4.1-7.6-3.8-11.7c0.4-5.4,3.4-10.5,2.9-15.9
												c-0.2-1.8-0.7-4.4-5.9-11.7c-6.8-9.5-15.6-21.7-31.1-28.2C383.4,257.6,381.6,256.9,379.1,256.4z"/>
										</g>
										<g class="st19">
											<g>
												<g>
													<path class="st21" d="M417.9,444.7l2.1-26c2.3-28.9-20-54.2-49.9-56.4l0,0c-29.8-2.2-55.9,19.4-58.1,48.3l-2.2,28
														C345.7,441.4,381.7,444.4,417.9,444.7z"/>
													<g>
														<path class="st1" d="M347.3,289.6c-2.6,5.6-2.9,11.2-3.4,22.5c-0.2,5.6-0.5,11.3,1.1,16.7c1.5,5.5,5.1,10.9,11,14
															c5.1,2.7,11.3,3.4,17.3,3.4c3.9,0,7.9-0.2,11.4-1.5c7.9-3,11.2-10.5,13.2-17.4c2.3-7.9,7.5-21.6-0.2-36.7
															c-2.9-5.7-6.7-13.1-16.1-16.3c-10.7-3.6-20.8,0.8-21.6,1.2C352.4,278.9,349.7,284.7,347.3,289.6z"/>
														<path class="st1" d="M383,377c-1,0.9-7.6,6.9-17.6,6c-9.6-0.9-14.9-7.4-15.8-8.5c2-4.7,4.3-11.8,4.9-20.7
															c0.6-8.3-0.6-15.2-1.7-19.9c11.1,0.8,22.3,1.7,33.4,2.5c-1.8,4.7-3.8,11.4-4.5,19.5C381,364.6,381.9,371.9,383,377z"
															/>
														<g>
															<path class="st6" d="M390.2,309c1.4,1.6,4,1.8,5.7,0.5c0.7-0.6-0.2-1.7-1-1.1c-1.1,0.9-2.7,0.7-3.6-0.3
																C390.7,307.4,389.6,308.3,390.2,309L390.2,309z"/>
															<g>
																<g>
																	<g>
																		<path class="st6" d="M379.5,310c1.8-4.1,10.5-2.4,12,1.1c0.4,1,2,0.3,1.6-0.7c-2.2-5-12.8-6.3-15.2-0.9
																			C377.4,310.4,379,311,379.5,310L379.5,310z"/>
																		<path class="st6" d="M378.3,307.6c0.2-0.4,0.5-0.7,0.9-0.9c0.9-0.6,0.2-2.1-0.8-1.5c-0.8,0.5-1.3,1.1-1.7,1.9
																			C376.2,308,377.8,308.5,378.3,307.6L378.3,307.6z"/>
																	</g>
																	<path class="st6" d="M377.7,298.1c5.5-2.3,11.6-1.7,16.5,1.6c1.2,0.8,2.5-1,1.3-1.8c-5.6-3.7-12.5-4.4-18.8-1.7
																		C375.4,296.7,376.3,298.7,377.7,298.1L377.7,298.1z"/>
																	<g class="st22">
																		<path class="st6" d="M365.1,311.7c0.7,2.5,2.3,5.9,1.8,8.4c-0.8,5-2.9,1.8-3.8,4.4c-1,2.9,2.9,4.2,5,3.9
																			c1-0.1,0.7-1.7-0.3-1.5c-3.2-1.1-4.1-1.7-2.5-2c0.2,0,0.4-0.1,0.6-0.2c0.2-0.2,0.6-0.3,0.8-0.5
																			c0.8-0.6,1.3-1.7,1.6-2.7c0.8-3.3-0.8-7-1.7-10.1C366.5,310.5,364.9,310.8,365.1,311.7L365.1,311.7z"/>
																	</g>
																	<path class="st6" d="M362.6,333.5c4.9,2.3,10.4,2.3,15.4,0c1-0.5,0.3-2-0.8-1.5c-4.6,2.1-9.5,2-14-0.1
																		C362.2,331.5,361.6,333.1,362.6,333.5L362.6,333.5z"/>
																	<g>
																		<path class="st6" d="M364,309.1c-1.5-5.4-11.6-5.6-14.3-1.3c-0.6,0.9,0.8,1.8,1.4,0.9c1.9-3,10.3-3.4,11.4,0.7
																			C362.7,310.4,364.3,310.1,364,309.1L364,309.1z"/>
																		<path class="st6" d="M365.5,307c-0.3-0.8-0.7-1.4-1.3-2c-0.8-0.7-1.7,0.6-0.9,1.3c0.3,0.3,0.5,0.6,0.7,1
																			C364.2,308.3,365.8,308,365.5,307L365.5,307z"/>
																	</g>
																	<path class="st6" d="M350.5,296.5c5.1-2.3,10.6-1.7,15.1,1.5c1.2,0.8,2.4-1,1.3-1.8c-5.2-3.7-11.6-4.3-17.4-1.7
																		C348.2,295.1,349.2,297.1,350.5,296.5L350.5,296.5z"/>
																	
																		<ellipse transform="matrix(4.144385e-02 -0.9991 0.9991 4.144385e-02 16.5795 662.386)" class="st23" cx="353.5" cy="322.6" rx="6.5" ry="6.9"/>
																	
																		<ellipse transform="matrix(4.144385e-02 -0.9991 0.9991 4.144385e-02 48.403 696.9864)" class="st23" cx="387.4" cy="323.3" rx="6.5" ry="6.9"/>
																</g>
																<path class="st6" d="M388.9,308.6c1.4-0.1,2.7-0.9,3.4-2.1c0.5-0.8-0.7-1.6-1.2-0.8c-0.5,0.9-1.4,1.4-2.5,1.5
																	C387.7,307.2,388,308.6,388.9,308.6L388.9,308.6z"/>
																<path class="st6" d="M384.9,307.5c1.3-0.1,2.4-1,2.8-2.2c0.2-0.9-1.1-1.4-1.4-0.5c-0.2,0.8-0.8,1.3-1.7,1.3
																	C383.7,306.2,384,307.6,384.9,307.5L384.9,307.5z"/>
															</g>
															<path class="st6" d="M351.3,306.5c-0.8,0.1-2.3,0.4-2.5-0.7c-0.2-0.9-1.6-0.6-1.5,0.3c0.4,2,2.6,2.1,4.3,1.8
																C352.5,307.8,352.2,306.4,351.3,306.5L351.3,306.5z"/>
															<path class="st6" d="M353.1,305.1c-0.8-0.2-1.3-0.6-1.8-1.2c-0.6-0.7-1.7,0.2-1.1,0.9c0.6,0.8,1.5,1.3,2.5,1.6
																C353.5,306.7,354,305.3,353.1,305.1L353.1,305.1z"/>
															<path class="st6" d="M355.9,304.6c-0.3-0.3-0.4-0.6-0.3-1c0.3-0.9-1.1-1.4-1.4-0.5c-0.3,0.9-0.1,1.8,0.6,2.4
																C355.5,306.2,356.6,305.3,355.9,304.6L355.9,304.6z"/>
														</g>
													</g>
												</g>
											</g>
											<path class="st1" d="M403.4,376.7c-8,7-19.6,16.7-29.2,23.4c-2.4,1.7-6.7,4.6-11.8,3.8c-4.7-0.7-7.7-4.4-10.4-7.8
												c-6.9-8.6-12.8-16.1-18.5-23.5c3.4-2.8,9.1-6.7,16.9-9.1c7.7-2.3,13.9-2.1,17.2-2C381.6,362.2,394.1,367.8,403.4,376.7z"
												/>
										</g>
										<g class="st19">
											<path class="st20" d="M357.1,272.9c-2.9,3.6-2.7,9-0.6,12.7c1.2,2.1,2.9,3.1,5,4.5c5.5,3.7,11.2,7.2,17.4,9.5
												c6.2,2.3,13.1,3.4,19.6,2c1.7-0.4,3.5-1,4.3-2.5c0.5-1,0.5-2.1,0.4-3.2c-1.1-14.6-16.8-22.6-16.8-22.6
												c-2.3-1.3-13.1-7.1-23.5-4C359.6,270.4,358,271.8,357.1,272.9z"/>
										</g>
										<g class="st19">
											<path class="st1" d="M399.9,315c0.8-1.1,1.8-2,3-2.7c1.2-0.6,2.7-0.9,4-0.4c0.7,0.3,1.2,0.7,1.7,1.2c1.9,2,2.3,5,1.3,7.5
												c-1,2.5-3.3,4.4-5.9,5.3s-5.5,0.9-8.2,0.3"/>
										</g>
										<g class="st19">
											<path class="st1" d="M344.9,311.7c-0.7-1.2-1.5-2.3-2.6-3.1s-2.5-1.2-3.9-1c-0.7,0.2-1.3,0.5-1.9,0.9
												c-2.2,1.7-3.1,4.6-2.4,7.2c0.6,2.6,2.6,4.8,5,6.1c2.4,1.3,5.3,1.7,8,1.6"/>
										</g>
										<g class="st19">
											<g>
												<g>
													<path class="st18" d="M352.5,322.7c-0.3-0.1-0.6-0.1-0.9-0.2c-6.8-1.7-10.9-8.4-9.2-15c0.8-3.2,2.9-5.9,5.8-7.5
														c2.9-1.7,6.3-2.2,9.6-1.3c3.3,0.8,6,2.8,7.8,5.6c1.7,2.8,2.2,6.1,1.4,9.3C365.4,319.9,359,323.8,352.5,322.7z
														 M356.5,301.3c-2.3-0.4-4.6,0-6.6,1.2c-2.2,1.3-3.8,3.3-4.4,5.7c-1.3,5,1.8,10.1,7,11.4c5.2,1.3,10.4-1.7,11.7-6.7
														c0.6-2.4,0.3-4.9-1-7.1c-1.3-2.1-3.4-3.7-5.9-4.3l0,0C356.9,301.4,356.7,301.4,356.5,301.3z"/>
												</g>
												<g>
													<path class="st18" d="M381,325.9c-0.3-0.1-0.6-0.1-0.9-0.2c-6.8-1.7-10.9-8.4-9.2-15c0.8-3.2,2.9-5.9,5.8-7.5
														c2.9-1.7,6.3-2.1,9.6-1.3l0,0c3.3,0.8,6,2.8,7.8,5.6c1.7,2.8,2.2,6.1,1.4,9.3C393.9,323.1,387.5,327,381,325.9z
														 M384.9,304.6c-2.3-0.4-4.6,0-6.6,1.2c-2.2,1.3-3.8,3.3-4.4,5.7c-1.3,5,1.8,10.1,7,11.4c5.1,1.3,10.4-1.7,11.7-6.7
														c0.6-2.4,0.3-4.9-1-7.1c-1.3-2.1-3.4-3.7-5.9-4.3l0,0C385.4,304.7,385.2,304.6,384.9,304.6z"/>
												</g>
												<g>
													<path class="st18" d="M366,313.2c1.6-1.1,3.9-0.8,5,0.7c0.6,0.7,1.8-0.1,1.2-0.8c-1.6-2.2-4.9-2.7-7.1-1.1
														C364.4,312.6,365.3,313.8,366,313.2L366,313.2z"/>
												</g>
											</g>
										</g>
									</g>
								</g>
								<g class="st24">
									<g>
										<path class="st6" d="M440.8,475.6l-160-12c-1.4-0.1-2.5-1.4-2.4-2.8c0.1-1.4,1.4-2.5,2.8-2.4l160,12
											c1.4,0.1,2.5,1.4,2.4,2.8C443.5,474.6,442.3,475.7,440.8,475.6z"/>
									</g>
									<g>
										<path class="st6" d="M439.7,490l-160-12c-1.4-0.1-2.5-1.4-2.4-2.8c0.1-1.4,1.4-2.5,2.8-2.4l160,12
											c1.4,0.1,2.5,1.4,2.4,2.8C442.4,489,441.1,490.1,439.7,490z"/>
									</g>
									<g>
										<path class="st6" d="M438.4,505.7l-160-12c-1.4-0.1-2.5-1.4-2.4-2.8c0.1-1.4,1.4-2.5,2.8-2.4l160,12
											c1.4,0.1,2.5,1.4,2.4,2.8C441.1,504.7,439.9,505.8,438.4,505.7z"/>
									</g>
									<g>
										<path class="st6" d="M365.4,517.3l-89.4-6.7c-0.8-0.1-1.4-1.3-1.2-2.7c0.1-1.4,0.9-2.6,1.7-2.5l89.4,6.7
											c0.8,0.1,1.4,1.3,1.2,2.7C366.9,516.3,366.2,517.4,365.4,517.3z"/>
									</g>
								</g>
								<g>
									<g>
										<polygon class="st18" points="317.4,583.1 266.6,578.6 271.1,529.6 321.9,534.1 										"/>
									</g>
									<g>
										<polygon class="st1" points="373.8,587.3 322.9,582.8 327.4,533.8 378.3,538.4 										"/>
									</g>
									<g>
										<path class="st25" d="M317.1,587.7l-2.2,23.7l-47.4-4c-1.2-0.1-2.3-0.3-3.4-0.7l2.2-23.5L317.1,587.7z"/>
									</g>
									<g>
										<polygon class="st18" points="373.4,591.9 371.2,616.2 320.4,611.9 322.6,587.4 										"/>
									</g>
									<g>
										<polygon class="st25" points="429.8,591.5 378.9,587 383.4,538 434.2,542.5 										"/>
									</g>
									<g>
										<polygon class="st1" points="429.4,596.1 427.1,621 376.3,616.6 378.6,591.6 										"/>
									</g>
								</g>
							</g>
						</g>
					</g>
					<path class="st26" d="M457.8,450.1l-14.1,157.4c-0.6,6.5-5.6,12-12.2,13.3c-1.5,0.3-3,0.4-4.5,0.3l-160.3-13.6
						c-4.1-0.3-7.8-2.2-10.5-5.3c-2.6-3.1-3.9-6.9-3.5-10.9l7.9-88.1c17.5,9.3,36.7,15.1,57.2,16.6C373,524,424.3,496.1,457.8,450.1
						z"/>
					<g class="st9">
						<defs>
							<path id="SVGID_15_" class="st9" d="M252.3,597.1l33.6-375.6c0.6-6.2,6.2-10.8,12.6-10.2l170,14.5c6.4,0.5,11.1,6,10.6,12.2
								l-33.6,375.6c-0.6,6.2-6.2,10.8-12.6,10.2l-170-14.5C256.5,608.7,251.7,603.3,252.3,597.1z"/>
						</defs>
						<clipPath id="SVGID_16_">
							<use xlink:href="#SVGID_15_"  style="overflow:visible;"/>
						</clipPath>
						<polygon class="st27" points="568,264.4 217.1,523.3 195.1,493.9 546,235 						"/>
						<polygon class="st27" points="534.7,141.1 188.3,396.7 179.1,384.5 525.6,128.8 						"/>
						<polygon class="st27" points="516.5,228.8 158.2,493.1 146,476.8 504.3,212.4 						"/>
					</g>
				</g>
				<g>
					<path class="st6" d="M428.8,229.4l-97-8.2c-2.1-0.2-3.6-2-3.4-4l1.2-13.5c0.2-2,2-3.5,4.1-3.3l97,8.2c2.1,0.2,3.6,2,3.4,4
						l-1.2,13.5C432.7,228.1,430.9,229.6,428.8,229.4z"/>
					<path class="st6" d="M396.8,635.6l-97-8.2c-2.1-0.2-3.6-2-3.4-4l0.9-9.6c0.2-2,2-3.5,4.1-3.3l97,8.2c2.1,0.2,3.6,2,3.4,4
						l-0.9,9.6C400.7,634.3,398.9,635.8,396.8,635.6z"/>
				</g>
			</g>
			<g class="st28">
				<line class="st17" x1="342" y1="212.4" x2="420.6" y2="218.3"/>
				<path class="st17" d="M420.5,219.6l-78.6-5.9c-0.6,0-1.1-0.7-1.1-1.4c0.1-0.7,0.6-1.3,1.3-1.2l78.6,5.9c0.6,0,1.1,0.7,1.1,1.4
					C421.7,219.1,421.1,219.7,420.5,219.6z"/>
			</g>
		</g>
		<g>
			<g>
				<path class="st4" d="M365.1,381.9c-24.5-3.4-41.5-25.5-38-49.2c3.5-23.7,26.3-40.3,50.7-36.9c24.5,3.4,41.5,25.5,38,49.2
					C412.4,368.8,389.6,385.3,365.1,381.9z M377.3,299.3c-22.5-3.1-43.5,12.1-46.7,33.9c-3.2,21.8,12.5,42.2,35,45.3
					c22.5,3.1,43.5-12.1,46.7-33.9C415.6,322.7,399.9,302.4,377.3,299.3z"/>
			</g>
			<g>
				<path class="st4" d="M394.4,336c4.1,3.2,3.1,9.8-1.7,11.8l-16.4,6.8l-16.4,6.8c-4.8,2-9.9-2.1-9.1-7.3l2.6-17.8l2.6-17.8
					c0.8-5.3,6.8-7.8,10.9-4.5l13.8,11L394.4,336z"/>
			</g>
		</g>
		<g>
			<path class="st4" d="M103.2,195.3c-3.7,1.2-20.4,6.6-41.1,16.3c-11,5.2-16.4,7.9-19.6,11.3c-11.9,12.4-10.5,33.1-7.4,50.8
				c1.7,9.5,4.3,20.2,12.3,25.1c7.3,4.5,16.4,2.4,24.4,0.2c12.1-3.3,24.2-6.6,36.3-9.9c6.1-1.7,12.8-3.3,18.8-0.8
				c2.7,1.2,5.1,3.2,7.6,4.8c8.7,5.4,19.8,6,28.7,1.4c-1.7-6.6-9.7-10.6-10-17.4c-0.4-9.1,11.5-11.1,18.1-16.8
				c9.5-8.1,7.1-24.1,2.7-36.4c-4.4-12.5-5.9-32.6-19.1-39.8C148.5,180.5,133.3,185.4,103.2,195.3z"/>
		</g>
		<g>
			<path class="st1" d="M103.6,266.5c-15.2-15-21.6-15.4-28.7-27.3c-3.9-6.6-3.8-9.9-3.6-12.3c0.2-3.8,3.2-7.9,7.4-9.6
				c5-2,9.6,0.4,12,1.6c2.9,1.5,4.9,3.5,6,4.8c-0.2-2.6-0.3-6.6,1-11.2c1.2-4.1,2.2-7.3,5-9.2c5.9-4,14.6-0.2,18,6
				c2.2,4.1,3.3,8.2,1.7,20.9c-2,15.4-5.3,40.2-12.8,40.6C107.9,271,107,269.8,103.6,266.5z"/>
		</g>
		<circle class="st4" cx="137.7" cy="560.1" r="34.5"/>
		<g>
			<g>
				<g>
					<path class="st6" d="M132.8,545.2c3.5-7.6,12.6-11,20.3-7.4s11.2,12.6,7.7,20.2c-3.5,7.6-12.6,11-20.3,7.4
						S129.3,552.8,132.8,545.2z M159.2,557.2c3-6.7,0-14.7-6.8-17.8s-14.9-0.2-17.9,6.5c-3,6.7,0,14.7,6.8,17.8
						S156.1,563.9,159.2,557.2z"/>
					<path class="st6" d="M131.5,544.7c3.8-8.3,13.7-11.9,22.1-8.1c8.4,3.8,12.2,13.7,8.4,22c-3.8,8.3-13.7,11.9-22.1,8.1
						C131.5,562.8,127.8,553,131.5,544.7z M157.9,556.7c2.7-6,0-13.2-6.2-16c-6.1-2.8-13.4-0.2-16.1,5.9s0,13.2,6.2,16
						C148,565.3,155.2,562.7,157.9,556.7z"/>
				</g>
			</g>
			<g>
				<g>
					<path class="st6" d="M113.7,575.1c0.2-0.3,0.4-0.7,0.7-0.9l20.7-15c1-0.7,2.4-0.5,3.2,0.5c0.7,1,0.5,2.4-0.5,3.2l-20.7,15
						c-1,0.7-2.4,0.5-3.2-0.5C113.4,576.7,113.4,575.8,113.7,575.1z"/>
				</g>
			</g>
		</g>
		<circle class="st4" cx="571.7" cy="179" r="40.7"/>
		<g>
			<path class="st6" d="M535.9,167.8l-1.4,0.3l0.3,1.4l0.8,0.4l27.2,13.5L568,215l0.1,0.6l0.6,0.3l0.8,0.4l0.3-0.6l0.2-0.4l0,0
				c10.3-20,20.6-39.9,30.9-59.9C579.3,159.6,557.6,163.7,535.9,167.8z M538.8,169.3l57.1-11.2l-32.6,23.4L538.8,169.3z
				 M569.6,212.1l-4.9-29.2l32.7-23.5L569.6,212.1z"/>
		</g>
		<circle class="st4" cx="533.9" cy="457.2" r="44.3"/>
		<g>
			<path class="st6" d="M510.6,425.9l-0.2,0.1l-15.3,41.1l61.9,23l0,0l15.4-41.3L510.6,425.9z M567.8,449.7l-35.6,13l-18.4-33.2
				L567.8,449.7z M511.4,430.2l13,23.3l-25.6,10.5L511.4,430.2z M499.6,466.3l25.9-10.7l5.3,9.6l0.5-0.2l0.2,0.5l9.2-3.4l12.1,24
				L499.6,466.3z M555.7,486.5L543,461.3l25.6-9.3L555.7,486.5z"/>
		</g>
		<g>
			<path class="st4" d="M489.7,559.8c19-2,62.7-0.6,84.1-1.4c16.3-0.6,32.7-0.2,49-0.5c8.1-0.1,15.5-0.3,21.2,4.9
				c7.2,6.6,9.2,20,3.8,26.8c-3.4,4.3-8.6,5.1-13.5,5.6c-42.7,5.1-85.9,10.2-128.4,3.1c-6.4-1.1-13-2.5-18.7-6.5
				c-1.2-0.9-10.9-8.4-11-19.1c0-1.8,0-4.8,1.9-7.5C481.2,560.8,486.9,560.1,489.7,559.8z"/>
		</g>
		<g>
			<path class="st29" d="M507.8,586.4l-5.1-2.9c-0.3-0.2-0.7-0.2-1,0l-5.2,2.6c-0.8,0.4-1.8-0.3-1.6-1.2l1.2-5.7
				c0.1-0.4,0-0.7-0.3-1l-4-4.2c-0.6-0.7-0.2-1.8,0.7-1.9l5.8-0.7c0.4,0,0.7-0.3,0.9-0.6l2.7-5.2c0.4-0.8,1.6-0.8,2,0.1l2.4,5.3
				c0.2,0.3,0.5,0.6,0.8,0.6l5.7,1c0.9,0.2,1.3,1.3,0.6,1.9l-4.3,4c-0.3,0.3-0.4,0.6-0.4,1l0.8,5.8
				C509.6,586.2,508.6,586.9,507.8,586.4z"/>
			<path class="st29" d="M539.8,586.4l-5.1-2.9c-0.3-0.2-0.7-0.2-1,0l-5.2,2.6c-0.8,0.4-1.8-0.3-1.6-1.2l1.2-5.7
				c0.1-0.4,0-0.7-0.3-1l-4-4.2c-0.6-0.7-0.2-1.8,0.7-1.9l5.8-0.7c0.4,0,0.7-0.3,0.9-0.6l2.7-5.2c0.4-0.8,1.6-0.8,2,0.1l2.4,5.3
				c0.2,0.3,0.5,0.6,0.8,0.6l5.7,1c0.9,0.2,1.3,1.3,0.6,1.9l-4.3,4c-0.3,0.3-0.4,0.6-0.4,1l0.8,5.8
				C541.6,586.2,540.6,586.9,539.8,586.4z"/>
			<path class="st29" d="M570.3,586.4l-5.1-2.9c-0.3-0.2-0.7-0.2-1,0l-5.2,2.6c-0.8,0.4-1.8-0.3-1.6-1.2l1.2-5.7
				c0.1-0.4,0-0.7-0.3-1l-4-4.2c-0.6-0.7-0.2-1.8,0.7-1.9l5.8-0.7c0.4,0,0.7-0.3,0.9-0.6l2.7-5.2c0.4-0.8,1.6-0.8,2,0.1l2.4,5.3
				c0.2,0.3,0.5,0.6,0.8,0.6l5.7,1c0.9,0.2,1.3,1.3,0.6,1.9l-4.3,4c-0.3,0.3-0.4,0.6-0.4,1l0.8,5.8
				C572.1,586.2,571.1,586.9,570.3,586.4z"/>
			<path class="st29" d="M601,586.4l-5.1-2.9c-0.3-0.2-0.7-0.2-1,0l-5.2,2.6c-0.8,0.4-1.8-0.3-1.6-1.2l1.2-5.7c0.1-0.4,0-0.7-0.3-1
				l-4-4.2c-0.6-0.7-0.2-1.8,0.7-1.9l5.8-0.7c0.4,0,0.7-0.3,0.9-0.6l2.7-5.2c0.4-0.8,1.6-0.8,2,0.1l2.4,5.3c0.2,0.3,0.5,0.6,0.8,0.6
				l5.7,1c0.9,0.2,1.3,1.3,0.6,1.9l-4.3,4c-0.3,0.3-0.4,0.6-0.4,1l0.8,5.8C602.8,586.2,601.8,586.9,601,586.4z"/>
			<path class="st30" d="M631,586.4l-5.1-2.9c-0.3-0.2-0.7-0.2-1,0l-5.2,2.6c-0.8,0.4-1.8-0.3-1.6-1.2l1.2-5.7c0.1-0.4,0-0.7-0.3-1
				l-4-4.2c-0.6-0.7-0.2-1.8,0.7-1.9l5.8-0.7c0.4,0,0.7-0.3,0.9-0.6l2.7-5.2c0.4-0.8,1.6-0.8,2,0.1l2.4,5.3c0.2,0.3,0.5,0.6,0.8,0.6
				l5.7,1c0.9,0.2,1.3,1.3,0.6,1.9l-4.3,4c-0.3,0.3-0.4,0.6-0.4,1l0.8,5.8C632.8,586.2,631.8,586.9,631,586.4z"/>
		</g>
		<g>
			<path class="st4" d="M255.5,165.2c-4.8-4-7.6-6.2-10.7-7.9c-9-4.8-17.3-2.2-34.4,0.5c-11,1.7-22,4.9-33.1,3.5
				c-16.6-2-31.4-15.5-34.9-32.1c-3.5-16.6,4.9-35.1,19.8-42.8c8.1-4.2,17.4-5.4,26.4-6.7c29.1-4.5,57.7-12.5,84.9-23.7
				c15.7-6.5,32.3-14.2,49.1-11.1c15,2.8,27.9,15,31.7,29.9c3.8,14.9-1.7,31.9-13.5,41.5c-7.7,6.3-17.5,9.5-27,12.4
				c-19.1,5.7-27.4,12.4-31.6,18.1c-9.9,13.4-5.4,30.1-11.1,31.1C268.1,178.6,266.5,174.2,255.5,165.2z"/>
		</g>
		<g class="st31">
			<g>
				<g>
					<path class="st6" d="M186.8,123.8c45.5-11.1,90.4-25,135.4-37.8c2.9-0.8,1.6-5.3-1.2-4.5c-45,12.8-89.9,26.8-135.4,37.8
						C182.7,120.1,183.9,124.5,186.8,123.8L186.8,123.8z"/>
				</g>
			</g>
			<g>
				<g>
					<path class="st6" d="M189.8,138.5c18.1-3.6,36.1-8,53.9-13c2.9-0.8,1.6-5.3-1.2-4.5c-17.8,5-35.7,9.3-53.9,13
						C185.6,134.7,186.9,139.1,189.8,138.5L189.8,138.5z"/>
				</g>
			</g>
			<g>
				<g>
					<path class="st6" d="M182.4,108.1c45.5-11.1,90.4-25,135.4-37.8c2.9-0.8,1.6-5.3-1.2-4.5c-45,12.8-89.9,26.8-135.4,37.8
						C178.3,104.3,179.6,108.8,182.4,108.1L182.4,108.1z"/>
				</g>
			</g>
		</g>
		<circle class="st29" cx="592.5" cy="364.1" r="30.7"/>
		<g>
			<path class="st6" d="M600.3,376.2c-1.2,2.1-3.5,3.3-6.1,3.7c-1.1-2.1-2.4-4-4.2-5.5c-3.1-2.7-7.6-3.6-11.6-2.7
				c-1.6-3-1.8-6.2-0.3-8.7c0.2-0.3,0.7-1,1.6-1.4c2.7-1.1,5.1,2.7,11.1,6.2c5.6,3.3,9.6,3.6,9.9,6.3
				C600.9,375.1,600.5,375.9,600.3,376.2z"/>
			<g>
				<path class="st20" d="M594.3,379.9c-3,0.5-6.6-0.3-9.9-2.2c-2.7-1.6-4.7-3.7-5.9-6c4-0.9,8.4,0,11.6,2.7
					C591.8,375.9,593.2,377.8,594.3,379.9z"/>
			</g>
		</g>
		<g>
			
				<ellipse transform="matrix(0.4921 -0.8705 0.8705 0.4921 -9.322 714.6532)" class="st6" cx="607.8" cy="365.3" rx="3.3" ry="3.1"/>
			
				<ellipse transform="matrix(0.4921 -0.8705 0.8705 0.4921 -7.869 684.2077)" class="st6" cx="582.5" cy="348.8" rx="3.3" ry="3.1"/>
		</g>
		<circle class="st32" cx="570.8" cy="354.7" r="4.6"/>
		<circle class="st32" cx="608.9" cy="376.9" r="4.6"/>
		<circle class="st29" cx="201" cy="434.2" r="29"/>
		<g>
			
				<ellipse transform="matrix(0.933 -0.3598 0.3598 0.933 -138.7311 105.3836)" class="st6" cx="213.7" cy="425.4" rx="3.1" ry="3.3"/>
			
				<ellipse transform="matrix(0.933 -0.3598 0.3598 0.933 -143.9478 95.6221)" class="st6" cx="184.9" cy="434.5" rx="3.1" ry="3.3"/>
		</g>
		<g>
			<path class="st6" d="M194.1,444.9c7.6,3.4,16.1-0.1,18.8-8.1c0.5-1.5-1.8-2.6-2.3-1c-2.3,6.6-9,9.7-15.5,6.8
				C193.7,441.9,192.7,444.2,194.1,444.9L194.1,444.9z"/>
		</g>
		<circle class="st32" cx="185.2" cy="445.7" r="4.6"/>
		<circle class="st32" cx="220.7" cy="435.4" r="4.6"/>
		<g>
			<g>
				<circle class="st29" cx="498.6" cy="98.9" r="30.7"/>
				<g>
					<path class="st6" d="M512.4,102.8c0.4,2.4-0.4,4.8-2.1,6.8c-2.2-0.8-4.5-1.4-6.8-1.4c-4.1,0.1-8.1,2.3-10.5,5.6
						c-3.2-1.2-5.5-3.4-6-6.4c-0.1-0.3-0.2-1.2,0.3-2.1c1.3-2.6,5.6-1.3,12.5-2.6c6.3-1.2,9.6-3.6,11.6-1.8
						C512.2,101.6,512.4,102.5,512.4,102.8z"/>
					<g>
						<path class="st20" d="M510.3,109.6c-2,2.3-5.1,4.1-8.9,4.8c-3,0.6-6,0.3-8.4-0.6c2.4-3.3,6.4-5.5,10.5-5.6
							C505.9,108.2,508.1,108.8,510.3,109.6z"/>
					</g>
				</g>
			</g>
			<g>
				<g>
					<path class="st20" d="M490.3,89.8c0.1,1.4-0.7,2.8-1.5,4c-1.4,2.1-2.8,4.3-4.1,6.4c0,0.1-0.1,0.2-0.1,0.2
						c-0.1-0.1-0.2-0.1-0.2-0.2c-2.1-1.5-4.2-2.9-6.3-4.4c-1.2-0.8-2.5-1.8-2.9-3.2c-0.6-1.8,0.8-3.9,2.7-4.4c1.8-0.5,3.9,0.4,4.7,2
						c0.2-1.8,1.7-3.4,3.6-3.6C488,86.4,490.1,87.9,490.3,89.8z"/>
				</g>
				<g>
					<path class="st20" d="M517.7,85.2c0.1,1.4-0.7,2.8-1.5,4c-1.4,2.1-2.8,4.3-4.1,6.4c0,0.1-0.1,0.2-0.1,0.2
						c-0.1-0.1-0.2-0.1-0.2-0.2c-2.1-1.5-4.2-2.9-6.3-4.4c-1.2-0.8-2.5-1.8-2.9-3.2c-0.6-1.8,0.8-3.9,2.7-4.4c1.8-0.5,3.9,0.4,4.7,2
						c0.2-1.8,1.7-3.4,3.6-3.6C515.5,81.9,517.5,83.3,517.7,85.2z"/>
				</g>
			</g>
		</g>
		<circle class="st32" cx="520.7" cy="99.5" r="4.6"/>
		<circle class="st32" cx="478.3" cy="107.9" r="4.6"/>
	</g>
</g>
</svg>
