<?xml version="1.0" encoding="utf-8"?>
<!-- Generator: Adobe Illustrator 22.0.0, SVG Export Plug-In . SVG Version: 6.00 Build 0)  -->
<svg version="1.1" xmlns="http://www.w3.org/2000/svg" xmlns:xlink="http://www.w3.org/1999/xlink" x="0px" y="0px"
	 viewBox="0 0 700 700" style="enable-background:new 0 0 700 700;" xml:space="preserve">
<style type="text/css">
	.st0{fill-rule:evenodd;clip-rule:evenodd;fill:#D5DEED;}
	.st1{fill-rule:evenodd;clip-rule:evenodd;fill:#D9E2F2;}
	.st2{fill-rule:evenodd;clip-rule:evenodd;fill:#B7C4D5;}
	.st3{fill-rule:evenodd;clip-rule:evenodd;fill:#FFFFFF;}
	.st4{fill-rule:evenodd;clip-rule:evenodd;fill:#E0E8F5;}
	.st5{fill-rule:evenodd;clip-rule:evenodd;fill:#CD7A7A;}
	.st6{fill-rule:evenodd;clip-rule:evenodd;fill:#E1AA85;}
	.st7{fill-rule:evenodd;clip-rule:evenodd;fill:#D68671;}
	.st8{fill-rule:evenodd;clip-rule:evenodd;fill:#2D2E3C;}
	.st9{fill-rule:evenodd;clip-rule:evenodd;fill:#4D4D5B;}
	.st10{fill-rule:evenodd;clip-rule:evenodd;fill:#B9B7B8;}
	.st11{fill-rule:evenodd;clip-rule:evenodd;fill:#DDE5F3;}
	.st12{fill-rule:evenodd;clip-rule:evenodd;fill:#B8C1AA;}
	.st13{fill-rule:evenodd;clip-rule:evenodd;fill:#A2AE91;}
	.st14{fill-rule:evenodd;clip-rule:evenodd;fill:#ABA789;}
	.st15{fill-rule:evenodd;clip-rule:evenodd;fill:#9B9875;}
	.st16{fill-rule:evenodd;clip-rule:evenodd;fill:#D9D5E9;}
	.st17{fill-rule:evenodd;clip-rule:evenodd;fill:#E9C3A7;}
	.st18{fill-rule:evenodd;clip-rule:evenodd;fill:#B9AFD3;}
	.st19{fill-rule:evenodd;clip-rule:evenodd;fill:#BF5E7F;}
	.st20{fill-rule:evenodd;clip-rule:evenodd;fill:#A34164;}
	.st21{fill-rule:evenodd;clip-rule:evenodd;fill:#F7F4F1;}
	.st22{fill-rule:evenodd;clip-rule:evenodd;fill:#F7ECE5;}
	.st23{fill-rule:evenodd;clip-rule:evenodd;fill:#F0E1D3;}
	.st24{fill-rule:evenodd;clip-rule:evenodd;fill:#CF6B5E;}
	.st25{fill-rule:evenodd;clip-rule:evenodd;fill:#E1C6AA;}
	.st26{fill-rule:evenodd;clip-rule:evenodd;fill:#CC685C;}
	.st27{fill-rule:evenodd;clip-rule:evenodd;fill:#3D3D4B;}
	.st28{fill-rule:evenodd;clip-rule:evenodd;fill:#EAC8AF;}
	.st29{fill-rule:evenodd;clip-rule:evenodd;fill:#F0F5FA;}
	.st30{fill-rule:evenodd;clip-rule:evenodd;fill:#F3E5D7;}
	.st31{fill-rule:evenodd;clip-rule:evenodd;fill:#363646;}
	.st32{fill-rule:evenodd;clip-rule:evenodd;fill:#ABA6CF;}
	.st33{fill-rule:evenodd;clip-rule:evenodd;fill:#727594;}
	.st34{fill-rule:evenodd;clip-rule:evenodd;fill:#BFCDE7;}
	.st35{fill-rule:evenodd;clip-rule:evenodd;fill:#7B99CE;}
</style>
<g id="BACKGROUND">
</g>
<g id="OBJECTS">
	<g>
		<g>
			<path class="st0" d="M586.4,134c49.7,0,90.3,40.6,90.3,90.3l0,0c0,49.7-40.6,90.3-90.3,90.3l0,0c-10,0-18.1,8.2-18.1,18.1l0,0
				c0,10,8.2,18.1,18.1,18.1h47.3c24.2,0,44.1,19.8,44.1,44.1l0,0c0,24.2-19.8,44.1-44.1,44.1c-21,0-38.1,17.1-38.1,38.1l0,0l0,0
				c0,38.2-31.3,69.5-69.5,69.5h-20.8l0,0H199.1H118c-49.7,0-90.3-40.6-90.3-90.3l0,0c0-49.7,40.6-90.3,90.3-90.3h63.7
				c10,0,18.1-8.2,18.1-18.1l0,0c0-10-8.2-18.1-18.1-18.1h-16.2c-24.2,0-44.1-19.8-44.1-44.1l0,0c0-24.2,19.8-44,44-44.1
				c0,0,4.7,0,4.7,0c21,0,38.1-17.1,38.1-38.1l0,0l0,0c0-38.2,31.3-69.5,69.5-69.5C345.5,134,518.6,134,586.4,134z"/>
			<path class="st1" d="M169.6,144.8c1.6,0,2.8-1.3,2.8-2.8c0-1.6-1.3-2.8-2.8-2.8c-1.6,0-2.8,1.3-2.8,2.8
				C166.7,143.6,168,144.8,169.6,144.8z"/>
			<path class="st1" d="M30.5,367.4c1.6,0,2.8-1.3,2.8-2.8c0-1.6-1.3-2.8-2.8-2.8c-1.6,0-2.8,1.3-2.8,2.8
				C27.6,366.1,28.9,367.4,30.5,367.4z"/>
			<path class="st1" d="M654.6,328.7c1.6,0,2.8-1.3,2.8-2.8c0-1.6-1.3-2.8-2.8-2.8c-1.6,0-2.8,1.3-2.8,2.8
				C651.8,327.4,653.1,328.7,654.6,328.7z"/>
			<path class="st1" d="M654.6,456.1c1.6,0,2.8-1.3,2.8-2.8c0-1.6-1.3-2.8-2.8-2.8c-1.6,0-2.8,1.3-2.8,2.8
				C651.8,454.8,653.1,456.1,654.6,456.1z"/>
			<path class="st1" d="M667.5,549.7c1.6,0,2.8-1.3,2.8-2.8c0-1.6-1.3-2.8-2.8-2.8c-1.6,0-2.8,1.3-2.8,2.8
				C664.7,548.4,666,549.7,667.5,549.7z"/>
			<circle class="st1" cx="25.6" cy="543.6" r="2.8"/>
		</g>
		<path class="st1" d="M113.2,404.9h89.4c3.6,0,6.6,3,6.6,6.6v89.4c0,3.6-3,6.6-6.6,6.6h-89.4c-3.6,0-6.6-3-6.6-6.6v-89.4
			C106.6,407.9,109.6,404.9,113.2,404.9z"/>
		<g>
			<path class="st2" d="M601.5,180.4c19,0,34.5,15.4,34.5,34.5c0,19-15.4,34.5-34.5,34.5h-30.1c-2.4,9-9.4,11.3-16,11.3
				c-8,0-35.8,0-49.3,0c-13.4,0-16.6-11.3-16.6-11.3H460c-7.9,0-14.2-6.4-14.2-14.2c0-7.5,5.8-13.6,13.1-14.2c0-0.7-0.1-1.4-0.1-2.1
				c0-15.6,12.7-28.3,28.3-28.3c4.1,0,8,0.9,11.5,2.5c3.4-23.9,24-42.2,48.8-42.2c20.6,0,38.3,12.7,45.6,30.6
				C595.8,180.8,598.6,180.4,601.5,180.4z"/>
			<g>
				<path class="st3" d="M599.1,177.2c19,0,34.5,15.4,34.5,34.5c0,19-15.4,34.5-34.5,34.5h-54h-87.5c-7.9,0-14.2-6.4-14.2-14.2
					c0-7.5,5.8-13.6,13.1-14.2c0-0.7-0.1-1.4-0.1-2.1c0-15.6,12.7-28.3,28.3-28.3c4.1,0,8,0.9,11.5,2.5c3.4-23.9,24-42.2,48.8-42.2
					c20.6,0,38.3,12.7,45.6,30.6C593.4,177.5,596.2,177.2,599.1,177.2z"/>
				<path class="st4" d="M566.1,239.2c0-14.9,0-28.4,0-28.4h7.2h2.4l-22-30.8h-3.7l-25.7,30.8h2.4h7.2c0,0.1,0,0.2,0,0.2
					c0,33.6,1,35.2-24.1,35.2h35.4h20.2C565.8,244.2,566.1,241.9,566.1,239.2z"/>
				<path class="st5" d="M569.8,239.2c0-14.9,0-28.4,0-28.4h7.2h2.4L553.6,180l-25.7,30.8h2.4h7.2c0,0.1,0,0.2,0,0.2
					c0,33.6,1,35.2-24.1,35.2h-26.3c0,0,3.2,11.3,16.6,11.3c13.4,0,41.2,0,49.3,0c6.6,0,13.7-2.3,16-11.3
					C569.5,244.2,569.8,241.9,569.8,239.2z"/>
			</g>
		</g>
		<g>
			<path class="st6" d="M468.5,253.6c0,0,2,2,4.7,7.3c2.7,5.3,10.9,20.4,19.9,30.2c9,9.8,11,16.7,13.9,27.3
				c2.9,10.6,15.5,58.4,17.1,72.3c1.6,13.9-2,112.7,9,147.4c3.5,11.1,9.1,25.6,15,40.3H400c-2.6-5.6-4.8-10.1-6.4-12.9
				c-11.4-19.6-33.9-25.3-50.6-49.4c-16.7-24.1-35.5-59.2-35.5-59.2l145.5-197.8L468.5,253.6z"/>
			<path class="st7" d="M400,578.4c-2.6-5.6-4.8-10.1-6.4-12.9c-11.4-19.6-33.9-25.3-50.6-49.4c-16.7-24.1-35.5-59.2-35.5-59.2
				l128.4-174.5c5,4.8,10.9,7.4,16,6.7c0,0,1.3-0.3,1.3,0.6c0,0.9-3.1,6.6-1,12c2.1,5.4,6.5,23.5,15.9,29.8
				c9.4,6.3-0.8,4.9-3.5,25.5c-2.7,20.6,0,68.6,0,94.8s18.4,36.4,27.9,40.8s-13.3,0.3-21.4,2.7c-8.2,2.4-37.8,16.3-43.5,50.3
				c-1.3,7.8,0.9,19.3,5.9,32.6H400z"/>
			<path class="st6" d="M248.6,185.3L248.6,185.3c8.8-5.1,20.2-2,25.3,6.8l43,74.5c5.1,8.8,2,20.2-6.8,25.4l0,0
				c-8.8,5.1-20.2,2-25.4-6.8l-43-74.5C236.7,201.8,239.8,190.4,248.6,185.3z"/>
			<path class="st7" d="M276.7,196.8l40.3,69.7c5.1,8.8,2,20.2-6.8,25.4l0,0c-8.8,5.1-20.2,2-25.4-6.8l-27.3-47.3
				c8.3,14.3,20.1,6.8,20.1-7.1s0-21.1,0-26.3C277.6,201.2,277.1,198.4,276.7,196.8z"/>
			<g>
				<path class="st8" d="M301.8,167.2h133.7c12.3,0,22.3,10,22.3,22.3v293.3c0,12.2-10,22.3-22.3,22.3H301.8
					c-12.3,0-22.3-10-22.3-22.3V189.4C279.5,177.2,289.5,167.2,301.8,167.2z"/>
				<path class="st9" d="M301.8,170.7c-10.3,0-18.7,8.4-18.7,18.7v293.3c0,10.3,8.4,18.7,18.7,18.7h133.7c10.3,0,18.7-8.4,18.7-18.7
					V189.4c0-10.3-8.4-18.7-18.7-18.7H301.8z"/>
				<path class="st3" d="M291.6,460.2V202.9c0-2.5,2-4.5,4.5-4.5h144.9c2.5,0,4.5,2,4.5,4.5v257.3c0,2.5-2,4.5-4.5,4.5H296.2
					C293.7,464.8,291.6,462.7,291.6,460.2z"/>
				<path class="st10" d="M337.3,187.6L337.3,187.6c0-1.4,1.2-2.6,2.6-2.6h57.3c1.4,0,2.6,1.2,2.6,2.6l0,0c0,1.4-1.2,2.6-2.6,2.6
					H340C338.5,190.3,337.3,189.1,337.3,187.6z"/>
				<path class="st10" d="M298.2,187.6L298.2,187.6c0-1.4,1.2-2.6,2.6-2.6h0.3c1.4,0,2.6,1.2,2.6,2.6l0,0c0,1.4-1.2,2.6-2.6,2.6
					h-0.3C299.4,190.3,298.2,189.1,298.2,187.6z"/>
				<path class="st10" d="M356.2,482.9L356.2,482.9c0-6.5,5.3-11.9,11.9-11.9h1.1c6.5,0,11.9,5.3,11.9,11.9l0,0
					c0,6.5-5.3,11.9-11.9,11.9h-1.1C361.5,494.8,356.2,489.5,356.2,482.9z"/>
			</g>
			<path class="st11" d="M313.5,236.6h110.2c7.2,0,13.1,5.9,13.1,13.1v135.7c0,7.2-5.9,13.1-13.1,13.1H313.5
				c-7.2,0-13.1-5.9-13.1-13.1V249.7C300.4,242.5,306.3,236.6,313.5,236.6z"/>
			<path class="st12" d="M378.1,398.5h-64.6c-7.2,0-13.1-5.9-13.1-13.1v-61.8c17.5,0,14.2,0,22.9,0c8.7,0,12.8,1.5,19.5,11.8
				C348,343.2,368.8,381.4,378.1,398.5z"/>
			<path class="st13" d="M355.3,398.5h-41.7c-7.2,0-13.1-5.9-13.1-13.1v-17.8h54.8V398.5z"/>
			<g>
				<path class="st3" d="M418.5,316.2c1.5,0,2.9,0.3,4.1,0.7c0.6-0.6,1.4-1,2.4-1c0.4,0,0.9,0.1,1.2,0.2c0.2-2.7,2.5-4.9,5.3-4.9
					c1.2,0,2.3,0.4,3.2,1.1c0.5-0.7,1.2-1.1,2-1.3V323h-7.6h-5.4h-8.9c-3.5,0-8.4,0.6-5-3.1C412.1,317.6,415.1,316.2,418.5,316.2z"
					/>
				<path class="st3" d="M436.8,270.9c-0.2,0-0.4,0.1-0.7,0.1c-0.2-0.5-0.8-0.9-1.4-0.9h0c0-0.1,0-0.2,0-0.4c0-3.4-2.7-6.1-6.1-6.1
					c-3.4,0-6.1,2.7-6.1,6.1c0,0,0,0.1,0,0.1c-0.3-0.1-0.6-0.1-0.9-0.1c-0.6,0-1.2,0.2-1.8,0.4c-0.9-1.2-2.3-2-4-2
					c-2.7,0-4.9,2.2-4.9,4.9c0,0.5,0.1,1,0.2,1.5c0,0-0.1,0-0.1,0c-1.3,0-2.4,1.1-2.4,2.4c0,0.2,0,0.3,0,0.5c0,0,0,0-0.1,0
					c-0.8,0-1.4,0.6-1.4,1.3c-0.2,0-0.4-0.1-0.6-0.1c-0.9,0-1.7,0.3-2.3,0.9c-1.6,1.5,0.1,1.9,1.8,1.9h2.2h1.7h26.9V270.9z"/>
				<path class="st3" d="M332.9,256.5c-0.8,0-1.5,0.1-2.2,0.4c-0.3-0.3-0.7-0.5-1.2-0.5c-0.2,0-0.4,0-0.6,0.1
					c-0.1-1.4-1.3-2.6-2.8-2.6c-0.6,0-1.2,0.2-1.7,0.6c-0.3-0.4-0.8-0.7-1.3-0.7c-0.1,0-0.2,0-0.3,0c0.2-0.4,0.3-0.9,0.3-1.4
					c0-2-1.6-3.6-3.6-3.6c-0.4,0-0.7,0.1-1.1,0.2c-0.3-0.6-0.8-0.9-1.5-0.9l0,0c0-0.1,0-0.3,0-0.4c0-3.6-2.9-6.5-6.5-6.5
					c-3.6,0-6.5,2.9-6.5,6.5c0,0,0,0.1,0,0.1c-0.3-0.1-0.6-0.1-1-0.1c-0.7,0-1.3,0.2-1.9,0.5c-0.1-0.2-0.3-0.4-0.5-0.5
					c-0.1,0.7-0.2,1.4-0.2,2.2V260h26.8h2.9h4.7c1.8,0,4.4,0.3,2.6-1.6C336.3,257.2,334.7,256.5,332.9,256.5z"/>
				<path class="st3" d="M312.5,294.9c-1.5,0-2.9,0.3-4.1,0.7c-0.6-0.6-1.4-1-2.4-1c-0.4,0-0.9,0.1-1.2,0.2c-0.2-2.4-2-4.4-4.3-4.8
					v11.6h1.3h5.4h8.9c3.5,0,8.4,0.6,5-3.1C318.9,296.3,315.9,294.9,312.5,294.9z"/>
			</g>
			<path class="st14" d="M436.8,336v49.4c0,7.2-5.9,13.1-13.1,13.1h-55.3c7.8-15.6,16.3-32.5,20.4-40.7
				c8.6-17.3,10.7-21.8,36.6-21.8H436.8z"/>
			<path class="st15" d="M436.8,349.8v35.6c0,7.2-5.9,13.1-13.1,13.1h-6.2v-39.6c0-5,4.1-9.1,9.1-9.1H436.8z"/>
			<g>
				<path class="st11" d="M302.9,215h96.3c1.3,0,2.5,0.9,2.5,2.1v1.1c0,1.1-1.1,2.1-2.5,2.1h-96.3c-1.3,0-2.5-0.9-2.5-2.1v-1.1
					C300.4,215.9,301.5,215,302.9,215z"/>
				<path class="st11" d="M434.4,215h-24.7c-1.3,0-2.5,0.9-2.5,2.1v1.1c0,1.1,1.1,2.1,2.5,2.1h24.7c1.3,0,2.5-0.9,2.5-2.1v-1.1
					C436.8,215.9,435.7,215,434.4,215z"/>
				<path class="st11" d="M434.4,224.4h-96.3c-1.3,0-2.5,0.9-2.5,2.1v1.1c0,1.1,1.1,2.1,2.5,2.1h96.3c1.3,0,2.5-0.9,2.5-2.1v-1.1
					C436.8,225.3,435.7,224.4,434.4,224.4z"/>
				<path class="st11" d="M302.9,224.4h24.7c1.3,0,2.5,0.9,2.5,2.1v1.1c0,1.1-1.1,2.1-2.5,2.1h-24.7c-1.3,0-2.5-0.9-2.5-2.1v-1.1
					C300.4,225.3,301.5,224.4,302.9,224.4z"/>
			</g>
			<path class="st6" d="M468.5,253.6c-15.9-15.9-23.7-29-23.7-29s-2.9-3.9-9.4-2.2c-20.6,5.2-24.4,41-1.4,67.5
				c12.5,14.4,20.8,24.9,23.7,41.6L468.5,253.6z"/>
			<path class="st16" d="M305.3,425.1h126.6c2.7,0,4.9,1.9,4.9,4.1v2.2c0,2.3-2.2,4.1-4.9,4.1H305.3c-2.7,0-4.9-1.9-4.9-4.1v-2.2
				C300.4,426.9,302.6,425.1,305.3,425.1z"/>
			<path class="st16" d="M302.9,415.7h96.3c1.3,0,2.5,0.9,2.5,2.1v1.1c0,1.1-1.1,2.1-2.5,2.1h-96.3c-1.3,0-2.5-0.9-2.5-2.1v-1.1
				C300.4,416.6,301.5,415.7,302.9,415.7z"/>
			<path class="st16" d="M434.4,415.7h-24.7c-1.3,0-2.5,0.9-2.5,2.1v1.1c0,1.1,1.1,2.1,2.5,2.1h24.7c1.3,0,2.5-0.9,2.5-2.1v-1.1
				C436.8,416.6,435.7,415.7,434.4,415.7z"/>
			<path class="st7" d="M457.7,331.5l1.5-11.1c-3.7-7.2-5.9-15.4-7.1-18.7c-2.1-5.4,1-11.1,1-12c0-0.9-1.3-0.6-1.3-0.6
				c-23.2,3.1-35.4-43.1-28.4-58c-8.6,12.6-7.1,38.4,10.6,58.8C446.5,304.2,454.9,314.8,457.7,331.5z"/>
			<path class="st17" d="M466,250.9c-14.8-15.6-21.2-26.3-21.2-26.3s-0.7-1-2.2-1.7c-3.2,2.2-4.9,5.1-4.4,8.5c0.5,3.4,9.9,23,17,23
				C462.3,254.4,463.4,252.7,466,250.9z"/>
			<g>
				<path class="st6" d="M279.5,400.9c-10.1,7.1-19.7,13.9-23,16.7c-3.3,2.8-3.4,8.2-3.4,11.8c0,3.6,0,8.3,0,10.4
					c0,2.1,0.9,7.3,7.5,16.3c6.6,8.9,17.7,23.2,22.4,26c11.7,7,20.8-11.4,15.2-25.7c-5.5-14-18.7-27-18.7-27V400.9z"/>
				<path class="st7" d="M279.5,400.9c-3.6,2.5-7.1,5-10.3,7.3c0,0,6.6-4.1,6.6,5.4c0,9.5,0,8.4,0,10.4c0,2-2,6.7-4.6,8.3
					c0,0-0.5,0.6,0,1c0.5,0.3,5.5-3.1,10.4,3.2c4.8,6.3,25.7,26.1,12.2,45c5.5-4.6,8.1-15.7,4.4-25.1c-5.5-14-18.7-27-18.7-27V400.9
					z"/>
				<path class="st17" d="M269.7,467.9c5.2,6.5,10.5,12.5,13.4,14.2c6.3-0.8,10-11.9,8.6-13.7c-1.4-1.8-10.4-12.8-12.1-13.4
					c-1.8-0.6-3.9,0-3.9,0C268.3,459.3,269.7,467.9,269.7,467.9z"/>
			</g>
			<g>
				<path class="st6" d="M279.5,346c-11.5,8.2-22.6,16-26.4,19.2c-3.8,3.2-3.9,9.5-3.9,13.6c0,4.1,0,9.5,0,11.9
					c0,2.4,1,8.4,8.6,18.7c7.6,10.3,20.4,26.7,25.8,29.9c13.5,8,23.9-13.1,17.4-29.5c-6.4-16.1-21.5-31-21.5-31V346z"/>
				<path class="st7" d="M279.5,346c-4.1,2.9-8.1,5.8-11.8,8.4c0,0,7.5-4.7,7.5,6.2c0,10.9,0,9.6,0,11.9c0,2.3-2.3,7.7-5.3,9.5
					c0,0-0.6,0.7,0,1.1c0.6,0.4,6.4-3.6,11.9,3.7c5.6,7.3,29.5,29.9,14,51.7c6.4-5.3,9.4-18,5.1-28.8c-6.4-16.1-21.5-31-21.5-31V346
					z"/>
				<path class="st17" d="M268.2,422.9c6,7.4,12,14.3,15.3,16.3c7.2-1,11.4-13.6,9.9-15.7c-1.6-2.1-11.9-14.7-13.9-15.4
					c-2-0.7-4.4,0-4.4,0C266.6,413,268.2,422.9,268.2,422.9z"/>
			</g>
			<g>
				<path class="st6" d="M279.5,301.3c-10.1,7.1-19.7,13.9-23,16.7c-3.3,2.8-3.4,8.2-3.4,11.8c0,3.6,0,8.3,0,10.4
					c0,2.1,0.9,7.3,7.5,16.3c6.6,8.9,17.7,23.2,22.4,26c11.7,7,20.8-11.4,15.2-25.7c-5.5-14-18.7-27-18.7-27V301.3z"/>
				<path class="st7" d="M279.5,301.3c-3.6,2.5-7.1,5-10.3,7.3c0,0,6.6-4.1,6.6,5.4c0,9.5,0,8.4,0,10.4c0,2-2,6.7-4.6,8.3
					c0,0-0.5,0.6,0,1c0.5,0.3,5.5-3.1,10.4,3.2c4.8,6.3,25.7,26.1,12.2,45c5.5-4.6,8.1-15.7,4.4-25.1c-5.5-14-18.7-27-18.7-27V301.3
					z"/>
				<path class="st17" d="M269.7,368.3c5.2,6.5,10.5,12.5,13.4,14.2c6.3-0.8,10-11.9,8.6-13.7c-1.4-1.8-10.4-12.8-12.1-13.4
					c-1.8-0.6-3.9,0-3.9,0C268.3,359.7,269.7,368.3,269.7,368.3z"/>
			</g>
			<g>
				<g>
					<path class="st18" d="M304.1,444.5h9.8c0.5,0,0.9,0.2,1.2,0.5l0,0c0.3,0.3,0.5,0.7,0.5,1.2l0,10c0,0.3,0,0.4-0.4,0.6
						c-0.5,0.2-0.5,0-0.7-0.3l0,0c-0.1-0.3-0.7-1.2-1.6-1.9c-0.5-0.3-1-0.6-1.6-0.6h-0.8v0.6c0,0.4-0.2,0.7-0.4,1
						c-0.3,0.3-0.6,0.4-1,0.4h-5.3c-0.4,0-0.8,0.2-1.1,0.4c-0.6,0.4-1,1.1-1.1,1.3l0,0.1c-0.2,0.3-0.3,0.5-0.7,0.3
						c-0.3-0.1-0.3-0.3-0.3-0.5c-0.1-2.4,0-5,0-7.4c0-0.4,0.2-0.7,0.4-1c0.3-0.3,0.6-0.4,1-0.4h0.5v-2.5c0-0.5,0.2-0.9,0.5-1.2
						C303.2,444.7,303.7,444.5,304.1,444.5L304.1,444.5z M312.5,450.7h0.6c0.2,0,0.3-0.1,0.3-0.3c0-0.2-0.1-0.3-0.3-0.3h-0.6
						c-0.2,0-0.3,0.1-0.3,0.3C312.2,450.6,312.3,450.7,312.5,450.7L312.5,450.7z M311.3,450.1h-5.4c-0.2,0-0.3,0.1-0.3,0.3
						c0,0.2,0.1,0.3,0.3,0.3h5.4c0.2,0,0.3-0.1,0.3-0.3C311.6,450.2,311.5,450.1,311.3,450.1L311.3,450.1z M305.5,447.5h-0.6
						c-0.2,0-0.3,0.1-0.3,0.3c0,0.2,0.1,0.3,0.3,0.3h0.6c0.2,0,0.3-0.1,0.3-0.3C305.8,447.7,305.7,447.5,305.5,447.5L305.5,447.5z
						 M306.8,448.2h6.3c0.2,0,0.3-0.1,0.3-0.3c0-0.2-0.1-0.3-0.3-0.3h-6.3c-0.2,0-0.3,0.1-0.3,0.3
						C306.4,448,306.6,448.2,306.8,448.2L306.8,448.2z M309.4,454.1h-5.3c-0.5,0-0.9-0.2-1.2-0.5c-0.3-0.3-0.5-0.7-0.5-1.2v-2.5
						h-0.5c-0.1,0-0.2,0-0.2,0.1c-0.1,0.1-0.1,0.1-0.1,0.2v5.8c0.1-0.1,0.3-0.3,0.5-0.4c0.5-0.4,1.1-0.6,1.8-0.6h5.3
						c0.1,0,0.2,0,0.2-0.1c0.1-0.1,0.1-0.1,0.1-0.2V454.1L309.4,454.1z M313.9,445.7h-9.8c-0.2,0-0.3,0.1-0.4,0.2
						c-0.1,0.1-0.2,0.3-0.2,0.4v3.1v3c0,0.2,0.1,0.3,0.2,0.4c0.1,0.1,0.3,0.2,0.4,0.2h5.9h1.3c0.9,0,1.7,0.3,2.3,0.8
						c0.3,0.3,0.7,0.5,0.9,0.8v-8.3c0-0.2-0.1-0.3-0.2-0.4C314.2,445.7,314.1,445.7,313.9,445.7z"/>
					<path class="st18" d="M349.1,439.6c1.1,0,2.1,0.5,2.8,1.2c0.7,0.7,1.2,1.7,1.2,2.8s-0.5,2.1-1.2,2.8l0,0
						c-0.7,0.7-1.7,1.1-2.8,1.1c-1.1,0-2.1-0.4-2.8-1.2l0,0c-0.7-0.7-1.2-1.7-1.2-2.8c0-1.1,0.5-2.1,1.2-2.8
						C347,440.1,348,439.6,349.1,439.6L349.1,439.6z M353.6,454L353.6,454L353.6,454v-0.4c0-1.2-0.5-2.3-1.3-3.1l0,0
						c-0.8-0.8-1.9-1.3-3.2-1.3c-1.2,0-2.3,0.5-3.2,1.3c-0.8,0.8-1.3,1.9-1.3,3.2v0.4l0,0l0,0v2.9c0,0.1,0,0.1,0.1,0.2l0,0
						c0,0,0.1,0.1,0.2,0.1h8.5c0.1,0,0.1,0,0.2-0.1c0,0,0.1-0.1,0.1-0.2V454L353.6,454z M354.7,454L354.7,454v2.9
						c0,0.4-0.2,0.7-0.4,0.9l0,0c-0.2,0.2-0.6,0.4-0.9,0.4h-8.5c-0.4,0-0.7-0.2-0.9-0.4l0,0c-0.2-0.2-0.4-0.6-0.4-0.9V454l0,0l0,0
						v-0.4c0-1.5,0.6-2.9,1.6-3.9c1-1,2.4-1.6,3.9-1.6s2.9,0.6,3.9,1.6l0,0c1,1,1.6,2.4,1.6,3.9V454L354.7,454L354.7,454z
						 M351.2,441.6c-0.5-0.5-1.3-0.9-2.1-0.9c-0.8,0-1.5,0.3-2.1,0.9c-0.5,0.5-0.9,1.3-0.9,2.1s0.3,1.5,0.9,2.1l0,0
						c0.5,0.5,1.3,0.9,2.1,0.9c0.8,0,1.5-0.3,2-0.8l0,0c0.5-0.5,0.9-1.3,0.9-2.1C352,442.9,351.7,442.1,351.2,441.6z"/>
					<path class="st18" d="M392.1,445.1c0.4,0.1,0.7,0.3,1,0.5c0.3,0.2,0.6,0.4,0.9,0.6l1.1-0.7l0.1,0c0.2-0.1,0.4-0.1,0.6-0.1
						c0.2,0.1,0.4,0.2,0.5,0.4l1,1.8c0.1,0.2,0.1,0.4,0.1,0.6c-0.1,0.2-0.2,0.4-0.4,0.5l-1.1,0.7c0,0.1,0,0.2,0.1,0.3
						c0,0.3,0.1,0.5,0.1,0.8c0,0.3,0,0.5-0.1,0.8c0,0.1,0,0.2-0.1,0.3l1.1,0.7c0.2,0.1,0.3,0.3,0.4,0.5s0,0.4-0.1,0.6l-1,1.8
						c-0.1,0.2-0.3,0.3-0.5,0.4c-0.2,0.1-0.4,0-0.6-0.1L394,455c-0.3,0.2-0.6,0.5-0.9,0.6c-0.3,0.2-0.7,0.3-1,0.5v1.3
						c0,0.2-0.1,0.4-0.2,0.6c-0.2,0.2-0.4,0.3-0.6,0.3h-2.1c-0.2,0-0.4-0.1-0.6-0.2l0-0.1c-0.1-0.1-0.2-0.3-0.2-0.5v-1.3
						c-0.4-0.1-0.7-0.3-1-0.5c-0.3-0.2-0.6-0.4-0.9-0.6l-1.1,0.7l-0.1,0c-0.2,0.1-0.4,0.1-0.6,0.1c-0.2-0.1-0.4-0.2-0.5-0.4l-1-1.8
						c-0.1-0.2-0.1-0.4-0.1-0.6c0.1-0.2,0.2-0.4,0.4-0.5l1.1-0.7c0-0.1,0-0.2-0.1-0.3c0-0.3-0.1-0.5-0.1-0.8c0-0.3,0-0.5,0.1-0.8
						c0-0.1,0-0.2,0.1-0.3l-1.1-0.7c-0.2-0.1-0.3-0.3-0.4-0.5c-0.1-0.2,0-0.4,0.1-0.6l1-1.8c0.1-0.2,0.3-0.3,0.5-0.4
						c0.2-0.1,0.4,0,0.6,0.1l1.1,0.7c0.3-0.2,0.6-0.5,0.9-0.6c0.3-0.2,0.7-0.3,1-0.5v-1.3c0-0.2,0.1-0.4,0.2-0.6
						c0.2-0.2,0.4-0.3,0.6-0.3h2.1c0.2,0,0.4,0.1,0.6,0.2l0,0.1c0.1,0.1,0.2,0.3,0.2,0.5V445.1L392.1,445.1z M392.6,446.5
						c-0.3-0.2-0.7-0.4-1.1-0.5c-0.3,0-0.4-0.3-0.4-0.5v-1.5h-1.6v1.5c0,0.2-0.2,0.5-0.4,0.5c-0.4,0.1-0.8,0.3-1.1,0.5
						c-0.4,0.2-0.7,0.5-1,0.7c-0.2,0.2-0.5,0.2-0.7,0.1l-1.3-0.7l-0.8,1.4l1.2,0.7c0.2,0.1,0.4,0.4,0.3,0.6
						c-0.1,0.2-0.1,0.4-0.1,0.6c0,0.2,0,0.4,0,0.6c0,0.2,0,0.4,0,0.6c0,0.2,0.1,0.4,0.1,0.6l0,0c0.1,0.2,0,0.5-0.3,0.6l-1.3,0.7
						l0.8,1.4l1.3-0.7c0.2-0.1,0.5-0.1,0.7,0.1c0.3,0.3,0.6,0.6,1,0.8c0.3,0.2,0.7,0.4,1.1,0.5c0.3,0,0.4,0.3,0.4,0.5v1.5h1.6v-1.5
						c0-0.2,0.2-0.5,0.4-0.5c0.4-0.1,0.8-0.3,1.1-0.5c0.4-0.2,0.7-0.5,1-0.7c0.2-0.2,0.5-0.2,0.7-0.1l1.3,0.7l0.8-1.4l-1.2-0.7
						c-0.2-0.1-0.4-0.4-0.3-0.6c0.1-0.2,0.1-0.4,0.1-0.6c0-0.2,0-0.4,0-0.6c0-0.2,0-0.4,0-0.6c0-0.2-0.1-0.4-0.1-0.6h0
						c-0.1-0.2,0-0.5,0.3-0.6l1.3-0.7l-0.8-1.4l-1.3,0.7c-0.2,0.1-0.5,0.1-0.7-0.1C393.3,447,393,446.7,392.6,446.5L392.6,446.5z
						 M390.2,447.6c-0.8,0-1.5,0.3-2.1,0.8l0,0c-0.5,0.5-0.9,1.3-0.9,2.1c0,0.8,0.3,1.6,0.9,2.1l0,0c0.5,0.5,1.3,0.9,2.1,0.9
						c0.8,0,1.6-0.3,2.1-0.9c0.5-0.5,0.9-1.3,0.9-2.1c0-0.8-0.3-1.6-0.9-2.1C391.8,448,391.1,447.6,390.2,447.6L390.2,447.6z
						 M391.6,449.3c-0.3-0.3-0.8-0.5-1.3-0.5c-0.5,0-1,0.2-1.3,0.5l0,0c-0.3,0.3-0.5,0.8-0.5,1.3c0,0.5,0.2,1,0.5,1.3l0,0
						c0.3,0.3,0.8,0.5,1.3,0.5c0.5,0,1-0.2,1.3-0.5c0.3-0.3,0.5-0.8,0.5-1.3C392.1,450.1,391.9,449.6,391.6,449.3z"/>
					<path class="st18" d="M435.4,448.7c1,1,1.4,2.2,1.4,3.5c0,1.3-0.5,2.5-1.4,3.5l0,0c-1,0.9-2.2,1.4-3.4,1.4
						c-1.1,0-2.2-0.4-3.1-1.1l-2,2c-0.2,0.2-0.6,0.2-0.8,0c-0.2-0.2-0.2-0.6,0-0.8l2-2c-0.7-0.9-1.1-2-1.1-3.1
						c0-1.3,0.5-2.5,1.4-3.5c1-1,2.2-1.4,3.5-1.4C433.2,447.3,434.4,447.8,435.4,448.7L435.4,448.7L435.4,448.7z M429.2,454.9
						L429.2,454.9L429.2,454.9c0.8,0.8,1.7,1.1,2.7,1.1c1,0,1.9-0.4,2.7-1.1l0,0c0.7-0.7,1.1-1.7,1.1-2.7c0-1-0.4-1.9-1.1-2.7
						c-0.7-0.7-1.7-1.1-2.7-1.1c-1,0-1.9,0.4-2.7,1.1c-0.7,0.7-1.1,1.7-1.1,2.7C428.1,453.2,428.5,454.1,429.2,454.9z"/>
				</g>
				<circle class="st19" cx="315.2" cy="444.8" r="2.9"/>
				<path class="st3" d="M315.7,446.2h-0.6v-2.2c-0.2,0.2-0.5,0.3-0.7,0.4V444c0.1,0,0.3-0.1,0.5-0.3c0.2-0.1,0.3-0.3,0.4-0.5h0.5
					V446.2z"/>
			</g>
			<g>
				<path class="st18" d="M439.5,204.4c0.3,0,0.5-0.2,0.5-0.5c0-0.3-0.2-0.5-0.5-0.5h-10.7c-0.3,0-0.5,0.2-0.5,0.5
					c0,0.3,0.2,0.5,0.5,0.5H439.5L439.5,204.4z M439.5,211.4c0.3,0,0.5-0.2,0.5-0.5c0-0.3-0.2-0.5-0.5-0.5h-10.7
					c-0.3,0-0.5,0.2-0.5,0.5c0,0.3,0.2,0.5,0.5,0.5H439.5L439.5,211.4z M439.5,207.9c0.3,0,0.5-0.2,0.5-0.5c0-0.3-0.2-0.5-0.5-0.5
					h-10.7c-0.3,0-0.5,0.2-0.5,0.5c0,0.3,0.2,0.5,0.5,0.5H439.5z"/>
				<path class="st18" d="M297.7,204.3L297.7,204.3L297.7,204.3z M310.6,204.9h-6.3v5.1h6.3c0.1,0,0.3-0.1,0.4-0.1
					c0.1-0.1,0.1-0.2,0.1-0.4v-4.1c0-0.1-0.1-0.3-0.1-0.4C310.9,204.9,310.8,204.9,310.6,204.9L310.6,204.9z M298.8,203.9h11.9
					c0.4,0,0.8,0.2,1.1,0.4c0.3,0.3,0.4,0.6,0.4,1.1v4.1c0,0.4-0.2,0.8-0.4,1.1c-0.3,0.3-0.6,0.4-1.1,0.4h-11.9
					c-0.4,0-0.8-0.2-1-0.4l0,0c-0.3-0.3-0.4-0.6-0.4-1.1v-4.1c0-0.4,0.2-0.8,0.4-1.1C298,204.1,298.4,203.9,298.8,203.9z"/>
			</g>
			<g>
				<path class="st19" d="M409.8,398.5c0.4-6.9,0.8-14.1,0.8-16.2c-0.1-3.6-9-11.5-12.9-16.8c-3.9-5.3-7.5-39.6-7.5-39.6
					s4.3,2.4,6.1,4.3c1.7,1.9,21.2,36.7,24.4,43.1c2.4,4.8,1.3,13.8-0.6,25.1H409.8z"/>
				<path class="st20" d="M409.8,398.5c0.4-6.9,0.8-14.1,0.8-16.2c-0.1-3.6-9-11.5-12.9-16.8c-3.9-5.3-7.5-39.6-7.5-39.6
					s4.3,2.4,6.1,4.3c0.3,0.3,1.1,1.6,2.3,3.6c-1.3,2.6,14.7,37.6,15.5,43.8c0.3,2.1-1,15.3-1.5,20.9H409.8z"/>
				<path class="st8" d="M345.5,270.7l-8,4.7c0,0,10.9,12.4,3.1,24.4c-7.9,12-1,14.9,1.5,14.9c0,0-6.4,14.8,8.7,19.4
					c15.1,4.6,37.3-3.9,37.3-3.9s11.2-10.6,0.7-27.5C378.2,285.8,345.5,270.7,345.5,270.7z"/>
				<path class="st21" d="M337.1,332.4c11.6-11.7,22.9-7.3,45.3-8.4c5,0.4,8.6,2.4,11.1,5.7c3.6,4.8,9.9,21.1,13.6,26.7
					c2.4,3.8,1.8,9.8-0.4,15.5v0c0,0-2.8,7.5-4.9,18.2c-0.4,2-0.6,4.9-0.7,8.4h-53.6c1-13.5-3.2-23.7-7.8-40
					c-1.3-4.4-2.3-9.4-2.5-13.9C336.9,339.4,336.7,335.5,337.1,332.4z"/>
				<path class="st22" d="M406.5,355.3c0.2,0.4,0.5,0.8,0.7,1.1c2.4,3.8,1.8,9.8-0.4,15.5v0c0,0-0.6,1.7-1.6,4.8
					c-0.4-1.5-0.7-3.4-1.9-3.5c-1.2-0.2-36.9,3.1-41.3,8.3c-1.6,1.9-3.7,8.8-5.4,17h-9.1c1-13.5-3.2-23.7-7.8-40
					c-1.3-4.4-2.3-9.4-2.5-13.9c-0.2-3.2-0.3-5.9-0.3-8.2c4.1-3.3,7.2-14.4,10.1-3.9c2.9,10.5,12.1,32.6,18.6,33.3
					c6.6,0.7,32.6-3.3,37.5-4.6C408,359.8,406.5,355.3,406.5,355.3z"/>
				<path class="st3" d="M393.6,329.8c0.6,0.8,1.3,2,2.1,3.3c-20.1,4.1-47.1,6-47.2,6c-1,0.1-1.9-0.7-2-1.7c-0.1-1,0.7-1.9,1.7-2
					C348.3,335.5,373.9,333.7,393.6,329.8L393.6,329.8z M392.3,398.5h-30.2c9.7-0.9,26.2-2.7,39.4-5.4c-0.1,1.1-0.2,2.4-0.3,3.8
					C398.4,397.5,395.4,398,392.3,398.5L392.3,398.5z M397,335.8c-20,4.2-47.7,6.2-47.8,6.2c-1,0.1-1.8,1-1.7,2c0.1,1,1,1.8,2,1.7
					c0.1,0,28.9-2,49.2-6.4C398.1,338,397.6,336.8,397,335.8L397,335.8z M400.4,342.8c0.5,1.1,1.1,2.3,1.6,3.4
					c-20.3,4.5-49.6,6.5-49.7,6.5c-1,0.1-1.9-0.7-2-1.7c-0.1-1,0.7-1.9,1.7-2C352.1,349.1,380.4,347.1,400.4,342.8L400.4,342.8z
					 M404.3,351.2c-20.1,4.6-50.3,6.7-50.4,6.7c-1,0.1-1.8,1-1.7,2c0.1,1,1,1.8,2,1.7c0.1,0,31.5-2.2,51.8-7
					C405.5,353.6,404.9,352.5,404.3,351.2L404.3,351.2z M405.8,374.9c-0.3,1.1-0.8,2.4-1.2,4c-20.3,4.5-50,6.6-50.1,6.6
					c-1,0.1-1.9-0.7-2-1.7c-0.1-1,0.7-1.9,1.7-2c0.1,0,31.3-2.2,51.3-7C405.6,374.9,405.7,374.9,405.8,374.9L405.8,374.9z
					 M403.2,384.2c-20,4.3-48.5,6.3-48.6,6.3c-1,0.1-1.8,1-1.7,2c0.1,1,1,1.8,2,1.7c0.1,0,27.3-1.9,47.4-6.1
					C402.6,386.8,402.9,385.5,403.2,384.2L403.2,384.2z M354.2,377.7c0.1,0,31.5-2.2,51.9-7c1-0.2,1.6-1.2,1.4-2.2
					c-0.2-1-1.2-1.6-2.2-1.4c-20,4.8-51.2,7-51.3,7c-1,0.1-1.8,1-1.7,2C352.3,377,353.2,377.8,354.2,377.7L354.2,377.7z
					 M354.2,370.1c-1,0.1-1.9-0.7-2-1.7c-0.1-1,0.7-1.9,1.7-2c0.1,0,31.3-2.2,51.3-7c1-0.2,2,0.4,2.2,1.4c0.2,1-0.4,2-1.4,2.2
					C385.8,367.9,354.3,370.1,354.2,370.1z"/>
				<path class="st23" d="M349.1,339.1c-0.4,0-0.7,0-0.7,0c-1,0.1-1.9-0.7-2-1.7c-0.1-0.9,0.6-1.7,1.4-1.9
					C348.3,336.7,348.7,337.9,349.1,339.1L349.1,339.1z M405.2,376.7c-0.1-0.5-0.2-1.1-0.4-1.6l0.7-0.2c0.1,0,0.2,0,0.2,0l0,0.1
					l0,0.1l0,0l0,0l0,0.1l0,0l0,0l0,0.1l0,0l0,0l0,0.1l0,0.1l0,0l0,0.1l0,0.1l0,0l0,0l0,0.1l0,0l0,0l0,0.1l0,0l0,0l0,0.1l0,0.1l0,0
					l0,0.1l0,0.1l0,0l0,0l0,0.1l0,0l0,0l0,0.1l0,0l0,0l0,0.1l0,0.1l0,0l0,0.1l0,0.1l0,0L405.2,376.7L405.2,376.7L405.2,376.7
					L405.2,376.7z M362.3,381.2c-0.1,0.1-0.1,0.1-0.2,0.2c-0.6,0.7-1.2,1.9-1.8,3.7c-3.5,0.3-5.7,0.5-5.7,0.5c-1,0.1-1.9-0.7-2-1.7
					c-0.1-1,0.7-1.9,1.7-2C354.3,381.9,357.4,381.7,362.3,381.2L362.3,381.2z M358.6,390.3c-0.3,1.2-0.6,2.4-1,3.8
					c-1.7,0.1-2.7,0.2-2.8,0.2c-1,0.1-1.9-0.7-2-1.7c-0.1-1,0.7-1.9,1.7-2C354.7,390.6,356.1,390.5,358.6,390.3L358.6,390.3z
					 M350.2,341.9c0.5,1.2,0.9,2.4,1.4,3.6c-1.3,0.1-2.1,0.2-2.1,0.2c-1,0.1-1.9-0.7-2-1.7c-0.1-1,0.7-1.9,1.7-2
					C349.2,341.9,349.6,341.9,350.2,341.9L350.2,341.9z M353.1,349c0.5,1.2,1.1,2.4,1.7,3.6c-1.6,0.1-2.5,0.2-2.5,0.2
					c-1,0.1-1.9-0.7-2-1.7c-0.1-1,0.7-1.9,1.7-2C352,349.1,352.4,349.1,353.1,349L353.1,349z M357.6,357.7c0.8,1.3,1.5,2.5,2.3,3.5
					c-3.5,0.3-5.7,0.5-5.7,0.5c-1,0.1-1.9-0.7-2-1.7c-0.1-1,0.7-1.9,1.7-2C354,358,355.3,357.9,357.6,357.7L357.6,357.7z
					 M364.5,365.5c-6.3,0.6-10.5,0.9-10.6,0.9c-1,0.1-1.8,1-1.7,2c0.1,1,1,1.8,2,1.7c0.1,0,31.5-2.2,51.9-7c1-0.2,1.6-1.2,1.4-2.2
					c-0.2-0.8-0.8-1.3-1.6-1.4c-0.5,0.7-1.4,1.4-2.8,1.8c-4.9,1.4-30.9,5.4-37.5,4.6C365.3,365.8,364.9,365.7,364.5,365.5
					L364.5,365.5z M354.2,377.7c0.1,0,31.5-2.2,51.9-7c1-0.2,1.6-1.2,1.4-2.2c-0.2-1-1.2-1.6-2.2-1.4c-20,4.8-51.2,7-51.3,7
					c-1,0.1-1.8,1-1.7,2C352.3,377,353.2,377.8,354.2,377.7z"/>
				<path class="st24" d="M363,299.2l0,6.2c0,0-0.6,12.7-0.7,14.7c0,0.1,0,0.2,0,0.2c0,1.2-0.2,2.8-0.9,3.1
					c-1.1,0.6-1.8,1.8-1.8,1.8s8.7,7.6,17,6.2c8.3-1.4,7.4-1.9,7.4-1.9l-2-5.4c0,0-2.4-1.4-2.5-6.9v0c-0.2-3.9,0.6-8.9,2-10.6
					C383.8,304,363,299.2,363,299.2z"/>
				<g>
					<path class="st25" d="M376.6,331.4c-2.8,22.7-30.4-10.8-15.3-7.9C361.3,323.5,364.5,330.8,376.6,331.4z"/>
					<path class="st25" d="M382,324.1c0,0,1,5.4-5.4,7.3c0,0,2.7,7.1,7,5.9C387.9,336.1,387.2,322.8,382,324.1z"/>
				</g>
				<g>
					<path class="st26" d="M347.6,284.4c-0.2,0-0.3,0.1-0.5,0.1l0,0l0,0c-2.8,0.7-4.9,3.3-4.8,6.4c0.1,3.5,3,6.3,6.6,6.3
						c3.5-0.1,6.3-3,6.3-6.6c-0.1-2.1-1.1-3.9-2.6-5c0.2,1.9,0,4.2-2.4,4.6l-0.1-3.7C350,284.9,348.6,284.3,347.6,284.4z"/>
					<path class="st26" d="M393.8,282.4c0.2,0,0.3,0,0.5,0.1l0,0h0c2.9,0.5,5.2,2.9,5.4,5.9c0.2,3.5-2.5,6.6-6,6.8
						c-3.5,0.2-6.6-2.5-6.8-6c-0.1-2.1,0.7-3.9,2.2-5.2c-0.1,1.9,0.3,4.2,2.7,4.4l-0.2-3.7C391.4,283.1,392.8,282.4,393.8,282.4z"/>
				</g>
				<path class="st6" d="M369.3,251.4L369.3,251.4c-12.1,0.5-21.5,10.8-21,22.9l0.9,20c0.5,12.1,10.8,21.5,22.9,21l0,0
					c12.1-0.5,21.5-10.8,21-22.9l-0.9-20C391.6,260.3,381.3,250.8,369.3,251.4z"/>
				<path class="st7" d="M352.3,260.6c-2.7,3.8-4.3,8.6-4,13.6l0.9,20c0.5,12.1,10.8,21.5,22.9,21l0,0c2-0.1,4-0.5,5.8-1.1
					c-19.7,1.2-23.1-14.6-23.2-16.8s-0.3-5.4-0.3-8.2c0-2.8,0.9-4.4,0.9-4.4s6.9-6.6,7.8-7.6c1-1,1.8-1.5,2.6-1.5c0.8,0,1.1,0,1.1,0
					c3.2,3.5,10.8,4.4,13,4.4c2.2,0,2.9,0,7.1-0.1c4.3,0,5.7,2.1,5.7,2.1l0,0l-0.4-8.3c-3.5-3.9-11.1-12.1-16.3-13
					C371.5,259.9,362.9,260.3,352.3,260.6z"/>
				<path class="st3" d="M369.1,299.2c0,3.1,2.6,5.7,5.7,5.7c3.1,0,5.7-2.6,5.7-5.7h0c0-0.5-0.4-1-1-1l-9.4,0
					C369.5,298.2,369.1,298.6,369.1,299.2L369.1,299.2z"/>
				<g>
					<path class="st26" d="M386.9,293.5c-1.6,0-2.9,1.4-2.8,3c0,1.6,1.4,2.9,3,2.8c1.6,0,2.9-1.4,2.8-3S388.5,293.5,386.9,293.5z"/>
					<path class="st26" d="M362.1,294.1c-1.6,0-2.9,1.4-2.8,3c0,1.6,1.4,2.9,3,2.8c1.6,0,2.9-1.4,2.8-3
						C365,295.4,363.7,294.1,362.1,294.1z"/>
				</g>
				<path class="st8" d="M365.4,290.9c0-0.5-0.3-1-0.6-1.4c-0.4-0.4-0.9-0.5-1.4-0.5c-0.5,0-1,0.3-1.4,0.6c-0.4,0.4-0.5,0.9-0.5,1.4
					c0,0.5-0.3,0.9-0.8,0.9c-0.5,0-0.9-0.3-0.9-0.8c0-1,0.3-1.9,1-2.6c0.7-0.7,1.6-1.1,2.5-1.2c1,0,1.9,0.3,2.6,1
					c0.7,0.7,1.1,1.6,1.2,2.5c0,0.5-0.3,0.9-0.8,0.9C365.8,291.7,365.4,291.4,365.4,290.9z"/>
				<path class="st8" d="M388,289.9c0-0.5-0.3-1-0.6-1.4c-0.4-0.4-0.9-0.5-1.4-0.5c-0.5,0-1,0.3-1.4,0.6c-0.4,0.4-0.5,0.9-0.5,1.4
					c0,0.5-0.3,0.9-0.8,0.9c-0.5,0-0.9-0.3-0.9-0.8c0-1,0.3-1.9,1-2.6c0.7-0.7,1.6-1.1,2.5-1.2c1,0,1.9,0.3,2.6,1
					c0.7,0.7,1.1,1.6,1.2,2.5c0,0.5-0.3,0.9-0.8,0.9C388.4,290.7,388,290.4,388,289.9z"/>
				<path class="st8" d="M360.5,284c-0.4,0.2-0.9,0.1-1.1-0.3c-0.2-0.4-0.1-0.9,0.3-1.1c2.1-1.2,4.8-1.4,6.9-0.3
					c0.4,0.2,0.6,0.7,0.3,1.1c-0.2,0.4-0.7,0.6-1.1,0.3C364.2,282.9,362,283.1,360.5,284z"/>
				<path class="st8" d="M388.4,282.8c-1.7-0.7-3.7-0.9-5.3,0.2c-0.4,0.3-0.9,0.1-1.2-0.2c-0.3-0.4-0.1-0.9,0.2-1.2
					c2-1.3,4.8-1.3,6.9-0.3c0.4,0.2,0.6,0.7,0.4,1.1C389.3,282.8,388.8,283,388.4,282.8z"/>
				<path class="st8" d="M392.8,285.3c0,0,0.3-2.3,3.2-2.4c8.2-10.3,6.4-26-3.2-33.8c-9.6-7.8-29.4-7.4-32.8-6.1
					c-3.4,1.3-6.7,7.3-6.7,7.3s-3-2.5-5.7-1c-2.7,1.5-11,19.1-10.8,23.4c0.2,4.3,8.9,12.4,8.9,12.4c2.8-0.1,3.4,2.1,3.4,2.1l0.1,3.1
					c2.8-0.1,2.9-3.7,2.8-5.8c0,0,8.6-2.7,12.8-16.3l-10.3,2.1l2.5-6.4l11.5-5.4l21.1,4l1,12.2h0h0
					C390.3,274.7,390.5,283.3,392.8,285.3z"/>
				<path class="st27" d="M400.7,272.3c1.6-8.6-1.3-17.8-8-23.2c-9.6-7.8-29.4-7.4-32.8-6.1c-3.4,1.3-6.7,7.3-6.7,7.3s-3-2.5-5.7-1
					c-1.8,1-6.3,9.6-8.9,16.3c1.5,2.8,3.8,5.3,7,5c2.9-0.3,6.5-1.6,9.8-3.2l1.4-3.7l11.5-5.4l21.1,4l0.9,12
					C394.3,274.1,397.9,273.2,400.7,272.3z"/>
				<path class="st8" d="M395.2,272.2l-2.2,7.1c0,0-22.7,1.4-28.4-11.2c0,0-2.8,12-14.4,11c-11.6-0.9,1.5-21.4,3.3-22.4
					c1.8-0.9,18.3-3.2,20.7-2.5c2.4,0.6,13.2,1.8,14.2,3.8c1,1.9,1.2,3.3,1.2,4.9C389.6,264.5,395.2,272.2,395.2,272.2z"/>
				<path class="st27" d="M395.2,272.2l-0.5,1.6c-9.7,1.9-23.3,1.6-30.1-11.4c0,0-11.8,7.5-19,8.2c1.2-6.6,6-14.6,7.1-15.2
					c1.8-0.9,19.7-4.3,22.1-3.7c2.4,0.6,15.7,2,16.7,4c1,1.9,1.2,3.3,1.2,4.9C392.6,262.2,395.2,272.2,395.2,272.2z"/>
				<path class="st9" d="M393.8,266.8c2.6-0.1,5.1-0.5,7.2-1.1c0,0.5,0.1,0.9,0.1,1.4c-1.9,0.7-4.2,1.2-6.8,1.6
					c-0.5,0.1-1,0.1-1.5,0.2c-0.4,0-0.7,0.1-1.1,0.1c-0.6,0-1.3,0.1-1.9,0.1c-0.6,0-1.3,0-2,0c-2.4-0.1-5-0.4-7.8-1
					c-5.1-1.1-8.6-4.1-11.1-7.8c-0.4-0.5-0.7-1.1-1-1.7c-0.7-1.2-1.3-2.5-1.8-3.8c-0.3-0.7-0.5-1.4-0.7-2c-0.1-0.3-0.2-0.5-0.2-0.8
					c-1-3.6-1.5-7.1-1.7-9.5c2.6-0.2,6-0.2,9.8,0.2c-0.1,2.4-0.2,5.6,0.3,9c0,0,0,0.1,0,0.1c0.1,0.9,0.3,1.8,0.5,2.7
					c0.5,2,1.1,3.9,2.1,5.6c0.2,0.3,0.4,0.6,0.5,0.9c1.6,2.5,4.4,4,7.7,4.9c1.6,0.4,3.4,0.7,5.2,0.8c0.5,0,1,0.1,1.5,0.1
					c0.1,0,0.2,0,0.3,0C392.3,266.8,393.1,266.8,393.8,266.8z"/>
				<path class="st28" d="M377.4,292.5c0,0,1,1,1.1,1.8c0.1,0.8-0.9,1.4-1.6,1.3c-0.7-0.1-1.2-3.2-1.1-3.6
					C375.8,291.7,376.3,291.3,377.4,292.5z"/>
				<path class="st19" d="M339.1,329.7c4-2.6,10.8-5.7,15.8-6.4c0,0,2.5,1.6,5.7,6.8c3.2,5.2,13.8,29.6,15.9,33.9
					c1.5,3.1-0.1,15.1-2.1,34.4h-29.2c1.1-8.2,0.7-18.9-3.1-32.4C342,366.2,336.5,334.2,339.1,329.7z"/>
				<path class="st19" d="M338.1,376.6c-4.7,9.1-8.4,16.4-8.6,16.6c-0.3,0.5,0.4,2.6,0.9,3.1c0.1,0.1,0.9,0.9,2.3,2.2h-19.2
					c-1.8,0-3.5-0.4-5.1-1c0.1-0.5,0.2-1.1,0.4-1.6c1.5-4.3,10.9-31,17-47c3.9-10.2,6.8-16.8,18.1-21.7c0,0,3,0.9,3.1,6.4
					c0.1,3.1,1.5,12.3-0.4,22.2C345.2,363.3,340.8,371.4,338.1,376.6z"/>
				<path class="st19" d="M381.1,323.3c0,0,0.9-0.2,1.8-0.1c0.9,0.1,6.5,1.7,9.6,4.4c3.2,2.7,15.5,28.5,16.5,32.3
					c1,3.7-0.8,8.2-3,18.6c-1,5-0.9,13-0.5,20.1h-11.4c0.5-5.7,1.1-11.4,1.7-16.4c2.1-17.1,2.7-20.7,0.5-26.7
					c-2.2-6-11-28.7-11.7-29.8c-0.7-1.1-1.7-1.6-2.7-1.5C382,324.1,381.5,323.9,381.1,323.3z"/>
				<path class="st20" d="M408.7,358.7c0.2,0.5,0.3,0.8,0.4,1.1c0.9,3.3-0.4,7.1-2.2,15.1c-2-0.9-5.2-1.7-9.9-1.2
					c0.6-5.3,0.9-8.7,0.8-11.4C397.8,362.3,405.5,361.8,408.7,358.7z"/>
				<g>
					<path class="st20" d="M351.4,398.5c0.4-4.8,1.6-9.9,1.8-13.4c0.2-3.6,14-6.8,23.4-8.5c0.5-5.5,0.6-9.3,0.2-11.4
						c-9.7,1.2-16.5,1.8-20.3,1c-3.6-0.7-7.4-6.2-9.9-10.5c-0.8,4.1-2.4,8.3-4.2,12.1c3.4,12.7,3.7,22.8,2.6,30.7H351.4z"/>
					<path class="st20" d="M342.5,367.8c1.8-3.8,3.4-8.1,4.2-12.1c-1.4-2.4-2.4-4.4-2.7-5c-0.8-1.6-1.5-2.2-3.7,3.8
						c-0.3,0.7-0.6,1.6-0.9,2.5c-2.9,8.7-10.3,29.9-10.9,31.6c-0.5,1.6-0.8,4.3,1.8,7.3c-0.4-0.8-0.9-2.3-0.6-2.7
						c0.2-0.2,3.9-7.5,8.6-16.6C339.3,374.2,340.9,371.1,342.5,367.8z"/>
				</g>
			</g>
			<g>
				<path class="st5" d="M305,402.9L305,402.9c1.1-1.1,2.9-1.1,4,0l0.3,0.3l0.3-0.3c1.1-1.1,2.9-1.1,4,0l0,0c1.1,1.1,1.1,2.9,0,4
					l-0.3,0.3l-4,4l-4-4L305,407C303.8,405.9,303.8,404.1,305,402.9z"/>
				<path class="st5" d="M320.7,402.5h6.9c0.8,0,1.4,0.6,1.4,1.4v4.4c0,0.8-0.6,1.4-1.4,1.4h-6.5l-1.4,1.5c-0.1,0.1-0.2,0.1-0.3,0.1
					c-0.1,0-0.2-0.1-0.2-0.2v-2.7V407v0v-3.1C319.3,403.1,319.9,402.5,320.7,402.5z"/>
				<path class="st5" d="M335.3,410.1c0,0.2-0.2,0.4-0.4,0.4s-0.4-0.2-0.4-0.4c0,0-0.2-5.4,5-5.9l-0.8-1.3c-0.1-0.2-0.1-0.4,0.1-0.6
					c0.2-0.1,0.4-0.1,0.6,0.1l1.1,1.8c0.1,0.1,0.1,0.2,0.1,0.2c0,0.1,0,0.2-0.1,0.2l-1.1,1.8c-0.1,0.2-0.4,0.3-0.6,0.1
					c-0.2-0.1-0.3-0.4-0.1-0.6l0.7-1.2C335.2,405.6,335.3,410.1,335.3,410.1z"/>
			</g>
			<path class="st5" d="M436.3,403.7c0.3,0,0.5-0.2,0.5-0.5c0-0.3-0.2-0.5-0.5-0.5h-10.7c-0.3,0-0.5,0.2-0.5,0.5
				c0,0.3,0.2,0.5,0.5,0.5H436.3L436.3,403.7z M436.3,410.7c0.3,0,0.5-0.2,0.5-0.5c0-0.3-0.2-0.5-0.5-0.5h-10.7
				c-0.3,0-0.5,0.2-0.5,0.5c0,0.3,0.2,0.5,0.5,0.5H436.3L436.3,410.7z M436.3,407.2c0.3,0,0.5-0.2,0.5-0.5c0-0.3-0.2-0.5-0.5-0.5
				h-10.7c-0.3,0-0.5,0.2-0.5,0.5c0,0.3,0.2,0.5,0.5,0.5H436.3z"/>
		</g>
		<g>
			<path class="st3" d="M106.5,399.3h89.4c3.6,0,6.6,3,6.6,6.6v89.4c0,3.6-3,6.6-6.6,6.6h-89.4c-3.6,0-6.6-3-6.6-6.6v-89.4
				C99.9,402.3,102.8,399.3,106.5,399.3z"/>
			<path class="st1" d="M126.2,490.4l55.2-49l15.8,15.2v34.2c0,3.3-2.7,5.9-5.9,5.9h-67C125.4,493,126.2,490.4,126.2,490.4z"/>
			<path class="st29" d="M105.1,446.7l23.2-20.6l68.7,66.2c-0.7,2.5-3,4.3-5.7,4.3H111c-3.3,0-5.9-2.7-5.9-5.9V446.7z"/>
			<path class="st30" d="M165.1,439.8c6.8,0,12.3-5.5,12.3-12.3c0-6.8-5.5-12.3-12.3-12.3c-6.8,0-12.3,5.5-12.3,12.3
				C152.7,434.3,158.3,439.8,165.1,439.8z"/>
		</g>
		<g>
			<path class="st1" d="M612.8,373.7v37.9c0,2.9-2.3,5.2-5.2,5.2h-49.6c0.2,2.7,2.5,4.8,5.2,4.8h54.7c2.9,0,5.2-2.3,5.2-5.2v-37.9
				c0-2.9-2.3-5.2-5.2-5.2h-5.1C612.7,373.4,612.8,373.6,612.8,373.7z"/>
			<path class="st8" d="M599.5,375.4h11.9c0.9,0,1.6-0.7,1.6-1.6v-6.3c0-0.9-0.7-1.6-1.6-1.6h-11.9c-0.9,0-1.6,0.7-1.6,1.6v6.3
				C597.9,374.7,598.6,375.4,599.5,375.4z"/>
			<path class="st9" d="M559.7,370.7h54.7c2.9,0,5.2,2.3,5.2,5.2v37.9c0,2.9-2.3,5.2-5.2,5.2h-54.7c-2.9,0-5.2-2.3-5.2-5.2v-37.9
				C554.5,373,556.8,370.7,559.7,370.7z"/>
			
				<ellipse transform="matrix(0.8302 -0.5575 0.5575 0.8302 -119.8559 400.3435)" class="st31" cx="597.1" cy="396.9" rx="16.8" ry="16.8"/>
			<path class="st31" d="M609.3,371.1V409c0,2.9-2.3,5.2-5.2,5.2h-49.6c0.2,2.7,2.5,4.8,5.2,4.8h54.7c2.9,0,5.2-2.3,5.2-5.2v-37.9
				c0-2.9-2.3-5.2-5.2-5.2h-5.1C609.3,370.8,609.3,370.9,609.3,371.1z"/>
			<path class="st3" d="M595.5,411.7c9.2,0,16.8-7.5,16.8-16.8c0-9.2-7.5-16.8-16.8-16.8c-9.2,0-16.8,7.5-16.8,16.8
				C578.7,404.1,586.2,411.7,595.5,411.7z"/>
			<path class="st32" d="M595.5,406.7c6.5,0,11.8-5.3,11.8-11.8c0-6.5-5.3-11.8-11.8-11.8s-11.8,5.3-11.8,11.8
				C583.6,401.4,589,406.7,595.5,406.7z"/>
			<path class="st18" d="M595.5,385.4c5.2,0,9.4,4.2,9.4,9.4c0,5.2-4.2,9.4-9.4,9.4c-5.2,0-9.4-4.2-9.4-9.4
				C586.1,389.7,590.3,385.4,595.5,385.4z"/>
			<path class="st3" d="M593.9,397.5c2.9,0,5.2-2.3,5.2-5.2c0-2.9-2.3-5.2-5.2-5.2c-2.9,0-5.2,2.3-5.2,5.2
				C588.7,395.2,591,397.5,593.9,397.5z"/>
			<path class="st3" d="M600.1,401c1.1,0,2.1-0.9,2.1-2.1s-0.9-2.1-2.1-2.1c-1.1,0-2.1,0.9-2.1,2.1S599,401,600.1,401z"/>
			<path class="st3" d="M562.6,375.9h9.7c0.7,0,1.3,0.6,1.3,1.3v5c0,0.7-0.6,1.3-1.3,1.3h-9.7c-0.7,0-1.3-0.6-1.3-1.3v-5
				C561.3,376.5,561.9,375.9,562.6,375.9z"/>
		</g>
		<g>
			<path class="st3" d="M292.4,534.5h-4.2c-1,0-1.8-0.8-1.8-1.8v-4.2c0-1,0.8-1.8,1.8-1.8h4.2c1,0,1.8,0.8,1.8,1.8v4.2
				C294.2,533.7,293.4,534.5,292.4,534.5z"/>
			<path class="st3" d="M278,534.5h-4.2c-1,0-1.8-0.8-1.8-1.8v-4.2c0-1,0.8-1.8,1.8-1.8h4.2c1,0,1.8,0.8,1.8,1.8v4.2
				C279.8,533.7,279,534.5,278,534.5z"/>
			<path class="st3" d="M263.6,534.5h-4.2c-1,0-1.8-0.8-1.8-1.8v-4.2c0-1,0.8-1.8,1.8-1.8h4.2c1,0,1.8,0.8,1.8,1.8v4.2
				C265.4,533.7,264.6,534.5,263.6,534.5z"/>
			<path class="st3" d="M249.2,534.5H245c-1,0-1.8-0.8-1.8-1.8v-4.2c0-1,0.8-1.8,1.8-1.8h4.2c1,0,1.8,0.8,1.8,1.8v4.2
				C251,533.7,250.2,534.5,249.2,534.5z"/>
			<path class="st3" d="M234.7,534.5h-4.2c-1,0-1.8-0.8-1.8-1.8v-4.2c0-1,0.8-1.8,1.8-1.8h4.2c1,0,1.8,0.8,1.8,1.8v4.2
				C236.6,533.7,235.7,534.5,234.7,534.5z"/>
			<path class="st3" d="M220.3,534.5h-4.2c-1,0-1.8-0.8-1.8-1.8v-4.2c0-1,0.8-1.8,1.8-1.8h4.2c1,0,1.8,0.8,1.8,1.8v4.2
				C222.1,533.7,221.3,534.5,220.3,534.5z"/>
			<path class="st3" d="M263,518.8h-4.2c-1,0-1.8-0.8-1.8-1.8v-4.2c0-1,0.8-1.8,1.8-1.8h4.2c1,0,1.8,0.8,1.8,1.8v4.2
				C264.9,518,264.1,518.8,263,518.8z"/>
			<path class="st3" d="M248.6,518.8h-4.2c-1,0-1.8-0.8-1.8-1.8v-4.2c0-1,0.8-1.8,1.8-1.8h4.2c1,0,1.8,0.8,1.8,1.8v4.2
				C250.5,518,249.6,518.8,248.6,518.8z"/>
			<path class="st3" d="M234.2,518.8h-4.2c-1,0-1.8-0.8-1.8-1.8v-4.2c0-1,0.8-1.8,1.8-1.8h4.2c1,0,1.8,0.8,1.8,1.8v4.2
				C236,518,235.2,518.8,234.2,518.8z"/>
		</g>
		<g>
			<path class="st3" d="M587.5,294.5h-4.2c-1,0-1.8-0.8-1.8-1.8v-4.2c0-1,0.8-1.8,1.8-1.8h4.2c1,0,1.8,0.8,1.8,1.8v4.2
				C589.3,293.7,588.5,294.5,587.5,294.5z"/>
			<path class="st3" d="M573.1,294.5h-4.2c-1,0-1.8-0.8-1.8-1.8v-4.2c0-1,0.8-1.8,1.8-1.8h4.2c1,0,1.8,0.8,1.8,1.8v4.2
				C574.9,293.7,574.1,294.5,573.1,294.5z"/>
			<path class="st3" d="M558.7,294.5h-4.2c-1,0-1.8-0.8-1.8-1.8v-4.2c0-1,0.8-1.8,1.8-1.8h4.2c1,0,1.8,0.8,1.8,1.8v4.2
				C560.5,293.7,559.7,294.5,558.7,294.5z"/>
			<path class="st3" d="M544.3,294.5h-4.2c-1,0-1.8-0.8-1.8-1.8v-4.2c0-1,0.8-1.8,1.8-1.8h4.2c1,0,1.8,0.8,1.8,1.8v4.2
				C546.1,293.7,545.3,294.5,544.3,294.5z"/>
			<path class="st3" d="M529.8,294.5h-4.2c-1,0-1.8-0.8-1.8-1.8v-4.2c0-1,0.8-1.8,1.8-1.8h4.2c1,0,1.8,0.8,1.8,1.8v4.2
				C531.7,293.7,530.8,294.5,529.8,294.5z"/>
			<path class="st3" d="M515.4,294.5h-4.2c-1,0-1.8-0.8-1.8-1.8v-4.2c0-1,0.8-1.8,1.8-1.8h4.2c1,0,1.8,0.8,1.8,1.8v4.2
				C517.2,293.7,516.4,294.5,515.4,294.5z"/>
			<path class="st3" d="M558.2,278.8H554c-1,0-1.8-0.8-1.8-1.8v-4.2c0-1,0.8-1.8,1.8-1.8h4.2c1,0,1.8,0.8,1.8,1.8v4.2
				C560,278,559.2,278.8,558.2,278.8z"/>
			<path class="st3" d="M543.7,278.8h-4.2c-1,0-1.8-0.8-1.8-1.8v-4.2c0-1,0.8-1.8,1.8-1.8h4.2c1,0,1.8,0.8,1.8,1.8v4.2
				C545.6,278,544.7,278.8,543.7,278.8z"/>
			<path class="st3" d="M529.3,278.8h-4.2c-1,0-1.8-0.8-1.8-1.8v-4.2c0-1,0.8-1.8,1.8-1.8h4.2c1,0,1.8,0.8,1.8,1.8v4.2
				C531.1,278,530.3,278.8,529.3,278.8z"/>
			<path class="st3" d="M544.3,311.4h-4.2c-1,0-1.8-0.8-1.8-1.8v-4.2c0-1,0.8-1.8,1.8-1.8h4.2c1,0,1.8,0.8,1.8,1.8v4.2
				C546.1,310.6,545.3,311.4,544.3,311.4z"/>
			<path class="st3" d="M529.8,311.4h-4.2c-1,0-1.8-0.8-1.8-1.8v-4.2c0-1,0.8-1.8,1.8-1.8h4.2c1,0,1.8,0.8,1.8,1.8v4.2
				C531.7,310.6,530.8,311.4,529.8,311.4z"/>
		</g>
		<g>
			<path class="st33" d="M178.3,262c-0.7,0-1.2-0.5-1.2-1.2c0-0.7,0.5-1.2,1.2-1.2h63.3c0.7,0,1.2,0.5,1.2,1.2
				c0,0.7-0.5,1.2-1.2,1.2H178.3z"/>
			<path class="st18" d="M188.4,266c2.8,0,5.1-2.3,5.1-5.1c0-2.8-2.3-5.1-5.1-5.1c-2.8,0-5.1,2.3-5.1,5.1
				C183.3,263.7,185.6,266,188.4,266z"/>
			<path class="st33" d="M178.3,281.9c-0.7,0-1.2-0.5-1.2-1.2c0-0.7,0.5-1.2,1.2-1.2h63.3c0.7,0,1.2,0.5,1.2,1.2
				c0,0.7-0.5,1.2-1.2,1.2H178.3z"/>
			<path class="st18" d="M222.8,285.9c2.8,0,5.1-2.3,5.1-5.1c0-2.8-2.3-5.1-5.1-5.1c-2.8,0-5.1,2.3-5.1,5.1
				C217.6,283.5,220,285.9,222.8,285.9z"/>
			<path class="st33" d="M178.3,301.8c-0.7,0-1.2-0.5-1.2-1.2c0-0.7,0.5-1.2,1.2-1.2h63.3c0.7,0,1.2,0.5,1.2,1.2
				c0,0.7-0.5,1.2-1.2,1.2H178.3z"/>
			<path class="st18" d="M202.6,305.7c2.8,0,5.1-2.3,5.1-5.1c0-2.8-2.3-5.1-5.1-5.1c-2.8,0-5.1,2.3-5.1,5.1
				C197.5,303.4,199.8,305.7,202.6,305.7z"/>
		</g>
		<path class="st1" d="M168.9,211.1L168.9,211.1L168.9,211.1z M163.3,190.1c-1.9-1.9-4.6-3.1-7.5-3.1c-2.9,0-5.6,1.2-7.5,3.1
			c-1.9,1.9-3.1,4.6-3.1,7.5c0,2.9,1.2,5.6,3.1,7.5c1.9,1.9,4.6,3.1,7.5,3.1c2.9,0,5.6-1.2,7.5-3.1c1.9-1.9,3.1-4.6,3.1-7.5
			C166.5,194.7,165.3,192,163.3,190.1L163.3,190.1z M161.1,179.6c1.5,0.4,2.9,1,4.2,1.8c1.3,0.8,2.6,1.7,3.6,2.8
			c0.2,0.2,0.5,0.2,0.8,0.1l4.9-2.8l0,0c0.3-0.2,0.6-0.2,0.9-0.1c0.3,0.1,0.6,0.3,0.7,0.6l0,0l3.5,6c0.2,0.3,0.2,0.6,0.1,0.9
			c-0.1,0.3-0.3,0.6-0.6,0.7l0,0l-4.9,2.8c-0.3,0.1-0.4,0.4-0.3,0.7h0c0.2,0.7,0.3,1.5,0.4,2.2c0.1,0.7,0.1,1.5,0.1,2.3
			c0,0.8,0,1.5-0.1,2.3c-0.1,0.8-0.2,1.5-0.4,2.2c-0.1,0.3,0.1,0.6,0.3,0.7l4.9,2.8l0,0c0.3,0.2,0.5,0.4,0.6,0.7
			c0.1,0.3,0,0.6-0.1,0.9l-3.5,6h0c-0.2,0.3-0.4,0.5-0.7,0.6c-0.3,0.1-0.6,0-0.9-0.1l0,0l-4.9-2.8c-0.3-0.1-0.6-0.1-0.8,0.1
			c-1.1,1.1-2.3,2-3.6,2.8c-1.3,0.8-2.7,1.4-4.2,1.8c-0.3,0.1-0.5,0.3-0.5,0.6v5.7c0,0.3-0.1,0.6-0.4,0.9c-0.2,0.2-0.5,0.4-0.9,0.4
			h-7c-0.3,0-0.6-0.1-0.9-0.4c-0.2-0.2-0.4-0.5-0.4-0.9v-5.7c0-0.3-0.2-0.6-0.5-0.6c-1.5-0.4-2.9-1-4.2-1.8
			c-1.3-0.8-2.6-1.7-3.6-2.8c-0.2-0.2-0.6-0.2-0.8-0.1l-4.9,2.8c-0.3,0.2-0.6,0.2-0.9,0.1c-0.3-0.1-0.6-0.3-0.7-0.6l0,0l-3.5-6l0,0
			c-0.2-0.3-0.2-0.6-0.1-0.9c0.1-0.3,0.3-0.6,0.6-0.7l4.9-2.8c0.3-0.1,0.4-0.4,0.3-0.7h0c-0.2-0.7-0.3-1.5-0.4-2.2
			c-0.1-0.7-0.1-1.5-0.1-2.3c0-0.8,0-1.5,0.1-2.3c0.1-0.8,0.2-1.5,0.4-2.2c0.1-0.3-0.1-0.6-0.3-0.7l-4.9-2.8
			c-0.3-0.2-0.5-0.4-0.6-0.7c-0.1-0.3,0-0.6,0.1-0.9l0,0l3.5-6h0c0.2-0.3,0.4-0.5,0.7-0.6c0.3-0.1,0.6,0,0.9,0.1l0,0l4.9,2.8
			c0.3,0.2,0.6,0.1,0.8-0.1c1.1-1.1,2.3-2,3.6-2.7c1.3-0.8,2.7-1.4,4.2-1.8c0.3-0.1,0.5-0.3,0.5-0.6v-5.7c0-0.3,0.1-0.6,0.4-0.9
			c0.2-0.2,0.5-0.4,0.9-0.4h7c0.3,0,0.6,0.1,0.9,0.4c0.2,0.2,0.4,0.5,0.4,0.9v5.7C160.6,179.2,160.8,179.5,161.1,179.6z"/>
		<path class="st19" d="M547.4,466.4L547.4,466.4c3.1-3.1,8.1-3.1,11.1,0l0.8,0.8l0.8-0.8c3.1-3.1,8.1-3.1,11.1,0l0,0
			c3.1,3.1,3.1,8.1,0,11.1l-0.8,0.8l-11.1,11.1l-11.1-11.1l-0.8-0.8C544.4,474.4,544.4,469.4,547.4,466.4z"/>
		<path class="st1" d="M86,151.4c-1.7-1.7-3.7-3-5.9-3.9c-2.1-0.9-4.5-1.4-6.9-1.4c-2.5,0-4.8,0.5-6.9,1.4c-2.2,0.9-4.2,2.3-5.9,3.9
			c-1.7,1.7-3,3.7-3.9,5.9c-0.9,2.1-1.4,4.5-1.4,6.9c0,2.5,0.5,4.8,1.4,6.9c0.9,2.2,2.3,4.2,3.9,5.9c1.7,1.7,3.7,3,5.9,3.9
			c2.1,0.9,4.5,1.4,7,1.4c2.5,0,4.8-0.5,6.9-1.4c2.2-0.9,4.2-2.3,5.9-3.9c1.7-1.7,3-3.7,3.9-5.9c0.9-2.1,1.4-4.5,1.4-6.9
			c0-2.5-0.5-4.8-1.4-6.9C89,155.1,87.7,153.1,86,151.4L86,151.4z M79.5,149c2,0.8,3.8,2.1,5.4,3.6c1.5,1.5,2.8,3.3,3.6,5.4
			c0.8,1.9,1.2,4.1,1.2,6.3c0,2.2-0.4,4.4-1.2,6.3c-0.8,2-2.1,3.8-3.6,5.4c-1.5,1.5-3.3,2.8-5.4,3.6c-1.9,0.8-4.1,1.2-6.3,1.2
			c-2.2,0-4.4-0.4-6.3-1.2c-2-0.8-3.8-2.1-5.4-3.6c-1.5-1.5-2.8-3.3-3.6-5.4c-0.8-1.9-1.2-4.1-1.2-6.3c0-2.2,0.4-4.4,1.2-6.3
			c0.8-2,2.1-3.8,3.6-5.4c1.5-1.5,3.3-2.8,5.4-3.6c1.9-0.8,4.1-1.2,6.3-1.2C75.4,147.7,77.5,148.2,79.5,149L79.5,149z M81.5,135.6
			c1.1,0.3,2.3,0.7,3.4,1.2c1.1,0.5,2.2,1,3.2,1.6c1,0.6,2.1,1.3,3,2c1,0.7,1.9,1.5,2.8,2.4c0.3,0.3,0.7,0.5,1.1,0.5
			c0.4,0,0.8,0,1.2-0.2c2.7-1.5,5.5-3.1,8.1-4.7c0.1-0.1,0.3-0.1,0.4-0.1c0.2,0,0.3,0,0.4,0c0.1,0,0.3,0.1,0.4,0.2
			c0.1,0.1,0.2,0.2,0.3,0.3c1.9,2.9,3.9,6.7,5.7,9.9c0.1,0.1,0.1,0.3,0.1,0.4c0,0.2,0,0.3,0,0.5c0,0.1-0.1,0.3-0.2,0.4
			c-0.1,0.1-0.2,0.2-0.3,0.3c-2.4,1.6-5.5,3.2-8,4.6c-0.4,0.2-0.6,0.5-0.8,0.9c-0.1,0.1-0.1,0.3-0.1,0.4l-0.2,0.1l0.2,0.7
			c0.1,0.6,0.3,1.2,0.4,1.8c0.1,0.6,0.2,1.2,0.3,1.8c0.1,0.6,0.1,1.2,0.2,1.8c0,0.6,0.1,1.2,0.1,1.8c0,0.6,0,1.2-0.1,1.8
			c0,0.6-0.1,1.2-0.2,1.8c-0.1,0.6-0.2,1.2-0.3,1.8c-0.1,0.6-0.2,1.2-0.4,1.8c-0.1,0.4-0.1,0.9,0.1,1.3c0.2,0.4,0.5,0.7,0.9,0.9
			l7.1,4.1l0,0l0.8,0.5c0.1,0.1,0.2,0.2,0.3,0.3c0.1,0.1,0.2,0.3,0.2,0.4c0,0.2,0.1,0.3,0,0.5c0,0.1-0.1,0.3-0.1,0.4l-5.3,9.1l0,0
			l-0.4,0.7c-0.1,0.1-0.2,0.2-0.3,0.3c-0.1,0.1-0.3,0.2-0.4,0.2c-0.2,0-0.3,0.1-0.5,0c-0.1,0-0.3-0.1-0.4-0.1
			c-2.6-1.6-5.4-3.1-8.1-4.7c-0.4-0.2-0.8-0.3-1.2-0.2c-0.4,0-0.8,0.2-1.1,0.5l0,0c-0.9,0.8-1.8,1.6-2.8,2.4c-1,0.7-2,1.4-3,2
			c-1,0.6-2.1,1.1-3.2,1.6c-1.1,0.5-2.2,0.9-3.4,1.2c-0.4,0.1-0.8,0.4-1,0.7c-0.2,0.3-0.4,0.7-0.4,1.2l0,9.3c0,0.2,0,0.3-0.1,0.4
			c-0.1,0.1-0.1,0.3-0.3,0.4c-0.1,0.1-0.2,0.2-0.4,0.3c-0.1,0.1-0.3,0.1-0.4,0.1H67.4c-0.2,0-0.3,0-0.4-0.1
			c-0.1-0.1-0.3-0.1-0.4-0.3c-0.1-0.1-0.2-0.2-0.3-0.4c-0.1-0.1-0.1-0.3-0.1-0.4v-9.3c0-0.4-0.2-0.9-0.4-1.2
			c-0.3-0.3-0.6-0.6-1.1-0.7c-1.1-0.3-2.3-0.7-3.3-1.2c-1.1-0.5-2.2-1-3.2-1.6c-1-0.6-2.1-1.3-3-2c-1-0.7-1.9-1.5-2.8-2.4
			c-0.3-0.3-0.7-0.5-1.1-0.5c-0.4,0-0.9,0.1-1.2,0.3l-8,4.6c-0.1,0.1-0.3,0.1-0.4,0.1c-0.1,0-0.3,0-0.5,0c-0.1,0-0.3-0.1-0.4-0.2
			c-0.1-0.1-0.2-0.2-0.3-0.3c-1.9-3.3-3.8-6.6-5.7-9.9c-0.1-0.1-0.1-0.3-0.1-0.4c0-0.1,0-0.3,0-0.5c0-0.1,0.1-0.3,0.2-0.4
			c0.1-0.1,0.2-0.2,0.3-0.3l8-4.6c0.4-0.2,0.6-0.5,0.8-0.9c0-0.1,0.1-0.2,0.1-0.3l0.2,0l-0.2-0.9c-0.1-0.6-0.3-1.2-0.4-1.8
			c-0.1-0.6-0.2-1.2-0.3-1.8c-0.1-0.6-0.1-1.2-0.2-1.8c0-0.6-0.1-1.2-0.1-1.8c0-0.6,0-1.2,0.1-1.8c0-0.6,0.1-1.2,0.2-1.8
			c0.1-0.6,0.2-1.2,0.3-1.8c0.1-0.6,0.2-1.2,0.4-1.8c0.1-0.4,0.1-0.9-0.1-1.3c-0.2-0.4-0.5-0.7-0.9-0.9l-8-4.6
			c-0.1-0.1-0.2-0.2-0.3-0.3c-0.1-0.1-0.2-0.3-0.2-0.4c0-0.2-0.1-0.3,0-0.5c0-0.1,0.1-0.3,0.1-0.4c1.9-2.9,3.9-6.8,5.7-9.9
			c0.1-0.1,0.2-0.2,0.3-0.3c0.1-0.1,0.3-0.2,0.4-0.2c0.2,0,0.3-0.1,0.5,0c0.1,0,0.3,0.1,0.4,0.1l8.1,4.6c0.4,0.2,0.8,0.3,1.2,0.2
			c0.4-0.1,0.8-0.2,1.1-0.5c0.9-0.8,1.8-1.6,2.8-2.4c1-0.7,2-1.4,3-2c1-0.6,2.1-1.1,3.2-1.6c1.1-0.5,2.2-0.9,3.4-1.2
			c0.4-0.1,0.8-0.4,1-0.7c0.2-0.3,0.4-0.7,0.4-1.1l0-9.3c0-0.2,0-0.3,0.1-0.4c0.1-0.1,0.1-0.3,0.3-0.4c0.1-0.1,0.2-0.2,0.4-0.3
			c0.1-0.1,0.3-0.1,0.4-0.1h11.4c0.2,0,0.3,0,0.4,0.1c0.1,0.1,0.3,0.1,0.4,0.3c0.2,0.2,0.3,0.5,0.3,0.8v9.3c0,0.4,0.2,0.9,0.4,1.2
			C80.7,135.3,81,135.5,81.5,135.6L81.5,135.6z M85.5,135.3c1.2,0.5,2.3,1.1,3.4,1.7c1.1,0.6,2.2,1.4,3.2,2.1c1,0.8,2,1.6,2.9,2.5
			c0,0,0.1,0.1,0.1,0.1c0,0,0.1,0,0.1,0c2.7-1.6,5.4-3.1,8.1-4.7c0.3-0.2,0.7-0.3,1-0.3c0.4,0,0.7,0,1.1,0.1c0.4,0.1,0.7,0.3,1,0.5
			c0.3,0.2,0.5,0.5,0.7,0.8c2,3.2,3.8,6.6,5.7,9.9c0.2,0.3,0.3,0.7,0.4,1.1c0,0.4,0,0.8-0.1,1.1c-0.1,0.4-0.3,0.7-0.5,1
			c-0.2,0.3-0.5,0.5-0.8,0.7c-2.6,1.6-5.4,3.1-8,4.6c0,0-0.1,0.1-0.1,0.1c0,0,0,0.1,0,0.1l0.2,0.8l0,0c0.1,0.4,0.2,0.7,0.2,1.1
			c0.1,0.6,0.2,1.3,0.3,1.9c0.1,0.6,0.1,1.3,0.2,1.9c0,0.7,0.1,1.3,0.1,1.9c0,0.6,0,1.3-0.1,1.9c0,0.7-0.1,1.3-0.2,1.9
			c-0.1,0.6-0.2,1.3-0.3,1.9c-0.1,0.6-0.3,1.3-0.4,1.9c0,0,0,0.1,0,0.1c0,0,0.1,0.1,0.1,0.1c3,1.6,6,3.4,8.9,5.1l-0.1,0.1l0.1,0.1
			c0.2,0.3,0.4,0.6,0.5,1c0.1,0.4,0.1,0.7,0.1,1.1c0,0.4-0.2,0.7-0.4,1.1l-6.1,10.6l-0.1-0.1c-0.1,0.1-0.1,0.1-0.2,0.2
			c-0.3,0.2-0.6,0.4-1,0.5c-0.4,0.1-0.7,0.1-1.1,0.1c-0.4,0-0.7-0.2-1-0.3c-2.7-1.4-5.4-3.1-8.1-4.7c0,0-0.1,0-0.1,0
			c0,0-0.1,0-0.1,0.1c-0.9,0.9-1.9,1.7-2.9,2.5c-1,0.8-2.1,1.5-3.2,2.1c-1.1,0.6-2.2,1.2-3.4,1.7c-1.2,0.5-2.4,0.9-3.6,1.3
			c0,0-0.1,0-0.1,0.1c0,0,0,0.1,0,0.1v9.3c0,0.4-0.1,0.7-0.2,1.1c-0.1,0.3-0.4,0.7-0.6,0.9c-0.3,0.3-0.6,0.5-0.9,0.6
			c-0.3,0.1-0.7,0.2-1.1,0.2H67.4c-0.4,0-0.7-0.1-1.1-0.2c-0.3-0.1-0.7-0.4-0.9-0.6c-0.3-0.3-0.5-0.6-0.6-0.9
			c-0.1-0.3-0.2-0.7-0.2-1.1v-9.3c0-0.1,0-0.1,0-0.1c0,0-0.1-0.1-0.1-0.1l0,0c-1.2-0.4-2.4-0.8-3.6-1.3c-1.2-0.5-2.3-1.1-3.4-1.7
			c-1.1-0.6-2.2-1.4-3.2-2.1c-1-0.8-2-1.6-2.9-2.5c0,0-0.1-0.1-0.1-0.1c0,0-0.1,0-0.1,0l-8,4.6c-0.3,0.2-0.7,0.3-1,0.4
			c-0.4,0-0.8,0-1.1-0.1c-0.4-0.1-0.7-0.3-1-0.5c-0.3-0.2-0.5-0.5-0.7-0.8c-2.1-3.4-4.1-7.1-6.1-10.6l0.1-0.1c0-0.1,0-0.2,0-0.3
			c0-0.4,0-0.7,0.1-1.1c0.1-0.4,0.3-0.7,0.5-1c0.2-0.3,0.5-0.5,0.8-0.7l8-4.6c0,0,0.1-0.1,0.1-0.1c0,0,0-0.1,0-0.1l-0.2-0.9l0,0
			c-0.1-0.3-0.1-0.7-0.2-1c-0.1-0.6-0.2-1.3-0.3-1.9c-0.1-0.6-0.1-1.3-0.2-1.9c0-0.7-0.1-1.3-0.1-1.9c0-0.6,0-1.3,0.1-1.9
			c0-0.7,0.1-1.3,0.2-1.9c0.1-0.6,0.2-1.2,0.3-1.9c0.1-0.6,0.3-1.3,0.4-1.9c0,0,0-0.1,0-0.1c0,0-0.1-0.1-0.1-0.1l-8-4.6
			c-0.3-0.2-0.6-0.4-0.8-0.7c-0.2-0.3-0.4-0.6-0.5-1c-0.1-0.4-0.1-0.7-0.1-1.1c0-0.4,0.2-0.7,0.3-1c1.9-3.5,4.1-7.1,6.1-10.6
			l0.1,0.1c0.1-0.1,0.1-0.1,0.2-0.2c0.3-0.2,0.6-0.4,1-0.5c0.4-0.1,0.7-0.1,1.1-0.1c0.4,0,0.7,0.2,1,0.3l0.6,0.3l0,0l7.5,4.3
			c0,0,0.1,0,0.1,0c0,0,0.1,0,0.1-0.1l0,0c0.9-0.9,1.9-1.7,2.9-2.5c1-0.8,2.1-1.5,3.2-2.1c1.1-0.6,2.2-1.2,3.4-1.7
			c1.2-0.5,2.4-0.9,3.6-1.3c0,0,0.1,0,0.1-0.1c0,0,0-0.1,0-0.1v-9.3c0-0.4,0.1-0.7,0.2-1.1c0.1-0.3,0.4-0.7,0.6-0.9
			c0.3-0.3,0.6-0.5,0.9-0.6c0.3-0.1,0.7-0.2,1.1-0.2h11.4c0.4,0,0.7,0.1,1.1,0.2c0.3,0.1,0.7,0.4,0.9,0.6c0.5,0.5,0.8,1.2,0.8,2v9.3
			c0,0.1,0,0.1,0,0.1c0,0,0.1,0.1,0.1,0.1l0,0C83.1,134.4,84.3,134.8,85.5,135.3z"/>
		<path class="st34" d="M63.8,457.3c0-0.4-0.3-0.7-0.7-0.7c-0.4,0-0.7,0.3-0.7,0.7v3.2c0,0.4,0.3,0.7,0.7,0.7c0.4,0,0.7-0.3,0.7-0.7
			V457.3L63.8,457.3z M68.7,459.9c0.3-0.3,0.3-0.7,0-1c-0.3-0.3-0.7-0.3-1,0l-2.3,2.3c-0.3,0.3-0.3,0.7,0,1c0.3,0.3,0.7,0.3,1,0
			L68.7,459.9L68.7,459.9z M70.3,465.3c0.4,0,0.7-0.3,0.7-0.7c0-0.4-0.3-0.7-0.7-0.7H67c-0.4,0-0.7,0.3-0.7,0.7
			c0,0.4,0.3,0.7,0.7,0.7H70.3L70.3,465.3z M67.6,470.2c0.3,0.3,0.7,0.3,1,0c0.3-0.3,0.3-0.7,0-1l-2.3-2.3c-0.3-0.3-0.7-0.3-1,0
			c-0.3,0.3-0.3,0.7,0,1L67.6,470.2L67.6,470.2z M62.3,471.8c0,0.4,0.3,0.7,0.7,0.7c0.4,0,0.7-0.3,0.7-0.7v-3.2
			c0-0.4-0.3-0.7-0.7-0.7c-0.4,0-0.7,0.3-0.7,0.7V471.8L62.3,471.8z M57.4,469.1c-0.3,0.3-0.3,0.7,0,1c0.3,0.3,0.7,0.3,1,0l2.3-2.3
			c0.3-0.3,0.3-0.7,0-1c-0.3-0.3-0.7-0.3-1,0L57.4,469.1L57.4,469.1z M55.8,463.8c-0.4,0-0.7,0.3-0.7,0.7c0,0.4,0.3,0.7,0.7,0.7H59
			c0.4,0,0.7-0.3,0.7-0.7c0-0.4-0.3-0.7-0.7-0.7H55.8L55.8,463.8z M58.4,458.9c-0.3-0.3-0.7-0.3-1,0c-0.3,0.3-0.3,0.7,0,1l2.3,2.3
			c0.3,0.3,0.7,0.3,1,0c0.3-0.3,0.3-0.7,0-1L58.4,458.9z"/>
		<path class="st3" d="M223.1,369.5c0-0.4-0.3-0.7-0.7-0.7c-0.4,0-0.7,0.3-0.7,0.7v3.2c0,0.4,0.3,0.7,0.7,0.7c0.4,0,0.7-0.3,0.7-0.7
			V369.5L223.1,369.5z M228,372.2c0.3-0.3,0.3-0.7,0-1c-0.3-0.3-0.7-0.3-1,0l-2.3,2.3c-0.3,0.3-0.3,0.7,0,1c0.3,0.3,0.7,0.3,1,0
			L228,372.2L228,372.2z M229.7,377.5c0.4,0,0.7-0.3,0.7-0.7s-0.3-0.7-0.7-0.7h-3.2c-0.4,0-0.7,0.3-0.7,0.7s0.3,0.7,0.7,0.7H229.7
			L229.7,377.5z M227,382.4c0.3,0.3,0.7,0.3,1,0c0.3-0.3,0.3-0.7,0-1l-2.3-2.3c-0.3-0.3-0.7-0.3-1,0c-0.3,0.3-0.3,0.7,0,1L227,382.4
			L227,382.4z M221.7,384c0,0.4,0.3,0.7,0.7,0.7c0.4,0,0.7-0.3,0.7-0.7v-3.2c0-0.4-0.3-0.7-0.7-0.7c-0.4,0-0.7,0.3-0.7,0.7V384
			L221.7,384z M216.8,381.4c-0.3,0.3-0.3,0.7,0,1c0.3,0.3,0.7,0.3,1,0l2.3-2.3c0.3-0.3,0.3-0.7,0-1c-0.3-0.3-0.7-0.3-1,0
			L216.8,381.4L216.8,381.4z M215.2,376c-0.4,0-0.7,0.3-0.7,0.7s0.3,0.7,0.7,0.7h3.2c0.4,0,0.7-0.3,0.7-0.7s-0.3-0.7-0.7-0.7H215.2
			L215.2,376z M217.8,371.1c-0.3-0.3-0.7-0.3-1,0c-0.3,0.3-0.3,0.7,0,1l2.3,2.3c0.3,0.3,0.7,0.3,1,0c0.3-0.3,0.3-0.7,0-1
			L217.8,371.1z"/>
		<path class="st3" d="M638.4,258.2c0-0.4-0.3-0.7-0.7-0.7c-0.4,0-0.7,0.3-0.7,0.7v3.2c0,0.4,0.3,0.7,0.7,0.7c0.4,0,0.7-0.3,0.7-0.7
			V258.2L638.4,258.2z M643.4,260.8c0.3-0.3,0.3-0.7,0-1c-0.3-0.3-0.7-0.3-1,0l-2.3,2.3c-0.3,0.3-0.3,0.7,0,1c0.3,0.3,0.7,0.3,1,0
			L643.4,260.8L643.4,260.8z M645,266.1c0.4,0,0.7-0.3,0.7-0.7c0-0.4-0.3-0.7-0.7-0.7h-3.2c-0.4,0-0.7,0.3-0.7,0.7
			c0,0.4,0.3,0.7,0.7,0.7H645L645,266.1z M642.3,271c0.3,0.3,0.7,0.3,1,0c0.3-0.3,0.3-0.7,0-1l-2.3-2.3c-0.3-0.3-0.7-0.3-1,0
			c-0.3,0.3-0.3,0.7,0,1L642.3,271L642.3,271z M637,272.6c0,0.4,0.3,0.7,0.7,0.7c0.4,0,0.7-0.3,0.7-0.7v-3.2c0-0.4-0.3-0.7-0.7-0.7
			c-0.4,0-0.7,0.3-0.7,0.7V272.6L637,272.6z M632.1,270c-0.3,0.3-0.3,0.7,0,1c0.3,0.3,0.7,0.3,1,0l2.3-2.3c0.3-0.3,0.3-0.7,0-1
			c-0.3-0.3-0.7-0.3-1,0L632.1,270L632.1,270z M630.5,264.7c-0.4,0-0.7,0.3-0.7,0.7c0,0.4,0.3,0.7,0.7,0.7h3.2
			c0.4,0,0.7-0.3,0.7-0.7c0-0.4-0.3-0.7-0.7-0.7H630.5L630.5,264.7z M633.1,259.8c-0.3-0.3-0.7-0.3-1,0c-0.3,0.3-0.3,0.7,0,1
			l2.3,2.3c0.3,0.3,0.7,0.3,1,0c0.3-0.3,0.3-0.7,0-1L633.1,259.8z"/>
		<path class="st3" d="M469.9,147.7c0-0.4-0.3-0.7-0.7-0.7c-0.4,0-0.7,0.3-0.7,0.7v3.2c0,0.4,0.3,0.7,0.7,0.7c0.4,0,0.7-0.3,0.7-0.7
			V147.7L469.9,147.7z M474.8,150.3c0.3-0.3,0.3-0.7,0-1c-0.3-0.3-0.7-0.3-1,0l-2.3,2.3c-0.3,0.3-0.3,0.7,0,1c0.3,0.3,0.7,0.3,1,0
			L474.8,150.3L474.8,150.3z M476.4,155.6c0.4,0,0.7-0.3,0.7-0.7s-0.3-0.7-0.7-0.7h-3.2c-0.4,0-0.7,0.3-0.7,0.7s0.3,0.7,0.7,0.7
			H476.4L476.4,155.6z M473.8,160.5c0.3,0.3,0.7,0.3,1,0c0.3-0.3,0.3-0.7,0-1l-2.3-2.3c-0.3-0.3-0.7-0.3-1,0c-0.3,0.3-0.3,0.7,0,1
			L473.8,160.5L473.8,160.5z M468.5,162.2c0,0.4,0.3,0.7,0.7,0.7c0.4,0,0.7-0.3,0.7-0.7v-3.2c0-0.4-0.3-0.7-0.7-0.7
			c-0.4,0-0.7,0.3-0.7,0.7V162.2L468.5,162.2z M463.6,159.5c-0.3,0.3-0.3,0.7,0,1c0.3,0.3,0.7,0.3,1,0l2.3-2.3c0.3-0.3,0.3-0.7,0-1
			c-0.3-0.3-0.7-0.3-1,0L463.6,159.5L463.6,159.5z M462,154.2c-0.4,0-0.7,0.3-0.7,0.7s0.3,0.7,0.7,0.7h3.2c0.4,0,0.7-0.3,0.7-0.7
			s-0.3-0.7-0.7-0.7H462L462,154.2z M464.6,149.3c-0.3-0.3-0.7-0.3-1,0c-0.3,0.3-0.3,0.7,0,1l2.3,2.3c0.3,0.3,0.7,0.3,1,0
			c0.3-0.3,0.3-0.7,0-1L464.6,149.3z"/>
		<path class="st1" d="M664.3,129.1c0-0.4-0.3-0.7-0.7-0.7c-0.4,0-0.7,0.3-0.7,0.7v3.2c0,0.4,0.3,0.7,0.7,0.7c0.4,0,0.7-0.3,0.7-0.7
			V129.1L664.3,129.1z M669.2,131.8c0.3-0.3,0.3-0.7,0-1c-0.3-0.3-0.7-0.3-1,0l-2.3,2.3c-0.3,0.3-0.3,0.7,0,1c0.3,0.3,0.7,0.3,1,0
			L669.2,131.8L669.2,131.8z M670.8,137.1c0.4,0,0.7-0.3,0.7-0.7c0-0.4-0.3-0.7-0.7-0.7h-3.2c-0.4,0-0.7,0.3-0.7,0.7
			c0,0.4,0.3,0.7,0.7,0.7H670.8L670.8,137.1z M668.1,142c0.3,0.3,0.7,0.3,1,0c0.3-0.3,0.3-0.7,0-1l-2.3-2.3c-0.3-0.3-0.7-0.3-1,0
			c-0.3,0.3-0.3,0.7,0,1L668.1,142L668.1,142z M662.8,143.6c0,0.4,0.3,0.7,0.7,0.7c0.4,0,0.7-0.3,0.7-0.7v-3.2
			c0-0.4-0.3-0.7-0.7-0.7c-0.4,0-0.7,0.3-0.7,0.7V143.6L662.8,143.6z M657.9,141c-0.3,0.3-0.3,0.7,0,1c0.3,0.3,0.7,0.3,1,0l2.3-2.3
			c0.3-0.3,0.3-0.7,0-1c-0.3-0.3-0.7-0.3-1,0L657.9,141L657.9,141z M656.3,135.7c-0.4,0-0.7,0.3-0.7,0.7c0,0.4,0.3,0.7,0.7,0.7h3.2
			c0.4,0,0.7-0.3,0.7-0.7c0-0.4-0.3-0.7-0.7-0.7H656.3L656.3,135.7z M658.9,130.7c-0.3-0.3-0.7-0.3-1,0c-0.3,0.3-0.3,0.7,0,1
			l2.3,2.3c0.3,0.3,0.7,0.3,1,0c0.3-0.3,0.3-0.7,0-1L658.9,130.7z"/>
		<path class="st1" d="M627,497.8c0-0.4-0.3-0.7-0.7-0.7c-0.4,0-0.7,0.3-0.7,0.7v3.2c0,0.4,0.3,0.7,0.7,0.7c0.4,0,0.7-0.3,0.7-0.7
			V497.8L627,497.8z M631.9,500.4c0.3-0.3,0.3-0.7,0-1c-0.3-0.3-0.7-0.3-1,0l-2.3,2.3c-0.3,0.3-0.3,0.7,0,1c0.3,0.3,0.7,0.3,1,0
			L631.9,500.4L631.9,500.4z M633.5,505.7c0.4,0,0.7-0.3,0.7-0.7c0-0.4-0.3-0.7-0.7-0.7h-3.2c-0.4,0-0.7,0.3-0.7,0.7
			c0,0.4,0.3,0.7,0.7,0.7H633.5L633.5,505.7z M630.9,510.6c0.3,0.3,0.7,0.3,1,0c0.3-0.3,0.3-0.7,0-1l-2.3-2.3c-0.3-0.3-0.7-0.3-1,0
			c-0.3,0.3-0.3,0.7,0,1L630.9,510.6L630.9,510.6z M625.6,512.2c0,0.4,0.3,0.7,0.7,0.7c0.4,0,0.7-0.3,0.7-0.7V509
			c0-0.4-0.3-0.7-0.7-0.7c-0.4,0-0.7,0.3-0.7,0.7V512.2L625.6,512.2z M620.7,509.6c-0.3,0.3-0.3,0.7,0,1c0.3,0.3,0.7,0.3,1,0
			l2.3-2.3c0.3-0.3,0.3-0.7,0-1c-0.3-0.3-0.7-0.3-1,0L620.7,509.6L620.7,509.6z M619,504.3c-0.4,0-0.7,0.3-0.7,0.7
			c0,0.4,0.3,0.7,0.7,0.7h3.2c0.4,0,0.7-0.3,0.7-0.7c0-0.4-0.3-0.7-0.7-0.7H619L619,504.3z M621.7,499.4c-0.3-0.3-0.7-0.3-1,0
			c-0.3,0.3-0.3,0.7,0,1l2.3,2.3c0.3,0.3,0.7,0.3,1,0c0.3-0.3,0.3-0.7,0-1L621.7,499.4z"/>
		<path class="st34" d="M544.1,340c0-0.4-0.3-0.7-0.7-0.7c-0.4,0-0.7,0.3-0.7,0.7v3.2c0,0.4,0.3,0.7,0.7,0.7c0.4,0,0.7-0.3,0.7-0.7
			V340L544.1,340z M549,342.6c0.3-0.3,0.3-0.7,0-1c-0.3-0.3-0.7-0.3-1,0l-2.3,2.3c-0.3,0.3-0.3,0.7,0,1c0.3,0.3,0.7,0.3,1,0
			L549,342.6L549,342.6z M550.6,348c0.4,0,0.7-0.3,0.7-0.7c0-0.4-0.3-0.7-0.7-0.7h-3.2c-0.4,0-0.7,0.3-0.7,0.7
			c0,0.4,0.3,0.7,0.7,0.7H550.6L550.6,348z M548,352.9c0.3,0.3,0.7,0.3,1,0c0.3-0.3,0.3-0.7,0-1l-2.3-2.3c-0.3-0.3-0.7-0.3-1,0
			c-0.3,0.3-0.3,0.7,0,1L548,352.9L548,352.9z M542.7,354.5c0,0.4,0.3,0.7,0.7,0.7c0.4,0,0.7-0.3,0.7-0.7v-3.2
			c0-0.4-0.3-0.7-0.7-0.7c-0.4,0-0.7,0.3-0.7,0.7V354.5L542.7,354.5z M537.8,351.9c-0.3,0.3-0.3,0.7,0,1c0.3,0.3,0.7,0.3,1,0
			l2.3-2.3c0.3-0.3,0.3-0.7,0-1c-0.3-0.3-0.7-0.3-1,0L537.8,351.9L537.8,351.9z M536.1,346.5c-0.4,0-0.7,0.3-0.7,0.7
			c0,0.4,0.3,0.7,0.7,0.7h3.2c0.4,0,0.7-0.3,0.7-0.7c0-0.4-0.3-0.7-0.7-0.7H536.1L536.1,346.5z M538.8,341.6c-0.3-0.3-0.7-0.3-1,0
			c-0.3,0.3-0.3,0.7,0,1l2.3,2.3c0.3,0.3,0.7,0.3,1,0s0.3-0.7,0-1L538.8,341.6z"/>
		<g>
			<path class="st0" d="M66,329.3c24.1,0,43.6-19.5,43.6-43.6c0-24.1-19.5-43.6-43.6-43.6c-24.1,0-43.6,19.5-43.6,43.6
				C22.3,309.7,41.9,329.3,66,329.3z"/>
			<g>
				<path class="st35" d="M84.4,298.8c0-6.6,0-12.7,0-12.7h3.2h1.1l-11.5-13.8l-11.5,13.8h1.1H70c0,0,0,0.1,0,0.1
					c0,15,0.4,15.7-10.8,15.7H47.5c0,0,1.4,5,7.4,5c6,0,18.4,0,22,0c2.9,0,6.1-1,7.2-5C84.3,301,84.4,300,84.4,298.8z"/>
				<path class="st35" d="M43.8,269.3c0,6.6,0,12.7,0,12.7h-3.2h-1.1L51,295.7L62.5,282h-1.1h-3.2c0,0,0-0.1,0-0.1
					c0-15-0.4-15.7,10.8-15.7h11.7c0,0-1.4-5-7.4-5c-6,0-18.4,0-22,0c-2.9,0-6.1,1-7.2,5C43.9,267.1,43.8,268.1,43.8,269.3z"/>
			</g>
		</g>
	</g>
</g>
</svg>
