<?xml version="1.0" encoding="utf-8"?>
<!-- Generator: Adobe Illustrator 22.0.0, SVG Export Plug-In . SVG Version: 6.00 Build 0)  -->
<svg version="1.1" xmlns="http://www.w3.org/2000/svg" xmlns:xlink="http://www.w3.org/1999/xlink" x="0px" y="0px"
	 viewBox="0 0 700 700" style="enable-background:new 0 0 700 700;" xml:space="preserve">
<style type="text/css">
	.st0{fill-rule:evenodd;clip-rule:evenodd;fill:#EEECF4;}
	.st1{fill-rule:evenodd;clip-rule:evenodd;fill:#9C98C2;}
	.st2{fill-rule:evenodd;clip-rule:evenodd;fill:#CAC2DD;}
	.st3{fill-rule:evenodd;clip-rule:evenodd;fill:#5A5B81;}
	.st4{fill-rule:evenodd;clip-rule:evenodd;fill:#4B4B6F;}
	.st5{fill-rule:evenodd;clip-rule:evenodd;fill:#7F809E;}
	.st6{fill-rule:evenodd;clip-rule:evenodd;fill:#FFFFFF;}
	.st7{fill-rule:evenodd;clip-rule:evenodd;fill:#4D4D71;}
	.st8{fill-rule:evenodd;clip-rule:evenodd;fill:#D9D5E9;}
	.st9{fill-rule:evenodd;clip-rule:evenodd;fill:#46476A;}
	.st10{fill-rule:evenodd;clip-rule:evenodd;fill:#717290;}
	.st11{fill-rule:evenodd;clip-rule:evenodd;fill:#8183A0;}
	.st12{fill-rule:evenodd;clip-rule:evenodd;fill:#9598B1;}
	.st13{fill-rule:evenodd;clip-rule:evenodd;fill:#E5C2CE;}
	.st14{fill-rule:evenodd;clip-rule:evenodd;fill:#727594;}
	.st15{fill-rule:evenodd;clip-rule:evenodd;fill:#2D2E3C;}
	.st16{fill-rule:evenodd;clip-rule:evenodd;fill:#EAE7F2;}
	.st17{fill-rule:evenodd;clip-rule:evenodd;fill:#BF5E7F;}
	.st18{fill-rule:evenodd;clip-rule:evenodd;fill:#4D4D5B;}
	.st19{fill-rule:evenodd;clip-rule:evenodd;fill:#363646;}
	.st20{fill-rule:evenodd;clip-rule:evenodd;fill:#EDEAF3;}
	.st21{fill-rule:evenodd;clip-rule:evenodd;fill:#C5D5ED;}
	.st22{fill-rule:evenodd;clip-rule:evenodd;fill:#D9E2F2;}
	.st23{fill-rule:evenodd;clip-rule:evenodd;fill:#C3BDDB;}
	.st24{fill-rule:evenodd;clip-rule:evenodd;fill:#CA5D92;}
	.st25{fill-rule:evenodd;clip-rule:evenodd;fill:#BF4782;}
	.st26{fill-rule:evenodd;clip-rule:evenodd;fill:#D890A0;}
	.st27{fill-rule:evenodd;clip-rule:evenodd;fill:#E5C2CF;}
	.st28{fill-rule:evenodd;clip-rule:evenodd;fill:#34395B;}
	.st29{fill-rule:evenodd;clip-rule:evenodd;fill:#1C223B;}
	.st30{fill-rule:evenodd;clip-rule:evenodd;fill:#E1AA85;}
	.st31{fill-rule:evenodd;clip-rule:evenodd;fill:#D68671;}
	.st32{fill-rule:evenodd;clip-rule:evenodd;fill:#F3E3EC;}
	.st33{fill-rule:evenodd;clip-rule:evenodd;fill:#A34164;}
	.st34{fill-rule:evenodd;clip-rule:evenodd;fill:#B04F72;}
	.st35{fill-rule:evenodd;clip-rule:evenodd;fill:#CC685C;}
	.st36{fill-rule:evenodd;clip-rule:evenodd;fill:#EAC8AF;}
	.st37{fill-rule:evenodd;clip-rule:evenodd;fill:#943D5E;}
	.st38{fill-rule:evenodd;clip-rule:evenodd;fill:#B94543;}
	.st39{fill-rule:evenodd;clip-rule:evenodd;fill:#434452;}
	.st40{fill-rule:evenodd;clip-rule:evenodd;fill:#242441;}
</style>
<g id="BACKGROUND">
</g>
<g id="OBJECTS">
	<g>
		<path class="st0" d="M108.1,136.8c-48.6,0-88.4,39.8-88.4,88.4l0,0c0,48.6,39.8,88.4,88.4,88.4l0,0c9.8,0,17.7,8,17.7,17.7l0,0
			c0,9.8-8,17.7-17.7,17.7H61.8c-23.7,0-43.1,19.4-43.1,43.1l0,0c0,23.7,19.4,43.1,43.1,43.1c20.5,0,37.3,16.8,37.3,37.3l0,0v0
			c0,37.4,30.6,68.1,68.1,68.1h20.3l0,0h299.8h79.5c48.6,0,88.4-39.8,88.4-88.4l0,0c0-48.6-39.8-88.4-88.4-88.4h-62.4
			c-9.8,0-17.7-8-17.7-17.7l0,0c0-9.8,8-17.7,17.7-17.7h15.8c23.7,0,43.1-19.4,43.1-43.1l0,0c0-23.7-19.4-43.1-43.1-43.1
			c0,0-4.6,0-4.6,0c-20.5,0-37.3-16.8-37.3-37.3l0,0l0,0c0-37.4-30.6-68.1-68.1-68.1C344,136.8,174.5,136.8,108.1,136.8z"/>
		<g>
			<rect x="260.1" y="430.3" class="st1" width="84.1" height="29.7"/>
			<path class="st2" d="M157.3,254.1h274.5c4.2,0,7.7,3.5,7.7,7.7v164.1c0,4.2-3.5,7.7-7.7,7.7H157.3c-4.2,0-7.7-3.5-7.7-7.7V261.8
				C149.6,257.6,153,254.1,157.3,254.1z"/>
			<path class="st3" d="M157.3,261c-0.4,0-0.8,0.4-0.8,0.8v128.1c0,0.4,0.4,0.8,0.8,0.8h274.5c0.4,0,0.8-0.4,0.8-0.8V261.8
				c0-0.4-0.4-0.8-0.8-0.8H157.3z"/>
			<path class="st4" d="M269.7,359.4h97.4c3.9,0,7,3.2,7,7l0,0c0,3.9-3.2,7-7,7h-97.4c-3.9,0-7-3.2-7-7l0,0
				C262.7,362.6,265.8,359.4,269.7,359.4z"/>
			<g>
				<path class="st5" d="M168.5,267.7h182.8c1.4,0,2.5,0.9,2.5,2.1v1.1c0,1.1-1.1,2.1-2.5,2.1H168.5c-1.4,0-2.5-0.9-2.5-2.1v-1.1
					C166.1,268.6,167.2,267.7,168.5,267.7z"/>
				<path class="st5" d="M386.8,267.7H362c-1.4,0-2.5,0.9-2.5,2.1v1.1c0,1.1,1.1,2.1,2.5,2.1h24.8c1.4,0,2.5-0.9,2.5-2.1v-1.1
					C389.3,268.6,388.2,267.7,386.8,267.7z"/>
				<path class="st5" d="M386.8,277.1H204c-1.4,0-2.5,0.9-2.5,2.1v1.1c0,1.1,1.1,2.1,2.5,2.1h182.8c1.4,0,2.5-0.9,2.5-2.1v-1.1
					C389.3,278.1,388.2,277.1,386.8,277.1z"/>
				<path class="st5" d="M168.5,277.1h24.8c1.4,0,2.5,0.9,2.5,2.1v1.1c0,1.1-1.1,2.1-2.5,2.1h-24.8c-1.4,0-2.5-0.9-2.5-2.1v-1.1
					C166.1,278.1,167.2,277.1,168.5,277.1z"/>
			</g>
			<path class="st6" d="M302.2,400.6c5.6,0,10.2,4.6,10.2,10.2c0,5.6-4.6,10.2-10.2,10.2c-5.6,0-10.2-4.6-10.2-10.2
				C292,405.2,296.6,400.6,302.2,400.6z"/>
			<path class="st7" d="M180.2,296.1h69.2c2.8,0,5.1,2.3,5.1,5.1v69.2c0,2.8-2.3,5.1-5.1,5.1h-69.2c-2.8,0-5.1-2.3-5.1-5.1v-69.2
				C175.1,298.4,177.4,296.1,180.2,296.1z"/>
			<path class="st6" d="M175,291.8h69.2c2.8,0,5.1,2.3,5.1,5.1v69.2c0,2.8-2.3,5.1-5.1,5.1H175c-2.8,0-5.1-2.3-5.1-5.1v-69.2
				C169.9,294.1,172.2,291.8,175,291.8z"/>
			<path class="st2" d="M190.3,362.3l42.8-38l12.2,11.8v26.5c0,2.5-2.1,4.6-4.6,4.6h-51.9C189.6,364.4,190.3,362.3,190.3,362.3z"/>
			<path class="st8" d="M173.9,328.5l18-15.9l53.2,51.3c-0.5,1.9-2.3,3.3-4.4,3.3h-62.2c-2.5,0-4.6-2.1-4.6-4.6V328.5z"/>
			<path class="st8" d="M220.4,323.2c5.3,0,9.5-4.3,9.5-9.5c0-5.3-4.3-9.5-9.5-9.5c-5.3,0-9.5,4.3-9.5,9.5
				C210.8,318.9,215.1,323.2,220.4,323.2z"/>
			<g>
				<path class="st9" d="M318.7,293L318.7,293c1.1,0,2,0.9,2,2v15.9c0,1.1-0.9,2-2,2l0,0c-1.1,0-2-0.9-2-2V295
					C316.7,293.9,317.6,293,318.7,293z"/>
				<path class="st9" d="M338.4,301.2L338.4,301.2c0.8,0.8,0.8,2.1,0,2.9l-11.2,11.2c-0.8,0.8-2.1,0.8-2.9,0l0,0
					c-0.8-0.8-0.8-2.1,0-2.9l11.2-11.2C336.3,300.4,337.6,300.4,338.4,301.2z"/>
				<path class="st9" d="M346.6,320.9L346.6,320.9c0,1.1-0.9,2-2,2h-15.9c-1.1,0-2-0.9-2-2l0,0c0-1.1,0.9-2,2-2h15.9
					C345.7,318.9,346.6,319.8,346.6,320.9z"/>
				<path class="st9" d="M338.4,340.6L338.4,340.6c-0.8,0.8-2.1,0.8-2.9,0l-11.2-11.2c-0.8-0.8-0.8-2.1,0-2.9l0,0
					c0.8-0.8,2.1-0.8,2.9,0l11.2,11.2C339.2,338.6,339.2,339.9,338.4,340.6z"/>
				<path class="st9" d="M318.7,348.8L318.7,348.8c-1.1,0-2-0.9-2-2v-15.9c0-1.1,0.9-2,2-2h0c1.1,0,2,0.9,2,2v15.9
					C320.7,347.9,319.8,348.8,318.7,348.8z"/>
				<path class="st10" d="M298.9,340.6L298.9,340.6c-0.8-0.8-0.8-2.1,0-2.9l11.2-11.2c0.8-0.8,2.1-0.8,2.9,0l0,0
					c0.8,0.8,0.8,2.1,0,2.9l-11.2,11.2C301,341.4,299.7,341.4,298.9,340.6z"/>
				<path class="st11" d="M290.8,320.9L290.8,320.9c0-1.1,0.9-2,2-2h15.9c1.1,0,2,0.9,2,2l0,0c0,1.1-0.9,2-2,2h-15.9
					C291.7,322.9,290.8,322,290.8,320.9z"/>
				<path class="st12" d="M298.9,301.2L298.9,301.2c0.8-0.8,2.1-0.8,2.9,0l11.2,11.2c0.8,0.8,0.8,2.1,0,2.9h0
					c-0.8,0.8-2.1,0.8-2.9,0L298.9,304C298.1,303.2,298.1,301.9,298.9,301.2z"/>
			</g>
			<path class="st6" d="M267.8,357.2h97.4c3.9,0,7,3.2,7,7l0,0c0,3.9-3.2,7-7,7h-97.4c-3.9,0-7-3.2-7-7l0,0
				C260.7,360.4,263.9,357.2,267.8,357.2z"/>
			<path class="st13" d="M267.8,360.8H310c1.9,0,3.4,1.5,3.4,3.4l0,0c0,1.9-1.5,3.4-3.4,3.4h-42.2c-1.9,0-3.4-1.5-3.4-3.4l0,0
				C264.4,362.4,265.9,360.8,267.8,360.8z"/>
			<path class="st13" d="M320.9,360.8h6.6c1.9,0,3.4,1.5,3.4,3.4l0,0c0,1.9-1.5,3.4-3.4,3.4h-6.6c-1.9,0-3.4-1.5-3.4-3.4l0,0
				C317.5,362.4,319,360.8,320.9,360.8z"/>
			<path class="st13" d="M339.1,360.8L339.1,360.8c1.8,0,3.3,1.5,3.3,3.3v0.1c0,1.8-1.5,3.3-3.3,3.3h0c-1.8,0-3.3-1.5-3.3-3.3v-0.1
				C335.7,362.3,337.2,360.8,339.1,360.8z"/>
		</g>
		<g>
			<path class="st3" d="M69.2,458.3h115.9c5.8,0,10.5,4.7,10.5,10.5v71.5H58.7v-71.5C58.7,463,63.4,458.3,69.2,458.3z"/>
			<path class="st14" d="M50.1,459.6h97.1c4.8,0,8.8,4,8.8,8.8v71.9H41.4v-71.9C41.4,463.6,45.3,459.6,50.1,459.6z"/>
			<path class="st6" d="M50.1,468.5h97.1c1.1,0,1.9,0.9,1.9,1.9v69.8h-101v-69.8C48.2,469.4,49.1,468.5,50.1,468.5z"/>
			<path class="st15" d="M111.9,500.3H85.5c-1.2,0-2.2,1-2.2,2.2l0,0c0,1.2,1,2.2,2.2,2.2h26.5c1.2,0,2.2-1,2.2-2.2l0,0
				C114.2,501.3,113.2,500.3,111.9,500.3z"/>
			<rect x="48.2" y="500.3" class="st15" width="101" height="2.2"/>
			<path class="st15" d="M111.9,468.5H85.5c-1.2,0-2.2,1-2.2,2.2l0,0c0,1.2,1,2.2,2.2,2.2h26.5c1.2,0,2.2-1,2.2-2.2l0,0
				C114.2,469.5,113.2,468.5,111.9,468.5z"/>
			<path class="st15" d="M147.3,468.5H50.1c-1.1,0-1.9,0.9-1.9,1.9v0.3h101v-0.3C149.2,469.4,148.3,468.5,147.3,468.5z"/>
		</g>
		<g>
			<path class="st14" d="M296,456.7H43.6c-3.3,0-5.9,2.7-5.9,5.9l0,0c0,3.3,2.7,5.9,5.9,5.9H296c3.3,0,5.9-2.7,5.9-5.9l0,0
				C301.9,459.4,299.3,456.7,296,456.7z"/>
			<path class="st3" d="M441.6,456.7H274.7c-3.3,0-5.9,2.7-5.9,5.9l0,0c0,3.3,2.7,5.9,5.9,5.9h166.8c3.3,0,5.9-2.7,5.9-5.9l0,0
				C447.5,459.4,444.8,456.7,441.6,456.7z"/>
		</g>
		
			<ellipse transform="matrix(0.9975 -7.048804e-02 7.048804e-02 0.9975 -18.6739 44.4861)" class="st0" cx="621" cy="286.8" rx="42.7" ry="42.7"/>
		<path class="st16" d="M150.3,223.1c0-11.7,0-22.4,0-22.4h5.7h1.9l-17.4-24.3h-2.9l-20.3,24.3h1.9h5.7c0,0.1,0,0.1,0,0.2
			c0,26.5,0.8,27.8-19,27.8h27.9h15.9C150.1,227,150.3,225.2,150.3,223.1z"/>
		<g>
			<path class="st2" d="M178.3,176.7c15,0,27.2,12.2,27.2,27.2c0,15-12.2,27.2-27.2,27.2h-23.8c-1.9,7.1-7.4,8.9-12.6,8.9
				c-6.4,0-28.3,0-38.9,0c-10.6,0-13.1-8.9-13.1-8.9H66.6c-6.2,0-11.2-5-11.2-11.2c0-5.9,4.6-10.8,10.4-11.2c0-0.5-0.1-1.1-0.1-1.6
				c0-12.3,10-22.3,22.4-22.3c3.2,0,6.3,0.7,9.1,1.9c2.7-18.9,18.9-33.3,38.5-33.3c16.3,0,30.2,10,36,24.2
				C173.8,177,176,176.7,178.3,176.7z"/>
			<path class="st6" d="M176.4,174.2c15,0,27.2,12.2,27.2,27.2c0,15-12.2,27.2-27.2,27.2h-42.6H64.7c-6.2,0-11.2-5-11.2-11.2
				c0-5.9,4.6-10.8,10.4-11.2c0-0.5-0.1-1.1-0.1-1.6c0-12.3,10-22.4,22.4-22.4c3.2,0,6.3,0.7,9.1,1.9c2.7-18.9,18.9-33.3,38.5-33.3
				c16.3,0,30.2,10,36,24.2C171.9,174.4,174.1,174.2,176.4,174.2z"/>
			<path class="st17" d="M153.2,223.1c0-11.7,0-22.4,0-22.4h5.7h1.9l-20.3-24.3l-20.3,24.3h1.9h5.7c0,0.1,0,0.1,0,0.2
				c0,26.5,0.8,27.8-19,27.8H88c0,0,2.5,8.9,13.1,8.9c10.6,0,32.5,0,38.9,0c5.2,0,10.8-1.8,12.6-8.9
				C153,227,153.2,225.2,153.2,223.1z"/>
		</g>
		<g>
			<path class="st8" d="M610,434.5v38.2c0,2.9-2.4,5.3-5.3,5.3h-50c0.2,2.7,2.5,4.9,5.2,4.9h55.1c2.9,0,5.3-2.4,5.3-5.3v-38.2
				c0-2.9-2.4-5.3-5.3-5.3H610C610,434.2,610,434.3,610,434.5z"/>
			<path class="st15" d="M571.7,436.2h-12c-0.9,0-1.6-0.7-1.6-1.6v-6.3c0-0.9,0.7-1.6,1.6-1.6h12c0.9,0,1.6,0.7,1.6,1.6v6.3
				C573.2,435.5,572.5,436.2,571.7,436.2z"/>
			<path class="st18" d="M611.7,431.4h-55.1c-2.9,0-5.3,2.4-5.3,5.3v38.2c0,2.9,2.4,5.3,5.3,5.3h55.1c2.9,0,5.3-2.4,5.3-5.3v-38.2
				C617,433.8,614.6,431.4,611.7,431.4z"/>
			<path class="st19" d="M561.7,431.8V470c0,2.9,2.4,5.3,5.3,5.3h50c-0.2,2.7-2.5,4.9-5.2,4.9h-55.1c-2.9,0-5.3-2.4-5.3-5.3v-38.2
				c0-2.9,2.4-5.3,5.3-5.3h5.1C561.7,431.6,561.7,431.7,561.7,431.8z"/>
			<path class="st19" d="M574,440.9c-9.3,0-16.9,7.6-16.9,16.9c0,9.3,7.6,16.9,16.9,16.9c9.3,0,16.9-7.6,16.9-16.9
				C590.9,448.5,583.3,440.9,574,440.9z"/>
			<path class="st6" d="M551.4,460.3v14.6c0,2.9,2.4,5.3,5.3,5.3h55.1c2.9,0,5.3-2.4,5.3-5.3v-14.6H551.4z"/>
			<path class="st20" d="M561.7,469.5v0.6c0,2.9,2.4,5.3,5.3,5.3h50c-0.2,2.7-2.5,4.9-5.2,4.9h-55.1c-2.9,0-5.3-2.4-5.3-5.3v-14.6
				h5.9h4.4h29c-1.2,8.2-8.2,14.5-16.7,14.5C569.2,474.7,564.8,472.7,561.7,469.5z"/>
			<path class="st15" d="M575.7,473.3c9.7,0,17.5-7.9,17.5-17.5c0-9.7-7.9-17.5-17.5-17.5c-9.7,0-17.5,7.9-17.5,17.5
				C558.1,465.5,566,473.3,575.7,473.3z"/>
			<path class="st18" d="M575.7,440.4c-8.5,0-15.4,6.9-15.4,15.4c0,8.5,6.9,15.4,15.4,15.4c8.5,0,15.4-6.9,15.4-15.4
				C591.1,447.3,584.2,440.4,575.7,440.4z"/>
			<path class="st21" d="M575.7,467.7c6.6,0,11.9-5.4,11.9-11.9c0-6.6-5.4-11.9-11.9-11.9c-6.6,0-11.9,5.4-11.9,11.9
				C563.7,462.4,569.1,467.7,575.7,467.7z"/>
			<path class="st22" d="M575.7,446.3c-5.2,0-9.5,4.3-9.5,9.5c0,5.2,4.3,9.5,9.5,9.5c5.2,0,9.5-4.3,9.5-9.5
				C585.2,450.6,580.9,446.3,575.7,446.3z"/>
			<path class="st6" d="M577.3,458.5c2.9,0,5.2-2.3,5.2-5.2c0-2.9-2.4-5.2-5.2-5.2c-2.9,0-5.2,2.4-5.2,5.2
				C572.1,456.2,574.4,458.5,577.3,458.5z"/>
			<path class="st6" d="M571,461.9c1.1,0,2.1-0.9,2.1-2.1c0-1.1-0.9-2.1-2.1-2.1c-1.1,0-2.1,0.9-2.1,2.1
				C568.9,461,569.9,461.9,571,461.9z"/>
			<path class="st6" d="M608.8,436.7h-9.7c-0.7,0-1.3,0.6-1.3,1.3v5.1c0,0.7,0.6,1.3,1.3,1.3h9.7c0.7,0,1.3-0.6,1.3-1.3V438
				C610.1,437.3,609.6,436.7,608.8,436.7z"/>
		</g>
		<g>
			<path class="st2" d="M295.5,241h4.2c1,0,1.8-0.8,1.8-1.8V235c0-1-0.8-1.8-1.8-1.8h-4.2c-1,0-1.8,0.8-1.8,1.8v4.2
				C293.7,240.2,294.5,241,295.5,241z"/>
			<path class="st6" d="M310.1,241h4.2c1,0,1.8-0.8,1.8-1.8V235c0-1-0.8-1.8-1.8-1.8h-4.2c-1,0-1.8,0.8-1.8,1.8v4.2
				C308.2,240.2,309.1,241,310.1,241z"/>
			<path class="st2" d="M324.6,241h4.2c1,0,1.8-0.8,1.8-1.8V235c0-1-0.8-1.8-1.8-1.8h-4.2c-1,0-1.8,0.8-1.8,1.8v4.2
				C322.8,240.2,323.6,241,324.6,241z"/>
			<path class="st6" d="M339.1,241h4.2c1,0,1.8-0.8,1.8-1.8V235c0-1-0.8-1.8-1.8-1.8h-4.2c-1,0-1.8,0.8-1.8,1.8v4.2
				C337.3,240.2,338.1,241,339.1,241z"/>
			<path class="st2" d="M353.6,241h4.2c1,0,1.8-0.8,1.8-1.8V235c0-1-0.8-1.8-1.8-1.8h-4.2c-1,0-1.8,0.8-1.8,1.8v4.2
				C351.8,240.2,352.6,241,353.6,241z"/>
			<path class="st6" d="M325.1,225.2h4.2c1,0,1.8-0.8,1.8-1.8v-4.2c0-1-0.8-1.8-1.8-1.8h-4.2c-1,0-1.8,0.8-1.8,1.8v4.2
				C323.3,224.4,324.1,225.2,325.1,225.2z"/>
			<path class="st2" d="M339.6,225.2h4.2c1,0,1.8-0.8,1.8-1.8v-4.2c0-1-0.8-1.8-1.8-1.8h-4.2c-1,0-1.8,0.8-1.8,1.8v4.2
				C337.8,224.4,338.6,225.2,339.6,225.2z"/>
			<path class="st6" d="M354.2,225.2h4.2c1,0,1.8-0.8,1.8-1.8v-4.2c0-1-0.8-1.8-1.8-1.8h-4.2c-1,0-1.8,0.8-1.8,1.8v4.2
				C352.3,224.4,353.1,225.2,354.2,225.2z"/>
		</g>
		<g>
			<path class="st2" d="M269,528.5h-4.2c-1,0-1.8-0.8-1.8-1.8v-4.2c0-1,0.8-1.8,1.8-1.8h4.2c1,0,1.8,0.8,1.8,1.8v4.2
				C270.9,527.7,270,528.5,269,528.5z"/>
			<path class="st6" d="M254.5,528.5h-4.2c-1,0-1.8-0.8-1.8-1.8v-4.2c0-1,0.8-1.8,1.8-1.8h4.2c1,0,1.8,0.8,1.8,1.8v4.2
				C256.3,527.7,255.5,528.5,254.5,528.5z"/>
			<path class="st2" d="M240,528.5h-4.2c-1,0-1.8-0.8-1.8-1.8v-4.2c0-1,0.8-1.8,1.8-1.8h4.2c1,0,1.8,0.8,1.8,1.8v4.2
				C241.8,527.7,241,528.5,240,528.5z"/>
			<path class="st6" d="M225.5,528.5h-4.2c-1,0-1.8-0.8-1.8-1.8v-4.2c0-1,0.8-1.8,1.8-1.8h4.2c1,0,1.8,0.8,1.8,1.8v4.2
				C227.3,527.7,226.5,528.5,225.5,528.5z"/>
			<path class="st2" d="M211,528.5h-4.2c-1,0-1.8-0.8-1.8-1.8v-4.2c0-1,0.8-1.8,1.8-1.8h4.2c1,0,1.8,0.8,1.8,1.8v4.2
				C212.8,527.7,212,528.5,211,528.5z"/>
			<path class="st6" d="M239.5,512.7h-4.2c-1,0-1.8-0.8-1.8-1.8v-4.2c0-1,0.8-1.8,1.8-1.8h4.2c1,0,1.8,0.8,1.8,1.8v4.2
				C241.3,511.8,240.5,512.7,239.5,512.7z"/>
			<path class="st2" d="M224.9,512.7h-4.2c-1,0-1.8-0.8-1.8-1.8v-4.2c0-1,0.8-1.8,1.8-1.8h4.2c1,0,1.8,0.8,1.8,1.8v4.2
				C226.8,511.8,226,512.7,224.9,512.7z"/>
			<path class="st6" d="M210.4,512.7h-4.2c-1,0-1.8-0.8-1.8-1.8v-4.2c0-1,0.8-1.8,1.8-1.8h4.2c1,0,1.8,0.8,1.8,1.8v4.2
				C212.3,511.8,211.4,512.7,210.4,512.7z"/>
		</g>
		<path class="st2" d="M634.1,300.4L634.1,300.4L634.1,300.4z M628.6,279.3c-1.9-1.9-4.6-3.1-7.6-3.1c-3,0-5.6,1.2-7.6,3.1
			c-1.9,1.9-3.1,4.6-3.1,7.6c0,3,1.2,5.6,3.1,7.6c1.9,1.9,4.6,3.1,7.6,3.1c3,0,5.6-1.2,7.6-3.1c1.9-1.9,3.1-4.6,3.1-7.6
			C631.7,283.9,630.5,281.2,628.6,279.3L628.6,279.3z M626.2,268.7c1.5,0.4,2.9,1,4.2,1.8c1.3,0.8,2.6,1.7,3.7,2.8
			c0.2,0.2,0.5,0.2,0.8,0.1l5-2.9l0,0c0.3-0.2,0.6-0.2,0.9-0.1c0.3,0.1,0.6,0.3,0.7,0.6l0,0l3.5,6.1c0.2,0.3,0.2,0.6,0.1,0.9
			c-0.1,0.3-0.3,0.6-0.6,0.7l0,0l-4.9,2.8c-0.3,0.1-0.4,0.4-0.3,0.7l0,0c0.2,0.7,0.3,1.5,0.4,2.3c0.1,0.8,0.1,1.5,0.1,2.3
			c0,0.8,0,1.6-0.1,2.3c-0.1,0.8-0.2,1.5-0.4,2.3c-0.1,0.3,0.1,0.6,0.3,0.7l4.9,2.8v0c0.3,0.2,0.5,0.4,0.6,0.7
			c0.1,0.3,0.1,0.6-0.1,0.9l-3.5,6.1l0,0c-0.2,0.3-0.4,0.5-0.7,0.6c-0.3,0.1-0.6,0-0.9-0.1l0,0l-4.9-2.8c-0.3-0.1-0.6-0.1-0.8,0.1
			c-1.1,1.1-2.3,2-3.7,2.8c-1.3,0.8-2.7,1.4-4.2,1.8c-0.3,0.1-0.5,0.3-0.5,0.6v5.7c0,0.3-0.1,0.6-0.4,0.9c-0.2,0.2-0.5,0.4-0.9,0.4
			h-7c-0.3,0-0.6-0.1-0.9-0.4c-0.2-0.2-0.4-0.5-0.4-0.9v-5.7c0-0.3-0.2-0.6-0.5-0.6c-1.5-0.4-2.9-1-4.2-1.8
			c-1.3-0.8-2.6-1.7-3.7-2.8c-0.2-0.2-0.6-0.2-0.8-0.1l-4.9,2.8c-0.3,0.2-0.6,0.2-0.9,0.1c-0.3-0.1-0.6-0.3-0.7-0.6l0,0l-3.5-6.1
			l0,0c-0.2-0.3-0.2-0.6-0.1-0.9c0.1-0.3,0.3-0.6,0.6-0.7l5-2.9c0.3-0.1,0.4-0.4,0.3-0.7l0,0c-0.2-0.7-0.3-1.5-0.4-2.3
			c-0.1-0.8-0.1-1.5-0.1-2.3c0-0.8,0-1.6,0.1-2.3c0.1-0.8,0.2-1.5,0.4-2.3c0.1-0.3-0.1-0.6-0.3-0.7l-4.9-2.8
			c-0.3-0.2-0.5-0.4-0.6-0.7c-0.1-0.3,0-0.6,0.1-0.9l0,0l3.5-6.1l0,0c0.2-0.3,0.4-0.5,0.7-0.6c0.3-0.1,0.6,0,0.9,0.1v0l5,2.9
			c0.3,0.2,0.6,0.1,0.8-0.1c1.1-1.1,2.3-2,3.7-2.8c1.3-0.8,2.7-1.4,4.2-1.8c0.3-0.1,0.5-0.3,0.5-0.6v-5.7c0-0.3,0.1-0.6,0.4-0.9
			c0.2-0.2,0.5-0.4,0.9-0.4h7c0.3,0,0.6,0.1,0.9,0.4c0.2,0.2,0.4,0.5,0.4,0.9v5.7C625.7,268.4,626,268.6,626.2,268.7z"/>
		<path class="st2" d="M275.4,176.8c-1.7-1.7-3.7-3-5.9-4c-2.2-0.9-4.5-1.4-7-1.4c-2.5,0-4.8,0.5-7,1.4c-2.2,0.9-4.3,2.3-5.9,4
			c-1.7,1.7-3,3.7-4,5.9c-0.9,2.2-1.4,4.5-1.4,7c0,2.5,0.5,4.8,1.4,7c0.9,2.2,2.3,4.3,4,5.9c1.7,1.7,3.7,3,5.9,4
			c2.2,0.9,4.5,1.4,7,1.4c2.5,0,4.8-0.5,7-1.4c2.2-0.9,4.3-2.3,5.9-4c1.7-1.7,3-3.7,4-5.9c0.9-2.2,1.4-4.5,1.4-7
			c0-2.5-0.5-4.8-1.4-7C278.4,180.5,277.1,178.4,275.4,176.8L275.4,176.8z M268.8,174.3c2,0.8,3.9,2.1,5.4,3.6
			c1.5,1.5,2.8,3.4,3.6,5.4c0.8,2,1.3,4.1,1.3,6.4c0,2.3-0.4,4.4-1.3,6.4c-0.8,2-2.1,3.9-3.6,5.4c-1.5,1.5-3.4,2.8-5.4,3.6
			c-2,0.8-4.1,1.3-6.4,1.3c-2.3,0-4.4-0.4-6.4-1.3c-2-0.8-3.9-2.1-5.4-3.6c-1.5-1.5-2.8-3.4-3.6-5.4c-0.8-2-1.3-4.1-1.3-6.4
			c0-2.3,0.4-4.4,1.3-6.4c0.8-2,2.1-3.9,3.6-5.4c1.5-1.5,3.4-2.8,5.4-3.6c2-0.8,4.1-1.3,6.4-1.3
			C264.7,173.1,266.8,173.5,268.8,174.3L268.8,174.3z M270.8,160.9c1.1,0.3,2.3,0.7,3.4,1.2c1.1,0.5,2.2,1,3.2,1.6
			c1.1,0.6,2.1,1.3,3.1,2c1,0.7,1.9,1.5,2.8,2.4c0.3,0.3,0.7,0.5,1.1,0.5c0.4,0.1,0.8,0,1.2-0.2c2.7-1.6,5.5-3.1,8.1-4.7
			c0.1-0.1,0.3-0.1,0.4-0.1c0.2,0,0.3,0,0.4,0c0.1,0,0.3,0.1,0.4,0.2c0.1,0.1,0.2,0.2,0.3,0.3c2,3,3.9,6.8,5.7,9.9
			c0.1,0.1,0.1,0.3,0.1,0.4c0,0.2,0,0.3,0,0.5c0,0.1-0.1,0.3-0.2,0.4c-0.1,0.1-0.2,0.2-0.3,0.3c-2.4,1.6-5.5,3.2-8.1,4.7
			c-0.4,0.2-0.7,0.5-0.8,0.9c-0.1,0.1-0.1,0.3-0.1,0.4l-0.2,0.1l0.2,0.8c0.1,0.6,0.3,1.2,0.4,1.8c0.1,0.6,0.2,1.2,0.3,1.8
			c0.1,0.6,0.1,1.2,0.2,1.8c0,0.6,0.1,1.2,0.1,1.8c0,0.6,0,1.3-0.1,1.8c0,0.6-0.1,1.2-0.2,1.8c-0.1,0.6-0.2,1.2-0.3,1.8
			c-0.1,0.6-0.2,1.2-0.4,1.8c-0.1,0.4-0.1,0.9,0.1,1.3c0.2,0.4,0.5,0.7,0.9,0.9l7.2,4.1l0,0l0.8,0.5c0.1,0.1,0.2,0.2,0.3,0.3
			c0.1,0.1,0.2,0.3,0.2,0.4c0,0.2,0.1,0.3,0,0.5c0,0.1-0.1,0.3-0.1,0.4l-5.3,9.2l0,0l-0.4,0.7c-0.1,0.1-0.2,0.2-0.3,0.3
			c-0.1,0.1-0.3,0.2-0.4,0.2c-0.2,0-0.3,0.1-0.5,0c-0.1,0-0.3-0.1-0.4-0.1c-2.6-1.6-5.5-3.2-8.1-4.7c-0.4-0.2-0.8-0.3-1.2-0.2
			c-0.4,0-0.8,0.2-1.1,0.5l0,0c-0.9,0.8-1.8,1.6-2.8,2.4c-1,0.7-2,1.4-3.1,2c-1,0.6-2.1,1.2-3.3,1.6c-1.1,0.5-2.3,0.9-3.4,1.2
			c-0.4,0.1-0.8,0.4-1,0.7c-0.2,0.3-0.4,0.7-0.4,1.2l0,9.4c0,0.2,0,0.3-0.1,0.4c-0.1,0.1-0.1,0.3-0.3,0.4c-0.1,0.1-0.2,0.2-0.4,0.3
			c-0.1,0.1-0.3,0.1-0.4,0.1h-11.5c-0.2,0-0.3,0-0.4-0.1c-0.1-0.1-0.3-0.1-0.4-0.3c-0.1-0.1-0.2-0.2-0.3-0.4
			c-0.1-0.1-0.1-0.3-0.1-0.4v-9.4c0-0.4-0.2-0.9-0.4-1.2c-0.3-0.3-0.6-0.6-1.1-0.7c-1.1-0.3-2.3-0.7-3.4-1.2c-1.1-0.5-2.2-1-3.2-1.6
			c-1.1-0.6-2.1-1.3-3.1-2c-1-0.7-1.9-1.5-2.8-2.4c-0.3-0.3-0.7-0.5-1.2-0.5c-0.4,0-0.9,0.1-1.2,0.3l-8,4.6
			c-0.1,0.1-0.3,0.1-0.4,0.1c-0.2,0-0.3,0-0.5,0c-0.1,0-0.3-0.1-0.4-0.2c-0.1-0.1-0.2-0.2-0.3-0.3c-1.9-3.3-3.8-6.6-5.7-9.9
			c-0.1-0.1-0.1-0.3-0.1-0.4c0-0.2,0-0.3,0-0.5c0-0.1,0.1-0.3,0.2-0.4c0.1-0.1,0.2-0.2,0.3-0.3l8.1-4.7c0.4-0.2,0.6-0.5,0.8-0.9
			c0-0.1,0.1-0.2,0.1-0.3l0.2,0l-0.2-0.9c-0.1-0.6-0.3-1.2-0.4-1.8c-0.1-0.6-0.2-1.2-0.3-1.8c-0.1-0.6-0.1-1.2-0.2-1.8
			c0-0.6-0.1-1.2-0.1-1.8c0-0.6,0-1.3,0.1-1.8c0-0.6,0.1-1.2,0.2-1.8c0.1-0.6,0.2-1.2,0.3-1.8c0.1-0.6,0.2-1.2,0.4-1.8
			c0.1-0.4,0.1-0.9-0.1-1.3c-0.2-0.4-0.5-0.7-0.9-0.9l-8-4.6c-0.1-0.1-0.2-0.2-0.3-0.3c-0.1-0.1-0.2-0.3-0.2-0.4
			c0-0.2-0.1-0.3,0-0.5c0-0.1,0.1-0.3,0.1-0.4c2-2.9,3.9-6.8,5.7-9.9c0.1-0.1,0.2-0.2,0.3-0.3c0.1-0.1,0.3-0.2,0.4-0.2
			c0.2,0,0.3-0.1,0.5,0c0.1,0,0.3,0.1,0.4,0.1l8.1,4.7c0.4,0.2,0.8,0.3,1.2,0.2c0.4-0.1,0.8-0.2,1.1-0.5c0.9-0.8,1.8-1.6,2.8-2.4
			c1-0.7,2-1.4,3-2c1-0.6,2.1-1.1,3.3-1.6c1.1-0.5,2.3-0.9,3.4-1.2c0.4-0.1,0.8-0.4,1-0.7c0.2-0.3,0.4-0.7,0.4-1.2l0-9.4
			c0-0.2,0-0.3,0.1-0.4c0.1-0.1,0.1-0.3,0.3-0.4c0.1-0.1,0.2-0.2,0.4-0.3c0.1-0.1,0.3-0.1,0.4-0.1h11.5c0.2,0,0.3,0,0.4,0.1
			c0.1,0.1,0.3,0.1,0.4,0.3c0.2,0.2,0.3,0.5,0.3,0.8v9.4c0,0.4,0.2,0.9,0.4,1.2C270,160.5,270.4,160.8,270.8,160.9L270.8,160.9z
			 M274.8,160.5c1.2,0.5,2.3,1.1,3.4,1.7c1.1,0.6,2.2,1.4,3.2,2.1c1,0.8,2,1.6,2.9,2.5c0,0,0.1,0.1,0.1,0.1c0,0,0.1,0,0.1,0
			c2.7-1.6,5.5-3.1,8.2-4.7c0.3-0.2,0.7-0.3,1-0.3c0.4,0,0.7,0,1.1,0.1c0.4,0.1,0.7,0.3,1,0.5c0.3,0.2,0.5,0.5,0.7,0.8
			c2,3.2,3.9,6.7,5.7,9.9c0.2,0.3,0.3,0.7,0.4,1.1c0,0.4,0,0.8-0.1,1.1c-0.1,0.4-0.3,0.7-0.5,1c-0.2,0.3-0.5,0.5-0.8,0.7
			c-2.6,1.6-5.4,3.1-8.1,4.7c0,0-0.1,0.1-0.1,0.1c0,0,0,0.1,0,0.1l0.2,0.8l0,0c0.1,0.4,0.2,0.7,0.2,1.1c0.1,0.6,0.2,1.3,0.3,1.9
			c0.1,0.6,0.1,1.3,0.2,1.9c0,0.7,0.1,1.3,0.1,1.9c0,0.6,0,1.3-0.1,1.9c0,0.7-0.1,1.3-0.2,1.9c-0.1,0.6-0.2,1.3-0.3,1.9
			c-0.1,0.6-0.3,1.3-0.4,1.9c0,0.1,0,0.1,0,0.1c0,0,0.1,0.1,0.1,0.1c3,1.6,6,3.5,8.9,5.2l-0.1,0.1l0.1,0.1c0.2,0.3,0.4,0.6,0.5,1
			c0.1,0.4,0.1,0.7,0.1,1.1c0,0.4-0.2,0.7-0.4,1.1l-6.2,10.7l-0.1-0.1c-0.1,0.1-0.1,0.1-0.2,0.2c-0.3,0.2-0.6,0.4-1,0.5
			c-0.4,0.1-0.7,0.1-1.1,0.1c-0.4,0-0.7-0.2-1-0.3c-2.7-1.4-5.5-3.2-8.1-4.7c0,0-0.1,0-0.1,0c-0.1,0-0.1,0-0.1,0.1
			c-0.9,0.9-1.9,1.7-2.9,2.5c-1,0.8-2.1,1.5-3.2,2.1c-1.1,0.6-2.3,1.2-3.4,1.7c-1.2,0.5-2.4,0.9-3.6,1.3c0,0-0.1,0-0.1,0.1
			c0,0,0,0.1,0,0.1v9.4c0,0.4-0.1,0.8-0.2,1.1c-0.1,0.4-0.4,0.7-0.6,0.9c-0.3,0.3-0.6,0.5-0.9,0.6c-0.3,0.1-0.7,0.2-1.1,0.2h-11.5
			c-0.4,0-0.8-0.1-1.1-0.2c-0.3-0.1-0.7-0.4-0.9-0.6c-0.3-0.3-0.5-0.6-0.6-0.9c-0.1-0.3-0.2-0.7-0.2-1.1v-9.4c0-0.1,0-0.1,0-0.1
			c0,0-0.1-0.1-0.1-0.1l0,0c-1.2-0.4-2.5-0.8-3.6-1.3c-1.2-0.5-2.3-1.1-3.4-1.7c-1.1-0.6-2.2-1.4-3.2-2.1c-1-0.8-2-1.6-2.9-2.5
			c0,0-0.1-0.1-0.1-0.1c0,0-0.1,0-0.1,0l-8.1,4.7c-0.3,0.2-0.7,0.3-1.1,0.4c-0.4,0-0.8,0-1.1-0.1c-0.4-0.1-0.7-0.3-1-0.5
			c-0.3-0.2-0.5-0.5-0.7-0.8c-2.1-3.4-4.1-7.2-6.2-10.7l0.1-0.1c0-0.1,0-0.2,0-0.3c0-0.4,0-0.8,0.1-1.1c0.1-0.4,0.3-0.7,0.5-1
			c0.2-0.3,0.5-0.5,0.8-0.7l8.1-4.7c0,0,0.1-0.1,0.1-0.1c0,0,0-0.1,0-0.1l-0.2-0.9l0,0c-0.1-0.3-0.1-0.7-0.2-1
			c-0.1-0.6-0.2-1.3-0.3-1.9c-0.1-0.6-0.1-1.3-0.2-1.9c0-0.7-0.1-1.3-0.1-1.9c0-0.6,0-1.3,0.1-1.9c0-0.7,0.1-1.3,0.2-1.9
			c0.1-0.6,0.2-1.3,0.3-1.9c0.1-0.6,0.3-1.3,0.4-1.9c0,0,0-0.1,0-0.1c0,0-0.1-0.1-0.1-0.1l-8.1-4.7c-0.3-0.2-0.6-0.4-0.8-0.7
			c-0.2-0.3-0.4-0.6-0.5-1c-0.1-0.4-0.1-0.7-0.1-1.1c0-0.4,0.2-0.7,0.3-1c1.9-3.6,4.1-7.2,6.2-10.7l0.1,0.1c0.1-0.1,0.1-0.1,0.2-0.2
			c0.3-0.2,0.6-0.4,1-0.5c0.4-0.1,0.7-0.1,1.1-0.1c0.4,0,0.7,0.2,1.1,0.4l0.6,0.3l0,0l7.5,4.3c0,0,0.1,0,0.1,0c0,0,0.1,0,0.1-0.1
			l0,0c0.9-0.9,1.9-1.7,2.9-2.5c1-0.8,2.1-1.5,3.2-2.1c1.1-0.6,2.3-1.2,3.4-1.7c1.2-0.5,2.4-0.9,3.6-1.3c0,0,0.1,0,0.1-0.1
			c0,0,0-0.1,0-0.1v-9.4c0-0.4,0.1-0.8,0.2-1.1c0.1-0.4,0.4-0.7,0.6-0.9c0.3-0.3,0.6-0.5,0.9-0.6c0.3-0.1,0.7-0.2,1.1-0.2h11.5
			c0.4,0,0.8,0.1,1.1,0.2c0.3,0.1,0.7,0.4,0.9,0.6c0.5,0.5,0.8,1.2,0.8,2v9.4c0,0.1,0,0.1,0,0.1c0,0,0.1,0.1,0.1,0.1l0,0
			C272.5,159.6,273.7,160,274.8,160.5z"/>
		<path class="st23" d="M94.3,267.5c0-0.5,0.4-1,1-1c0.5,0,1,0.4,1,1v4.3c0,0.5-0.4,1-1,1c-0.5,0-1-0.4-1-1V267.5L94.3,267.5z
			 M87.7,271c-0.4-0.4-0.4-1,0-1.4c0.4-0.4,1-0.4,1.4,0l3.1,3.1c0.4,0.4,0.4,1,0,1.4c-0.4,0.4-1,0.4-1.4,0L87.7,271L87.7,271z
			 M85.5,278.2c-0.5,0-1-0.4-1-1c0-0.5,0.4-1,1-1h4.3c0.5,0,1,0.4,1,1c0,0.5-0.4,1-1,1H85.5L85.5,278.2z M89.1,284.8
			c-0.4,0.4-1,0.4-1.4,0c-0.4-0.4-0.4-1,0-1.4l3.1-3.1c0.4-0.4,1-0.4,1.4,0c0.4,0.4,0.4,1,0,1.4L89.1,284.8L89.1,284.8z M96.2,286.9
			c0,0.5-0.4,1-1,1c-0.5,0-1-0.4-1-1v-4.3c0-0.5,0.4-1,1-1c0.5,0,1,0.4,1,1V286.9L96.2,286.9z M102.8,283.4c0.4,0.4,0.4,1,0,1.4
			c-0.4,0.4-1,0.4-1.4,0l-3.1-3.1c-0.4-0.4-0.4-1,0-1.4c0.4-0.4,1-0.4,1.4,0L102.8,283.4L102.8,283.4z M105,276.2c0.5,0,1,0.4,1,1
			c0,0.5-0.4,1-1,1h-4.3c-0.5,0-1-0.4-1-1c0-0.5,0.4-1,1-1H105L105,276.2z M101.4,269.7c0.4-0.4,1-0.4,1.4,0s0.4,1,0,1.4l-3.1,3.1
			c-0.4,0.4-1,0.4-1.4,0c-0.4-0.4-0.4-1,0-1.4L101.4,269.7z"/>
		<path class="st23" d="M358.9,154.6c0-0.5,0.4-1,1-1c0.5,0,1,0.4,1,1v4.3c0,0.5-0.4,1-1,1c-0.5,0-1-0.4-1-1V154.6L358.9,154.6z
			 M352.4,158.1c-0.4-0.4-0.4-1,0-1.4c0.4-0.4,1-0.4,1.4,0l3.1,3.1c0.4,0.4,0.4,1,0,1.4c-0.4,0.4-1,0.4-1.4,0L352.4,158.1
			L352.4,158.1z M350.2,165.3c-0.5,0-1-0.4-1-1c0-0.5,0.4-1,1-1h4.3c0.5,0,1,0.4,1,1c0,0.5-0.4,1-1,1H350.2L350.2,165.3z
			 M353.7,171.9c-0.4,0.4-1,0.4-1.4,0c-0.4-0.4-0.4-1,0-1.4l3.1-3.1c0.4-0.4,1-0.4,1.4,0c0.4,0.4,0.4,1,0,1.4L353.7,171.9
			L353.7,171.9z M360.9,174c0,0.5-0.4,1-1,1c-0.5,0-1-0.4-1-1v-4.3c0-0.5,0.4-1,1-1c0.5,0,1,0.4,1,1V174L360.9,174z M367.5,170.5
			c0.4,0.4,0.4,1,0,1.4c-0.4,0.4-1,0.4-1.4,0l-3.1-3.1c-0.4-0.4-0.4-1,0-1.4c0.4-0.4,1-0.4,1.4,0L367.5,170.5L367.5,170.5z
			 M369.6,163.4c0.5,0,1,0.4,1,1c0,0.5-0.4,1-1,1h-4.3c-0.5,0-1-0.4-1-1c0-0.5,0.4-1,1-1H369.6L369.6,163.4z M366.1,156.8
			c0.4-0.4,1-0.4,1.4,0c0.4,0.4,0.4,1,0,1.4l-3.1,3.1c-0.4,0.4-1,0.4-1.4,0c-0.4-0.4-0.4-1,0-1.4L366.1,156.8z"/>
		<path class="st23" d="M551.2,495.7c0-0.5,0.4-1,1-1c0.5,0,1,0.4,1,1v4.3c0,0.5-0.4,1-1,1c-0.5,0-1-0.4-1-1V495.7L551.2,495.7z
			 M544.6,499.3c-0.4-0.4-0.4-1,0-1.4c0.4-0.4,1-0.4,1.4,0l3.1,3.1c0.4,0.4,0.4,1,0,1.4c-0.4,0.4-1,0.4-1.4,0L544.6,499.3
			L544.6,499.3z M542.4,506.4c-0.5,0-1-0.4-1-1c0-0.5,0.4-1,1-1h4.3c0.5,0,1,0.4,1,1c0,0.5-0.4,1-1,1H542.4L542.4,506.4z M546,513
			c-0.4,0.4-1,0.4-1.4,0c-0.4-0.4-0.4-1,0-1.4l3.1-3.1c0.4-0.4,1-0.4,1.4,0c0.4,0.4,0.4,1,0,1.4L546,513L546,513z M553.1,515.2
			c0,0.5-0.4,1-1,1c-0.5,0-1-0.4-1-1v-4.3c0-0.5,0.4-1,1-1c0.5,0,1,0.4,1,1V515.2L553.1,515.2z M559.7,511.6c0.4,0.4,0.4,1,0,1.4
			c-0.4,0.4-1,0.4-1.4,0l-3.1-3.1c-0.4-0.4-0.4-1,0-1.4c0.4-0.4,1-0.4,1.4,0L559.7,511.6L559.7,511.6z M561.9,504.5c0.5,0,1,0.4,1,1
			c0,0.5-0.4,1-1,1h-4.3c-0.5,0-1-0.4-1-1c0-0.5,0.4-1,1-1H561.9L561.9,504.5z M558.3,497.9c0.4-0.4,1-0.4,1.4,0
			c0.4,0.4,0.4,1,0,1.4l-3.1,3.1c-0.4,0.4-1,0.4-1.4,0c-0.4-0.4-0.4-1,0-1.4L558.3,497.9z"/>
		<path class="st23" d="M658.1,363.1c0-0.5,0.4-1,1-1c0.5,0,1,0.4,1,1v4.3c0,0.5-0.4,1-1,1c-0.5,0-1-0.4-1-1V363.1L658.1,363.1z
			 M651.5,366.6c-0.4-0.4-0.4-1,0-1.4c0.4-0.4,1-0.4,1.4,0l3.1,3.1c0.4,0.4,0.4,1,0,1.4c-0.4,0.4-1,0.4-1.4,0L651.5,366.6
			L651.5,366.6z M649.4,373.8c-0.5,0-1-0.4-1-1c0-0.5,0.4-1,1-1h4.3c0.5,0,1,0.4,1,1c0,0.5-0.4,1-1,1H649.4L649.4,373.8z
			 M652.9,380.3c-0.4,0.4-1,0.4-1.4,0c-0.4-0.4-0.4-1,0-1.4l3.1-3.1c0.4-0.4,1-0.4,1.4,0c0.4,0.4,0.4,1,0,1.4L652.9,380.3
			L652.9,380.3z M660,382.5c0,0.5-0.4,1-1,1c-0.5,0-1-0.4-1-1v-4.3c0-0.5,0.4-1,1-1c0.5,0,1,0.4,1,1V382.5L660,382.5z M666.6,379
			c0.4,0.4,0.4,1,0,1.4c-0.4,0.4-1,0.4-1.4,0l-3.1-3.1c-0.4-0.4-0.4-1,0-1.4c0.4-0.4,1-0.4,1.4,0L666.6,379L666.6,379z M668.8,371.8
			c0.5,0,1,0.4,1,1c0,0.5-0.4,1-1,1h-4.3c-0.5,0-1-0.4-1-1c0-0.5,0.4-1,1-1H668.8L668.8,371.8z M665.3,365.2c0.4-0.4,1-0.4,1.4,0
			c0.4,0.4,0.4,1,0,1.4l-3.1,3.1c-0.4,0.4-1,0.4-1.4,0c-0.4-0.4-0.4-1,0-1.4L665.3,365.2z"/>
		<path class="st23" d="M26.9,298.1c0-0.5,0.4-1,1-1c0.5,0,1,0.4,1,1v4.3c0,0.5-0.4,1-1,1c-0.5,0-1-0.4-1-1V298.1L26.9,298.1z
			 M20.3,301.7c-0.4-0.4-0.4-1,0-1.4c0.4-0.4,1-0.4,1.4,0l3.1,3.1c0.4,0.4,0.4,1,0,1.4c-0.4,0.4-1,0.4-1.4,0L20.3,301.7L20.3,301.7z
			 M18.1,308.8c-0.5,0-1-0.4-1-1c0-0.5,0.4-1,1-1h4.3c0.5,0,1,0.4,1,1c0,0.5-0.4,1-1,1H18.1L18.1,308.8z M21.7,315.4
			c-0.4,0.4-1,0.4-1.4,0c-0.4-0.4-0.4-1,0-1.4l3.1-3.1c0.4-0.4,1-0.4,1.4,0c0.4,0.4,0.4,1,0,1.4L21.7,315.4L21.7,315.4z M28.8,317.6
			c0,0.5-0.4,1-1,1c-0.5,0-1-0.4-1-1v-4.3c0-0.5,0.4-1,1-1c0.5,0,1,0.4,1,1V317.6L28.8,317.6z M35.4,314c0.4,0.4,0.4,1,0,1.4
			c-0.4,0.4-1,0.4-1.4,0l-3.1-3.1c-0.4-0.4-0.4-1,0-1.4c0.4-0.4,1-0.4,1.4,0L35.4,314L35.4,314z M37.6,306.9c0.5,0,1,0.4,1,1
			c0,0.5-0.4,1-1,1h-4.3c-0.5,0-1-0.4-1-1c0-0.5,0.4-1,1-1H37.6L37.6,306.9z M34,300.3c0.4-0.4,1-0.4,1.4,0c0.4,0.4,0.4,1,0,1.4
			l-3.1,3.1c-0.4,0.4-1,0.4-1.4,0c-0.4-0.4-0.4-1,0-1.4L34,300.3z"/>
		<path class="st23" d="M492.6,131.6c0-0.5,0.4-1,1-1c0.5,0,1,0.4,1,1v4.3c0,0.5-0.4,1-1,1c-0.5,0-1-0.4-1-1V131.6L492.6,131.6z
			 M486,135.2c-0.4-0.4-0.4-1,0-1.4c0.4-0.4,1-0.4,1.4,0l3.1,3.1c0.4,0.4,0.4,1,0,1.4c-0.4,0.4-1,0.4-1.4,0L486,135.2L486,135.2z
			 M483.8,142.3c-0.5,0-1-0.4-1-1c0-0.5,0.4-1,1-1h4.3c0.5,0,1,0.4,1,1c0,0.5-0.4,1-1,1H483.8L483.8,142.3z M487.4,148.9
			c-0.4,0.4-1,0.4-1.4,0c-0.4-0.4-0.4-1,0-1.4l3.1-3.1c0.4-0.4,1-0.4,1.4,0c0.4,0.4,0.4,1,0,1.4L487.4,148.9L487.4,148.9z
			 M494.5,151.1c0,0.5-0.4,1-1,1c-0.5,0-1-0.4-1-1v-4.3c0-0.5,0.4-1,1-1c0.5,0,1,0.4,1,1V151.1L494.5,151.1z M501.1,147.5
			c0.4,0.4,0.4,1,0,1.4c-0.4,0.4-1,0.4-1.4,0l-3.1-3.1c-0.4-0.4-0.4-1,0-1.4c0.4-0.4,1-0.4,1.4,0L501.1,147.5L501.1,147.5z
			 M503.3,140.4c0.5,0,1,0.4,1,1c0,0.5-0.4,1-1,1h-4.3c-0.5,0-1-0.4-1-1c0-0.5,0.4-1,1-1H503.3L503.3,140.4z M499.7,133.8
			c0.4-0.4,1-0.4,1.4,0c0.4,0.4,0.4,1,0,1.4l-3.1,3.1c-0.4,0.4-1,0.4-1.4,0c-0.4-0.4-0.4-1,0-1.4L499.7,133.8z"/>
		<g>
			<g>
				<g>
					<path class="st24" d="M96.1,337.8c13.1-10.3,21.9,3.5,20.1,17.1c-1.8,12.9-16.9,56.9-15.2,75.6l-5.1-0.1
						C84.2,406.1,79.3,351.1,96.1,337.8z"/>
					<path class="st25" d="M97.7,430.5c-10.7-38.1,6.8-89.8,6.9-90c0.1-0.3,0.5-0.5,0.9-0.4c0.4,0.1,0.6,0.4,0.5,0.7
						c-0.1,0.2-17.6,52-6.8,89.7L97.7,430.5z"/>
				</g>
				<g>
					<path class="st26" d="M126.3,362.3c13.5-5.5,16.4,7.4,10.8,17.8c-4.7,8.7-24.7,34.1-32.5,50.6l-6.8-0.2
						C98.1,407.4,110.3,368.7,126.3,362.3z"/>
					<path class="st27" d="M100.2,430.5c5.6-31,31.9-64.2,32-64.4c0.2-0.2,0.6-0.3,0.8-0.1c0.3,0.2,0.4,0.5,0.2,0.7
						c-0.1,0.1-26.2,33.1-31.8,63.8L100.2,430.5z"/>
				</g>
				<g>
					<path class="st27" d="M69.4,375.5c-12.7-5-15.2,7-9.9,16.7c3.6,6.6,16.9,23.5,25.8,37.9l10.7,0.3
						C93.2,409,82.6,380.7,69.4,375.5z"/>
					<path class="st26" d="M92.2,430.3c-8.1-26.1-28.3-51-28.3-51.1c-0.2-0.2-0.5-0.3-0.8-0.1c-0.3,0.1-0.3,0.4-0.2,0.7
						c0.1,0.1,20,24.8,28.1,50.6L92.2,430.3z"/>
				</g>
			</g>
			<g>
				<path class="st28" d="M110,429.4H79.5c-0.9,0-1.7,0.7-1.7,1.7v7.5c0,0.9,0.7,1.7,1.7,1.7H110c0.9,0,1.7-0.7,1.7-1.7v-7.5
					C111.7,430.1,110.9,429.4,110,429.4z"/>
				<polygon class="st28" points="104.8,435.5 84.8,435.5 79.5,440.2 83.8,456.7 94.8,456.7 105.8,456.7 110,440.2 				"/>
				<polygon class="st29" points="79.5,440.2 80.4,443.6 109.1,443.6 110,440.2 				"/>
			</g>
		</g>
		<g>
			<path class="st0" d="M633.8,148.4h-95.9c-7,0-12.7,5.7-12.7,12.7v52.2v3.9v33.2c0,0.6,0.3,1.1,0.9,1.3s1.1,0.1,1.5-0.3l21.6-21.6
				h84.5c7,0,12.7-5.7,12.7-12.7v-56.1C646.4,154.1,640.7,148.4,633.8,148.4z"/>
			<path class="st17" d="M629.7,143.3h-95.9c-7,0-12.7,5.7-12.7,12.7v52.2v3.9v33.2c0,0.6,0.3,1.1,0.9,1.3c0.5,0.2,1.1,0.1,1.5-0.3
				l21.6-21.6h84.5c7,0,12.7-5.7,12.7-12.7V156C642.4,149,636.7,143.3,629.7,143.3z"/>
			<g>
				<path class="st6" d="M606,200.7c0-7.9,0-15.1,0-15.1h3.8h1.3l-13.7-16.4l-13.7,16.4h1.3h3.8c0,0,0,0.1,0,0.1
					c0,17.9,0.5,18.7-12.8,18.7h-14c0,0,1.7,6,8.8,6c7.1,0,22,0,26.2,0c3.5,0,7.3-1.2,8.5-6C605.8,203.4,606,202.2,606,200.7z"/>
				<path class="st6" d="M557.6,165.6c0,7.9,0,15.1,0,15.1h-3.8h-1.3l13.7,16.4l13.7-16.4h-1.3h-3.8c0,0,0-0.1,0-0.1
					c0-17.9-0.5-18.7,12.8-18.7h14c0,0-1.7-6-8.8-6c-7.1,0-22,0-26.2,0c-3.5,0-7.3,1.2-8.5,6C557.8,162.9,557.6,164.2,557.6,165.6z"
					/>
			</g>
		</g>
		<path class="st23" d="M672.3,169.8c0-0.5,0.4-1,1-1s1,0.4,1,1v4.3c0,0.5-0.4,1-1,1s-1-0.4-1-1V169.8L672.3,169.8z M665.7,173.3
			c-0.4-0.4-0.4-1,0-1.4c0.4-0.4,1-0.4,1.4,0l3.1,3.1c0.4,0.4,0.4,1,0,1.4c-0.4,0.4-1,0.4-1.4,0L665.7,173.3L665.7,173.3z
			 M663.5,180.4c-0.5,0-1-0.4-1-1c0-0.5,0.4-1,1-1h4.3c0.5,0,1,0.4,1,1c0,0.5-0.4,1-1,1H663.5L663.5,180.4z M667,187
			c-0.4,0.4-1,0.4-1.4,0c-0.4-0.4-0.4-1,0-1.4l3.1-3.1c0.4-0.4,1-0.4,1.4,0c0.4,0.4,0.4,1,0,1.4L667,187L667,187z M674.2,189.2
			c0,0.5-0.4,1-1,1s-1-0.4-1-1v-4.3c0-0.5,0.4-1,1-1s1,0.4,1,1V189.2L674.2,189.2z M680.8,185.7c0.4,0.4,0.4,1,0,1.4
			c-0.4,0.4-1,0.4-1.4,0l-3.1-3.1c-0.4-0.4-0.4-1,0-1.4c0.4-0.4,1-0.4,1.4,0L680.8,185.7L680.8,185.7z M682.9,178.5c0.5,0,1,0.4,1,1
			c0,0.5-0.4,1-1,1h-4.3c-0.5,0-1-0.4-1-1c0-0.5,0.4-1,1-1H682.9L682.9,178.5z M679.4,171.9c0.4-0.4,1-0.4,1.4,0
			c0.4,0.4,0.4,1,0,1.4l-3.1,3.1c-0.4,0.4-1,0.4-1.4,0c-0.4-0.4-0.4-1,0-1.4L679.4,171.9z"/>
		<g>
			<path class="st19" d="M518.5,243.5c0,0-9.9,16.1-1,33.7c8.8,17.7,21.7,27.7,10,56.5c-11.7,28.8-18.8,35.3-5.9,65.5
				c13,30.2-113.4,14.1-113.4,14.1l-5.6-51.5c-41.7-30.9,5.7-64.2-13.6-106.7l54.9-43.9L518.5,243.5z"/>
			<path class="st15" d="M518.5,243.5c0,0-9.9,16.1-1,33.7c3.8,7.6,8.3,13.8,11.4,20.7c-6.1-2.5-14.7-3.4-22.9,5
				c-14.8,15.2-30,40,8.8,67.9l0,0c-0.2,4.5,0.4,9.3,2,15c-20.5,10.1-95.1,6.6-95.1,6.6l-18-20.9c0,0,21.8-66.1-13-71.7
				c3.4-13.8,5.7-28.6-1.6-44.7l12-9.6c14.9,2.7,36.9-0.4,63.1-25.5c0,0,22.3,35.9,43.8,18.9L518.5,243.5z"/>
			<path class="st30" d="M420,347c-28.3,11.2-41.9,46.1-59.7,74.5c-22.3,35.5,7.6,70.4,23.6,101.3c0,0,19.8-63.7,27.6-111.9
				C416,383.1,427.4,355.5,420,347z"/>
			<path class="st31" d="M376.1,394.4c-5.2,9.1-10.3,18.4-15.8,27.1c-1.2,1.8-2.2,3.7-3,5.5c10.6,6.5,26.1,79.7,20.4,84.6
				c2.8,4.8,3.8,6.6,6.2,11.2c0,0,5.5-7.4,9.3-20.7c6.3-22.4,12.9-59.2,18-89.2c-8.2-15.5-11.2-21.6-24-19.8
				C383.3,393.7,379.6,393.9,376.1,394.4z"/>
			<path class="st32" d="M420,347c-25.1,10-50.6,45.9-63.9,74c18.1,3.5,40.8,19.4,45.5,25.3c2.1-9.5,8.4-26.3,9.9-35.2
				C416,383.1,427.4,355.5,420,347z"/>
			<path class="st33" d="M420,347c-21.9,8.7-44.2,37.3-58.4,63.1c17.6,4.3,38.5,19,43.2,24.7c0.1-0.3,0.2-0.7,0.3-1
				c1.2-5.1,3.5-12,5.5-18.7c0.4-1.5,0.7-2.8,0.9-4.1C416,383.1,427.4,355.5,420,347z"/>
			<path class="st17" d="M515.6,352.6c-2.5-1.1-9.8-3.8-12.4-4.5c-17.8-1.7-71.8,37.3-85.3-0.8c-7.7,9-38.2,56.6-37.9,68.9
				c0.1,6.2,1.7,13,4.2,19.7l0,0c0,0,3.6,29.2,8.2,53c0.8,4.3-2.6,34.1-5.8,47.7h119.3c-2-9.8-11.4-28-10.5-39.9
				c2.2-28.8,9.9-55.3,17.2-80.8C520.3,355.8,517.1,353.3,515.6,352.6z"/>
			<path class="st34" d="M515.6,352.6c-2.5-1.1-9.8-3.8-12.4-4.5c-6.3-0.6-17,3.8-28.9,8.2l-1.3,2.8c0,0,15,22.2,15.5,27.4
				c0.5,5.2-5,22.7-12.1,36.5c-7.1,13.8-68,2.2-96.4-9.7c-3.9,8.4-2.6,20.7,1.9,32.4l0,0c0,0,0.8,1.9,2,5.1
				c5.2-4.3,17.1-7.7,54.9,3.9c37.8,11.6,36.1,51.9,29.3,81.8h37.6c-2-9.8-11.4-28-10.5-39.9c2.2-28.8,9.9-55.3,17.2-80.8
				C520.3,355.8,517.1,353.3,515.6,352.6z"/>
			<path class="st6" d="M409.1,536.4h43.1c-3-11.7-7.6-31.3-9.7-48.3c-2.4-20,0.2-25.1-4.1-43.8c-1.5-6.5-2.8-16.1-2.2-19.7
				c1.3-8.5,26.1-53.1,26.1-53.1l-29.3-4.7c0,0-23.4,43.2-26.2,49.8c-2.8,6.5-2.1,11.5-0.5,21.5c1.5,10,5.2,17.7,7.2,29.4
				C415.3,477.2,412.5,513.8,409.1,536.4z"/>
			<path class="st6" d="M509.4,350.2c-2.5-0.9-5-1.7-6.3-2.1c-17.8-1.7-71.8,37.3-85.3-0.8c-2.6,0.9-3.4,1.1-5.5,2.6
				c-6,31.3,28.9,38.9,53.1,31.9c11-3.2,22.8-9.5,30.2-18.3c2.1-2.5,4.2-5.1,6.3-7.6C502.5,355.2,507.3,349.9,509.4,350.2z"/>
			<path class="st31" d="M471.2,290.1l0.1,13.8c0,0,1.4,28.2,1.6,32.5c0,0.2,0,0.3,0.1,0.5c0.5,14.3,14.5,6.7,30.2,11.1
				c-6.7,0.7-22.9,33.9-58.6,30.5c-19-1.8-33-16-26.8-31.3c10.5-3.8,15.7-0.7,16.7-14.3c0.5-7.5,0-21.4-4.4-26.4
				C425.1,300.7,471.2,290.1,471.2,290.1z"/>
			<path class="st35" d="M471.3,300.4l0,3.5c0,0,1.4,28.2,1.6,32.5c0,0.2,0,0.3,0.1,0.5c0.5,14.3,14.5,6.7,30.2,11.1
				c-6,0.6-19.5,27-47.6,30.4c34-14,27.2-26.7,19.9-29.2c-5.1-1.8-28.2-10.7-41-15.6c0-0.2,0-0.4,0.1-0.7c0.2-3.3,0.3-7.9-0.2-12.4
				l12.2-13.7C446.5,306.9,457.6,303.2,471.3,300.4z"/>
			<g>
				<path class="st35" d="M496.7,263.6c0.3,0,0.7,0.1,1,0.1l0,0v0c6,1.1,10.7,6.3,11,12.7c0.3,7.4-5.5,13.7-13,14
					c-7.5,0.3-13.7-5.5-14-13c-0.2-4.3,1.7-8.3,4.8-10.9c-0.3,4,0.5,8.9,5.6,9.3l-0.3-7.8C491.6,265,494.5,263.5,496.7,263.6z"/>
				<path class="st35" d="M403.5,265.5c-0.3,0.1-0.7,0.1-1,0.2l0,0l0,0c-6,1.4-10.5,6.8-10.5,13.2c0,7.5,6.1,13.5,13.5,13.5
					c7.5,0,13.5-6.1,13.5-13.5c0-4.3-2.1-8.2-5.2-10.7c0.4,4-0.1,8.9-5.2,9.5l0-7.8C408.6,266.8,405.7,265.4,403.5,265.5z"/>
			</g>
			<path class="st30" d="M448.6,197.1L448.6,197.1c25.4-0.5,46.6,19.9,47.2,45.3l0.9,42c0.5,25.4-19.9,46.6-45.3,47.1l0,0
				c-25.4,0.5-46.6-19.9-47.1-45.3l-0.9-42C402.8,218.9,423.2,197.6,448.6,197.1z"/>
			<path class="st31" d="M485.4,214.3c6.3,7.7,10.1,17.5,10.3,28.1l0.8,42c0.5,25.4-19.9,46.6-45.3,47.1l0,0
				c-4.3,0.1-8.4-0.4-12.3-1.4c41.5-0.1,46.4-33.8,46.4-38.3c0-4.5-0.1-11.4-0.4-17.3c-0.3-5.9-2.5-9.2-2.5-9.2s-15.3-13-17.5-15
				c-2.2-2-4-3-5.6-2.9c-1.6,0.1-2.4,0.1-2.4,0.1c-6.2,7.7-22,10.8-26.6,11c-4.6,0.3-6,0.3-15,0.8c-9,0.5-11.7,5.1-11.7,5.1h0
				l-0.4-17.4c6.7-8.8,21.8-26.9,32.4-29.4C445,215.5,463.3,215,485.4,214.3z"/>
			<path class="st33" d="M504.4,452.8l-4.8,7.9c0,0,15.7,11.5,47.7,5.4c0,0-2.2-4.7-8-6.2C533.6,458.3,504.4,452.8,504.4,452.8z"/>
			<g>
				<path class="st35" d="M413.8,294.2c3.4-0.1,6.2,2.5,6.3,5.8c0.1,3.4-2.5,6.2-5.8,6.3c-3.4,0.1-6.2-2.5-6.3-5.8
					C407.8,297.2,410.4,294.4,413.8,294.2z"/>
				<path class="st35" d="M466,292.2c3.4-0.1,6.2,2.5,6.3,5.8c0.1,3.4-2.5,6.2-5.8,6.3c-3.4,0.1-6.2-2.5-6.3-5.8
					C460.1,295.1,462.7,292.3,466,292.2z"/>
			</g>
			<path class="st15" d="M468.1,270.7c0.9,0.4,1.9,0,2.4-0.8c0.4-0.9,0-1.9-0.8-2.4c-4.5-2.1-10.2-2.4-14.5,0.4
				c-0.8,0.5-1.1,1.6-0.6,2.4c0.5,0.8,1.6,1.1,2.4,0.6C460.1,268.9,464.8,269,468.1,270.7z"/>
			<path class="st15" d="M409.2,271.9c3.5-1.7,7.6-2.3,11.2-0.3c0.8,0.5,1.9,0.2,2.4-0.7c0.5-0.8,0.2-1.9-0.7-2.4
				c-4.4-2.5-10.2-2.1-14.5,0.2c-0.9,0.5-1.2,1.5-0.7,2.4C407.3,272,408.4,272.3,409.2,271.9z"/>
			<path class="st19" d="M403.9,271.7c0,0-1-4.8-7-4.7c-18.6-20.5-16.9-53.8,2.2-71.4c19.1-17.6,60.7-19.6,68.1-17.3
				c7.3,2.3,15.1,14.5,15.1,14.5s6.1-5.6,11.9-2.9c5.8,2.8,25.7,38.5,25.9,47.6c0.2,9-17,27.3-17,27.3c-5.9,0.1-6.8,4.9-6.8,4.9
				l0.1,6.5c-5.9,0.1-6.6-7.4-6.7-11.8c0,0-16.7-4.1-27.6-29c-1-2.1-1.5-3.6-1.5-3.6c-8.2,21.9-41.1,26.3-53.4,27.1
				C407,264,406,269.4,403.9,271.7z"/>
			<path class="st18" d="M383.9,231.4c0.1-7.5,1.8-15,5-21.7c47.1,26.2,70.3-16.3,76.9-31.7c0.6,0.1,1.1,0.2,1.5,0.3
				c1.3,0.4,2.6,1.1,3.9,2c-3.9,16.8-14.7,45.2-42.9,52.6C412.3,237.2,396.9,235.3,383.9,231.4z"/>
			<path class="st15" d="M403.9,271.7c0,0-1-4.8-7-4.7c-7.2-7.9-11.3-17.7-12.6-27.7c10.8,6.6,40.6,18.4,79.9-19.2
				c0,0,29.3,47.1,53.1,7.8c1.7,4.1,2.8,7.6,2.8,9.6c0.2,9-17,27.3-17,27.3c-5.9,0.1-6.8,4.9-6.8,4.9l0.1,6.5
				c-5.9,0.1-6.6-7.4-6.7-11.8c0,0-16.7-4.1-27.6-29c-1-2.1-1.5-3.6-1.5-3.6c-8.2,21.9-41.1,26.3-53.4,27.1
				C407,264,406,269.4,403.9,271.7z"/>
			<path class="st36" d="M433.8,290.7c0,0-1.9,2.1-2.1,3.9c-0.2,1.8,2,2.8,3.4,2.5c1.4-0.3,2-6.9,1.9-7.7
				C436.8,288.9,435.8,288.2,433.8,290.7z"/>
			<path class="st30" d="M503.8,487.7c-0.1,1.4-4.5,4.2-6,4.4c-1.5,0.2-98.5-23-99.3-23.4c-0.8-0.4-1.7,0.3-1.7,0.3
				s-2.2,11.9-8,16.1c0,0,0.1,2,0.7,2.2c37,16.5,126,57.1,141.8,29.1c24-42.7,10.5-141.2-5.6-156.3c-0.8-0.6-5.8-4.4-12.1-1.7
				c-6.9,3-16.7,22.5-14,57.9l0,0C502.3,450.6,503.8,487.7,503.8,487.7z"/>
			<path class="st31" d="M503.8,487.7c-0.1,1.4-4.5,4.2-6,4.4c14.7-2.7,6.2-10.4,15.6-26.5c2.8-4.6,29.9-1.5,29.9-1.5
				s-24.8-28.3-44.1-53.5c0.1,1.9,0.2,3.8,0.3,5.7l0,0C502.3,450.6,503.8,487.7,503.8,487.7L503.8,487.7z M395.2,490.1
				c2.9-0.6,5-1.6,6-2.2c2-1.3,0.7,1.1,5,4c4.3,2.8,71.5,24.2,93.2,27.2c21.7,3,34.9-6.7,36.2-11.7c-0.2,0.6-0.3,1.2-0.5,1.7
				c-2.6,9.6-9.6,15.1-18.1,16.4C482.6,530.9,420.9,501.7,395.2,490.1z"/>
			<path class="st33" d="M515.6,352.6c0,0,27.5,8.5,32.8,56.8c2.8,26,1.5,35.7-1,56.7c0,0-21.2-10.3-47.7-5.4c0,0-2.6-54.8-1.3-70.3
				C500.5,366.2,510.6,355.2,515.6,352.6z"/>
			<path class="st37" d="M515.6,352.6c0,0,1.5,0.5,3.8,1.8c-5.3,5.9-10.3,17-8.9,37.9c2,29.4,12.8,53.8,24.5,69.6
				c-8.7-2.1-21.3-3.8-35.3-1.3c0,0-2.6-54.8-1.3-70.3C500.5,366.2,510.6,355.2,515.6,352.6z"/>
			<path class="st6" d="M548.8,453.2c-0.4,3.9-0.9,8.1-1.5,12.9c0,0-21.2-10.3-47.7-5.4c0,0-0.2-4.6-0.5-11.6
				C509.4,446.7,529.3,444.1,548.8,453.2z"/>
			<path class="st32" d="M535,461.9c-8.7-2.1-21.3-3.8-35.3-1.3c0,0-0.2-4.6-0.5-11.6c6.2-1.4,15.7-2.9,26.6-2
				C528.6,452.6,531.8,457.6,535,461.9z"/>
			<path class="st15" d="M414.7,277.9L414.7,277.9c2-0.2,3.7,1.3,3.9,3.3l0.4,4.7c0.2,2-1.3,3.7-3.3,3.9l0,0c-2,0.2-3.7-1.3-3.9-3.3
				l-0.4-4.7C411.2,279.8,412.7,278,414.7,277.9z"/>
			<path class="st15" d="M462.3,276.9L462.3,276.9c2-0.2,3.7,1.3,3.9,3.3l0.4,4.7c0.2,2-1.3,3.7-3.3,3.9l0,0c-2,0.2-3.7-1.3-3.9-3.3
				l-0.4-4.7C458.8,278.8,460.3,277.1,462.3,276.9z"/>
			<path class="st15" d="M413,279.2c0.4-0.1,0.8,0,0.9,0.4c0.1,0.4,0,0.8-0.4,0.9c0,0-2.7,1-4-1.9c-0.2-0.3,0-0.8,0.3-0.9
				c0.3-0.2,0.8,0,0.9,0.3C411.6,279.7,413,279.2,413,279.2z"/>
			<path class="st15" d="M412.5,279.8c0.2-0.3,0.7-0.3,1-0.1c0.3,0.2,0.3,0.7,0.1,1c0,0-1.8,2.2-4.4,0.3c-0.3-0.2-0.4-0.7-0.2-1
				c0.2-0.3,0.7-0.4,1-0.2C411.5,281,412.5,279.8,412.5,279.8z"/>
			<path class="st15" d="M463.7,277.5c-0.4-0.1-0.7,0.1-0.8,0.5c-0.1,0.4,0.1,0.7,0.5,0.8c0,0,2.8,0.7,3.8-2.4
				c0.1-0.4-0.1-0.8-0.4-0.9c-0.4-0.1-0.8,0.1-0.9,0.4C465.2,277.9,463.7,277.5,463.7,277.5z"/>
			<path class="st15" d="M464.4,278.1c-0.3-0.3-0.7-0.2-1,0c-0.3,0.3-0.2,0.7,0,1c0,0,2.1,1.9,4.4-0.2c0.3-0.3,0.3-0.7,0-1
				c-0.3-0.3-0.7-0.3-1,0C465.5,279.1,464.4,278.1,464.4,278.1z"/>
			<g>
				<path class="st15" d="M451.9,304c0.5,6.5-4.5,12.2-11,12.7c-6.5,0.5-12.2-4.5-12.7-11l0,0c-0.1-1.1,0.8-2.1,1.9-2.2l19.6-1.4
					C450.8,302,451.8,302.9,451.9,304L451.9,304z"/>
				<path class="st38" d="M448.1,313.5c-1.9,1.8-4.4,3-7.2,3.2c-2.3,0.2-4.5-0.3-6.4-1.3c0.7-2.5,3.3-4.5,6.5-4.9
					C444,310.2,446.8,311.4,448.1,313.5z"/>
				<path class="st6" d="M429.8,303.5l18.4-1.3c0.4,2-0.4,4.1-1.7,4.7c-1.6,0.7-15,1.3-16,0.3C430.1,306.7,429.9,305.1,429.8,303.5z
					"/>
			</g>
			<g>
				<path class="st30" d="M385.8,496.3c-4,0-6.5,3.2-4.3,7.9c1.3,2.6,4,5.7,8.7,8.9c6.3,4.2,8,1.3,8.3-0.8
					C399.2,508.8,393.7,502.1,385.8,496.3z"/>
				<path class="st30" d="M381.9,505.3c-4,0-6.5,3.2-4.3,7.9c1.2,2.6,4,5.7,8.7,8.9c6.3,4.2,8,1.3,8.4-0.8
					C395.3,517.8,389.7,511,381.9,505.3z"/>
				<path class="st30" d="M379.1,517.1c-3.3,0.7-4.9,3.9-2.2,7.4c1.5,2,4.4,4,8.9,5.9c6,2.4,7-0.4,6.9-2.2
					C392.6,525.1,386.7,520.5,379.1,517.1z"/>
				<path class="st30" d="M379.7,526.8c-2.2,0.8-3,3.2-0.7,5.3c1.2,1.2,3.4,2.3,6.8,3.1c4.4,1,4.8-1,4.5-2.2
					C389.9,531,385.3,528.4,379.7,526.8z"/>
			</g>
			<path class="st32" d="M440.4,455.1c-0.4-3.2-1-6.7-2-10.9c-1.2-5.1-2.2-12.3-2.3-16.8c-10-1.2-20.8-3.2-30.8-5.6
				c-0.7,4.4,0,9,1.1,16.1c0.5,3.3,1.3,6.4,2.1,9.5c7.9,1.1,17.8,3.3,30.4,7.1C439.4,454.8,439.9,454.9,440.4,455.1z"/>
			<g>
				<path class="st15" d="M387.9,492.9c0.7,3,2.2,3.4,7.2,3.3c3.1,0,8.1-0.2,12.2-0.2l4.5,2.8c1.2-0.8,2.2-1.1,2.8-1.9l0,0l0,0
					c0.5-0.7,1-0.5,0.4-2.3c-0.6-1.9-14.1-52.7-14.6-53.7c-0.5-1-2-3.6-6.9-3.2c-4.7,0.4-7.3,0-20.3,0.1c-1,0-2.2,0.1-3,0.6v0
					l-1.8,1.1C379.1,458.7,382.4,471.1,387.9,492.9z"/>
				<path class="st39" d="M366.9,441.4c0,1.5,14.2,52.5,15,55.5c0.7,3,2.2,3.4,7.2,3.3c4.9-0.1,14.9-0.3,17.8-0.1
					c2.9,0.3,6.7-1.5,5.7-4.3c-0.9-2.8-14.1-52.7-14.6-53.7c-0.5-1-2-3.6-6.9-3.2c-4.7,0.4-7.3,0-20.3,0.1
					C369.3,439.1,366.9,439.2,366.9,441.4z"/>
				<path class="st18" d="M412.5,495.4c-1.8-6.1-14-52.2-14.4-53.2c-0.5-1-2-3.6-6.9-3.2c-4.7,0.4-7.3,0-20.3,0.1
					c-0.6,0-1.3,0-2,0.2c2.3,9.2,13.9,51.1,14.6,53.8c0.7,3,2.2,3.4,7.2,3.3c4.9-0.1,14.9-0.3,17.8-0.1
					C409.8,496.4,411.3,496.1,412.5,495.4z"/>
				<path class="st15" d="M382.8,449.8c-2,0-3.2,2.1-2.6,4.7c0.6,2.6,2.7,4.7,4.7,4.7c2,0,3.2-2.1,2.6-4.7
					C387,451.9,384.8,449.8,382.8,449.8z"/>
				<path class="st15" d="M394.8,446.1c-0.1,0-5.8,0-6.1,0c-0.2,0-0.3-0.1-0.4-0.5c-0.1-0.4-0.3-1.1-0.4-1.3c-0.1-0.2,0-0.5,0.2-0.5
					c0.2,0,5.9,0,5.9,0c0.1,0,0.3,0.1,0.4,0.5c0.1,0.4,0.1,0.5,0.4,1.5C394.9,445.9,395,446,394.8,446.1z"/>
				<path class="st15" d="M387.2,446.1c-0.1,0-1.4,0-1.7,0c-0.2,0-0.3-0.1-0.4-0.5c-0.1-0.4-0.3-1.1-0.4-1.3c-0.1-0.2,0-0.5,0.2-0.5
					c0.2,0,1.5,0,1.5,0c0.1,0,0.3,0.1,0.4,0.5c0.1,0.4,0.1,0.5,0.4,1.5C387.4,445.9,387.4,446.1,387.2,446.1z"/>
				<path class="st6" d="M382.2,451.8c-0.8,0-1.2,0.8-1,1.8c0.2,1,1,1.8,1.8,1.8c0.8,0,1.2-0.8,1-1.8
					C383.8,452.6,383,451.8,382.2,451.8z"/>
				<path class="st15" d="M400.6,494.5c-0.2,0-8.5,0-8.9,0c-0.3,0-0.4-0.1-0.6-0.7c-0.1-0.5-0.4-1.6-0.5-1.9c-0.1-0.3,0-0.8,0.3-0.7
					c0.3,0,8.5,0,8.7,0c0.1,0,0.5,0.1,0.6,0.7c0.1,0.5,0.2,0.8,0.6,2.2C400.8,494.2,400.8,494.5,400.6,494.5z"/>
				<path class="st15" d="M389.6,494.5c-0.2,0-2.1,0-2.5,0c-0.3,0-0.4-0.1-0.6-0.7c-0.1-0.5-0.4-1.6-0.5-1.9c-0.1-0.3,0-0.8,0.3-0.7
					c0.3,0,2.1,0,2.2,0c0.1,0,0.5,0.1,0.6,0.7c0.1,0.5,0.2,0.8,0.6,2.2C389.8,494.2,389.8,494.5,389.6,494.5z"/>
			</g>
			<path class="st30" d="M423,475.3c-3.5-10-6.3-9.1-10.1-11.8c-3.8-2.6-3-9.7-4.3-10.3c-2.1-0.8-5.7,0.8-4.9,6.9
				c0.8,6.1,1.4,8.3,1.4,8.3s-13.2,2.8-22.1-2.8c-8.9-5.7-10.8-1.6-9.1,1.8c1.6,3.5,3.7,4.7,3.7,4.7s3.9,11.8,8.7,19.1
				c7.9,11.9,30.5,8.4,42.5,8.6c9.9,0.2-2.5-18.2-3.1-19.4C425.2,479.2,423,475.3,423,475.3z"/>
		</g>
		<path class="st40" d="M23.6,535.6h628.6c4.1,0,7.5,3.4,7.5,7.5l0,0c0,4.1-3.4,7.5-7.5,7.5h-25.3c-2.3,0-4.2,1.9-4.2,4.2l0,0
			c0,2.3,1.9,4.2,4.2,4.2h9.3c2.9,0,5.2,2.3,5.2,5.2l0,0c0,2.9-2.3,5.2-5.2,5.2H40.5c-2.9,0-5.2-2.3-5.2-5.2l0,0
			c0-2.9,2.3-5.2,5.2-5.2h7.3c2.3,0,4.2-1.9,4.2-4.2l0,0c0-2.3-1.9-4.2-4.2-4.2H23.6c-4.1,0-7.5-3.4-7.5-7.5l0,0
			C16.1,539,19.5,535.6,23.6,535.6L23.6,535.6z M27.5,569.3c2.7,0,5-2.2,5-5v-0.4c0-2.7-2.2-5-5-5l0,0c-2.7,0-5,2.2-5,5v0.4
			C22.5,567.1,24.8,569.3,27.5,569.3L27.5,569.3z"/>
	</g>
</g>
</svg>
