<?xml version="1.0" encoding="utf-8"?>
<!-- Generator: Adobe Illustrator 22.0.0, SVG Export Plug-In . SVG Version: 6.00 Build 0)  -->
<svg version="1.1" id="Layer_1" xmlns="http://www.w3.org/2000/svg" xmlns:xlink="http://www.w3.org/1999/xlink" x="0px" y="0px"
	 viewBox="0 0 200 57" style="enable-background:new 0 0 200 57;" xml:space="preserve">
<style type="text/css">
	.st0{clip-path:url(#SVGID_2_);fill:url(#SVGID_3_);}
</style>
<g>
	<path d="M180.2,21.4l-3.5,12.1L173,21.4h-4.4l5.6,16.2h4.6l1.7-4.8l1.4-5.4l1.4,5.4l1.7,4.8h4.6l5.6-16.2h-4.4l-3.7,12.1l-3.5-12.1
		H180.2z M154,27.6c0.6-2.1,2.4-3.1,4.5-3.1c2.3,0,3.9,1,4.2,3.1H154z M166.5,30.9c0.6-6.6-2.7-10-8.1-10c-5.2,0-8.6,3.5-8.6,8.4
		c0,5.2,3.3,8.6,8.9,8.6c2.4,0,5.2-0.8,6.9-2.6l-2.5-2.5c-0.9,0.9-2.8,1.5-4.3,1.5c-2.8,0-4.5-1.4-4.8-3.4H166.5z M142.6,16.9
		c0,3.1,4.7,3.1,4.7,0C147.3,13.8,142.6,13.8,142.6,16.9z M146.9,21.4v16.2h-4V21.4H146.9z M136.7,21.4l-2.2,5.4l-2.4,6.7l-2.5-6.8
		l-2.2-5.3h-4.3l6.9,16.2h4.3l6.9-16.2H136.7z M117.8,21.4l-2.9,7.1l-1.7,4.4l-1.5-4.5l-2.4-7h-4.6l6.4,15.8l-3,7h4.4l9.8-22.8
		H117.8z M97.9,37.5h4.3V14.7h-4.9l-7.2,9.8L83,14.7h-5v22.8h4.3V21l7.3,9.9h0.8l7.4-9.9V37.5z"/>
	<g>
		<defs>
			<path id="SVGID_1_" d="M39.5,13.1c1.7,0,3,2.4,3,5.4c0,3-1.4,5.4-3,5.4c-1.7,0-3-2.4-3-5.4C36.5,15.5,37.8,13.1,39.5,13.1
				 M48.1,40.2c0.6-0.9,1.9-1.1,2.8-0.5c0.9,0.6,1.1,1.9,0.5,2.8c-2.4,3.4-5.6,6.2-9.2,8.1c-3.5,1.8-7.4,2.9-11.5,2.9s-8-1-11.5-2.9
				c-3.6-1.9-6.7-4.7-9.2-8.1c-0.6-0.9-0.4-2.1,0.5-2.8c0.9-0.6,2.1-0.4,2.8,0.5c2.1,2.9,4.7,5.2,7.8,6.9c2.9,1.5,6.2,2.4,9.6,2.4
				c3.5,0,6.7-0.9,9.6-2.4C43.4,45.4,46,43.1,48.1,40.2z M52.7,7.5h-44v21.2L19.4,34l-1.5-3c-0.2-0.3-0.3-0.7-0.3-1c0-1.1,0.9-2,2-2
				h33.1V7.5z M6.7,3.6h48c1.1,0,2,0.9,2,2V30c0,1.1-0.9,2-2,2H22.9l2.8,5.5c0.5,1,0.1,2.2-0.9,2.7c-0.6,0.3-1.2,0.3-1.8,0l0,0
				L5.8,31.8c-0.7-0.3-1.1-1.1-1.1-1.8h0V5.5C4.7,4.4,5.6,3.6,6.7,3.6z M21.9,13.1c1.7,0,3,2.4,3,5.4c0,3-1.4,5.4-3,5.4
				c-1.7,0-3-2.4-3-5.4C18.8,15.5,20.2,13.1,21.9,13.1z"/>
		</defs>
		<clipPath id="SVGID_2_">
			<use xlink:href="#SVGID_1_"  style="overflow:visible;"/>
		</clipPath>
		<linearGradient id="SVGID_3_" gradientUnits="userSpaceOnUse" x1="21.5116" y1="5.1529" x2="39.8544" y2="51.846">
			<stop  offset="0" style="stop-color:#FF5272"/>
			<stop  offset="1" style="stop-color:#8E6CF5"/>
		</linearGradient>
		<rect x="4.7" y="3.6" class="st0" width="52" height="49.9"/>
	</g>
</g>
</svg>
