<?xml version="1.0"?>
<svg xmlns="http://www.w3.org/2000/svg" xmlns:xlink="http://www.w3.org/1999/xlink" xmlns:svgjs="http://svgjs.com/svgjs" version="1.1" width="512" height="512" x="0" y="0" viewBox="0 0 512 512" style="enable-background:new 0 0 512 512" xml:space="preserve" class=""><g><linearGradient xmlns="http://www.w3.org/2000/svg" id="SVGID_1_" gradientUnits="userSpaceOnUse" x1="256" x2="256" y1="512" y2="0"><stop stop-opacity="1" stop-color="#ffffff" offset="0"/><stop stop-opacity="1" stop-color="#c0c0c0" offset="1"/></linearGradient><linearGradient xmlns="http://www.w3.org/2000/svg" id="SVGID_2_" gradientUnits="userSpaceOnUse" x1="151" x2="151" y1="120" y2="0"><stop stop-opacity="1" stop-color="#c2c2c2" offset="0"/><stop stop-opacity="1" stop-color="#cacaca" offset="1"/></linearGradient><g xmlns="http://www.w3.org/2000/svg"><g><g><path d="m412.709 302.582-30-15c-4.219-2.109-9.199-2.109-13.418 0l-53.291 26.646-53.291-26.646c-4.219-2.109-9.199-2.109-13.418 0l-53.291 26.646-53.291-26.646c-4.219-2.109-9.199-2.109-13.418 0l-30 15c-5.068 2.549-8.291 7.734-8.291 13.418v181c0 8.291 6.709 15 15 15h300c8.291 0 15-6.709 15-15v-181c0-5.684-3.223-10.869-8.291-13.418zm-6.709-302.582h-195l-120 120v121c0 5.2 2.695 10.02 7.119 12.759 4.365 2.725 9.932 2.974 14.59.659l23.291-11.646 53.291 26.646c4.219 2.109 9.199 2.109 13.418 0l53.291-26.646 53.291 26.646c4.219 2.109 9.203 2.107 13.418 0l53.291-26.646 23.291 11.646c4.658 2.329 10.195 2.065 14.59-.659 4.424-2.739 7.119-7.559 7.119-12.759v-226c0-8.291-6.709-15-15-15z" fill="url(#SVGID_1_)" data-original="url(#SVGID_1_)" style=""/></g></g><g><g><path d="m196 0c-3.984 0-7.793 1.582-10.605 4.395l-90 90c-2.813 2.812-4.395 6.621-4.395 10.605v15h105c8.291 0 15-6.709 15-15v-105z" fill="url(#SVGID_2_)" data-original="url(#SVGID_2_)" style=""/></g></g></g></g></svg>
