<?xml version="1.0"?>
<svg xmlns="http://www.w3.org/2000/svg" xmlns:xlink="http://www.w3.org/1999/xlink" xmlns:svgjs="http://svgjs.com/svgjs" version="1.1" width="512" height="512" x="0" y="0" viewBox="0 0 512 512" style="enable-background:new 0 0 512 512" xml:space="preserve" class=""><g><linearGradient xmlns="http://www.w3.org/2000/svg" id="SVGID_1_" gradientUnits="userSpaceOnUse" x1="256" x2="256" y1="512" y2="0"><stop stop-opacity="1" stop-color="#e9e9e9" offset="0"/><stop stop-opacity="1" stop-color="#e9e9e9" offset="1"/></linearGradient><linearGradient xmlns="http://www.w3.org/2000/svg" id="SVGID_2_" gradientUnits="userSpaceOnUse" x1="256" x2="256" y1="122.765" y2="389.235"><stop stop-opacity="1" stop-color="#f85373" offset="0"/><stop stop-opacity="1" stop-color="#8c69f0" offset="1"/></linearGradient><g xmlns="http://www.w3.org/2000/svg"><g><circle cx="256" cy="256" fill="url(#SVGID_1_)" r="256" data-original="url(#SVGID_1_)" style=""/></g><g><g><path d="m398.118 140.529h-178.81l23.681 35.529h164.011v-26.647c0-4.909-3.973-8.882-8.882-8.882zm-151 124.353v44.412h17.765v-44.412c0-3.808 2.394-7.061 5.76-8.319l-14.643-14.65-14.642 14.651c3.366 1.258 5.76 4.51 5.76 8.318zm-16.273-75.014-42.102-63.149c-1.647-2.47-4.421-3.954-7.39-3.954h-67.47c-4.905 0-8.882 3.976-8.882 8.882v248.706c0 4.905 3.977 8.882 8.882 8.882h284.235c4.905 0 8.882-3.977 8.882-8.882v-186.53h-168.765c-2.969 0-5.742-1.484-7.39-3.955zm69.567 146.073c0-4.91 3.973-8.882 8.883-8.882 4.909 0 8.882 3.973 8.882 8.882v17.765c0 4.91-3.973 8.882-8.882 8.882h-106.589c-4.909 0-8.882-3.973-8.882-8.882v-17.765c0-4.91 3.973-8.882 8.882-8.882 4.91 0 8.883 3.973 8.883 8.882v8.882h88.823zm-38.132-112.868 35.53 35.53c2.533 2.542 3.296 6.358 1.926 9.68s-4.615 5.482-8.206 5.482h-8.882v44.412c0 4.91-3.973 8.882-8.882 8.882h-35.529c-4.91 0-8.882-3.973-8.882-8.882v-44.412h-8.882c-3.591 0-6.835-2.16-8.206-5.482s-.607-7.139 1.926-9.68l35.53-35.53c3.466-3.47 9.088-3.47 12.557 0z" fill="url(#SVGID_2_)" data-original="url(#SVGID_2_)" style=""/></g></g></g></g></svg>
