<?xml version="1.0" encoding="utf-8"?>
<!-- Generator: Adobe Illustrator 22.0.0, SVG Export Plug-In . SVG Version: 6.00 Build 0)  -->
<svg version="1.1" xmlns="http://www.w3.org/2000/svg" xmlns:xlink="http://www.w3.org/1999/xlink" x="0px" y="0px"
	 viewBox="0 0 500 200" style="enable-background:new 0 0 500 200;" xml:space="preserve">
<style type="text/css">
	.st0{fill:#ECEFF0;}
	.st1{opacity:0.41;}
	.st2{fill:#E1E2FE;}
	.st3{opacity:0.31;}
	.st4{opacity:0.47;fill:#ECF1F7;}
	.st5{opacity:0.47;fill:#E1E2FE;}
	.st6{opacity:0.32;fill:#E1E2FE;}
	.st7{opacity:0.83;}
	.st8{opacity:0.81;fill:#E1E2FE;}
	.st9{opacity:0.58;fill:#3E479B;}
	.st10{opacity:0.58;fill:#EF929C;}
	.st11{opacity:0.66;}
	.st12{fill:#FFFFFF;}
	.st13{opacity:0.84;}
	.st14{opacity:0.81;}
	.st15{opacity:0.66;fill:#FFFFFF;}
	.st16{fill:#3E479B;}
	.st17{fill:#6D6CD4;}
	.st18{opacity:0.12;fill:#FFFFFF;}
	.st19{fill:#F28393;}
	.st20{fill:#C5D9FF;}
	.st21{fill:#599AF2;}
	.st22{opacity:0.35;}
	.st23{fill:#ECF1F7;}
	.st24{opacity:0.36;fill:#4C65BA;}
	.st25{opacity:0.47;fill:#FFFFFF;}
	.st26{opacity:0.39;fill:#F7A9B4;}
	.st27{fill:#A8A8A8;}
</style>
<g id="Layer_2">
	<rect class="st0" width="500" height="200"/>
</g>
<g id="Layer_1">
	<g>
		<g>
			<g>
				<g>
					<g class="st1">
						<g>
							<g>
								<path class="st2" d="M189.7,102.5c-0.2-2.1-0.3-4.1-0.1-6.2c0.6-9.7,5-19,11.8-25.8c2.4-2.4,5.2-4.6,6.7-7.7
									c2.5-5.2,2-11.1,5.2-16.2c3.2-5.2,8-9.4,13.6-11.7c16.6-6.9,40.9,1.6,39.8,22.6c0,0.1,0,0.2,0,0.3c-0.1,4.3,3.4,7.8,7.7,7.7
									C290,65,304,76.6,307.7,92c2.4,9.9-0.1,21.1-7,28.5c-5.1,5.6-12.1,8.9-19.2,11.2c-14.2,4.8-29.4,6.4-44.3,5.7
									c-14-0.7-28.9-4-38.4-14.5C193.6,117.4,190.5,110.1,189.7,102.5z"/>
							</g>
						</g>
					</g>
					<g class="st3">
						
							<ellipse transform="matrix(2.110500e-02 -0.9998 0.9998 2.110500e-02 225.7153 297.3839)" class="st2" cx="264.7" cy="33.4" rx="3.6" ry="3.5"/>
					</g>
					<g class="st3">
						<path class="st2" d="M205,33.5c0.1,1,0.9,1.8,1.9,1.8c1-0.1,1.8-0.9,1.7-1.9c-0.1-1-0.9-1.8-1.9-1.8
							C205.8,31.6,205,32.5,205,33.5z"/>
					</g>
					<g class="st3">
						<path class="st2" d="M309.6,75.5c0,0.7,0.6,1.2,1.3,1.2c0.7,0,1.2-0.6,1.1-1.3c0-0.7-0.6-1.2-1.3-1.2
							C310.1,74.2,309.6,74.8,309.6,75.5z"/>
					</g>
					<g class="st3">
						
							<ellipse transform="matrix(2.092905e-02 -0.9998 0.9998 2.092905e-02 154.9818 432.7518)" class="st2" cx="298.4" cy="137.2" rx="5.7" ry="5.5"/>
					</g>
				</g>
			</g>
			<g>
				<g>
					<path class="st4" d="M188.8,47.1c-1.7-3.1-0.7-7,2.3-8.7c3-1.8,8.9-2,10.6,1.1c1.7,3.1-2.9,6-4.6,9
						C194.6,52.6,190.6,50.1,188.8,47.1z"/>
					<path class="st5" d="M207.1,142.8c-2.2,1.6-5.2,1.1-6.7-1.1c-1.5-2.2-2.1-6.8,0-8.4c2.2-1.6,4.7,1.8,7.1,2.9
						C210.9,137.9,209.3,141.2,207.1,142.8z"/>
					<path class="st5" d="M292.4,27.1c2.3-2.4,6.2-2.5,8.6-0.1s4.1,7.9,1.8,10.4c-2.3,2.4-6.2-1.1-9.4-2
						C288.8,34.1,290,29.6,292.4,27.1z"/>
				</g>
				<g>
					<path class="st6" d="M194.1,60.6c-1.6,4.5-2,9.5-1,14.2c1.4,6.3,6.1,11.8,5.3,18.6c-0.5,4-0.4,7.7-0.5,11.7
						c-0.2,8.1,5.5,14.9,12.2,18.2c5.4,2.7,11.6,3.5,17.5,2.9c5.4-0.5,10.6-1.9,15.7-3.6c4.9-1.7,9.7-3.8,14.9-3.6
						c4.4,0.1,8.5,1.8,12.6,2.9c10,2.7,21.7,2.3,30.2-3.5c9.3-6.4,13-18.6,9.8-29.3c-1.7-5.7-4.1-10.7-3.2-16.8c0.4-3,1-6.1,0.5-9
						c-0.5-2.7-2-5.2-3.8-7.3c-4.8-5.8-11.6-9.5-18.7-11.6c-8.1-2.5-17-3.8-25.4-2.5c-16.3,2.5-19.8,0.1-36.8-2.3
						c-11.4-1.6-22.1,7.4-27.3,16.8C195.3,57.6,194.6,59.1,194.1,60.6z"/>
					<g class="st7">
						<path class="st8" d="M201.9,73.7c2.3-3.1,6-5.2,7.7-8.7c2.1-4.3,1.7-9.3,3.6-13.6c2.8-6.4,7.9-11.9,14.2-14.9
							c3.1-1.4,6.4-2.3,9.7-2.1c5.1,0.4,9.4,3.4,12.8,7c5.1,5.4,8.7,13,14.8,17.2c3.4,2.4,7.3-0.1,10.9-0.9c4-0.9,8.2-0.7,12.1,0.4
							c7.1,2,13.2,7.1,16.2,13.8c3.3,7.1,2.8,17-3.3,23.2c-2.8,2.8-6.7,4.7-8.8,8.2c-2.6,4.3-2.9,10.1-3.7,14.8
							c-0.8,5.2-3.1,10.4-6.4,14.6c0,0-0.1,0.1-0.1,0.1c-5.9,7.3-15.9,9.7-24.3,6.1c0,0-17.9-7.8-17.9-7.8
							c-18.2-7.9-32-20.6-38.6-39c-1.4-4-2-12.5-0.1-16.4C201,75,201.5,74.3,201.9,73.7z"/>
					</g>
				</g>
			</g>
			<circle class="st9" cx="285.8" cy="137.6" r="1.2"/>
			<circle class="st9" cx="255" cy="30.7" r="0.6"/>
			<circle class="st9" cx="217.4" cy="140.6" r="1.2"/>
			<circle class="st10" cx="290.7" cy="146" r="0.9"/>
			<circle class="st9" cx="197.6" cy="31.6" r="0.4"/>
			<circle class="st10" cx="307.5" cy="42.4" r="1.5"/>
			<path class="st10" d="M202.2,27.8c-0.1,0.3-0.4,0.5-0.7,0.4c-0.3-0.1-0.5-0.4-0.4-0.7c0.1-0.3,0.4-0.5,0.7-0.4
				C202.1,27.2,202.3,27.5,202.2,27.8z"/>
			<path class="st10" d="M260.3,25.9c-0.1,0.3-0.4,0.5-0.7,0.4c-0.3-0.1-0.5-0.4-0.4-0.7c0.1-0.3,0.4-0.5,0.7-0.4
				C260.1,25.3,260.3,25.6,260.3,25.9z"/>
			<path class="st9" d="M300.5,43.9c-0.1,0.3-0.3,0.4-0.6,0.4s-0.4-0.3-0.4-0.6c0.1-0.3,0.3-0.4,0.6-0.4
				C300.4,43.4,300.6,43.7,300.5,43.9z"/>
			<path class="st9" d="M193,127.9c-0.1,0.3-0.3,0.4-0.6,0.4c-0.3-0.1-0.4-0.3-0.4-0.6c0.1-0.3,0.3-0.4,0.6-0.4
				C192.9,127.4,193.1,127.6,193,127.9z"/>
			<g>
				<g class="st11">
					<g>
						<g>
							<path class="st12" d="M282.3,76.9h-2.1c-0.9,0-1.6-0.7-1.6-1.6v-2.4c0-0.4-0.3-0.8-0.7-1c-0.2-0.1-0.5-0.2-0.7-0.3
								c-0.4-0.2-0.9-0.1-1.2,0.2l-1.7,1.7c-0.3,0.3-0.7,0.5-1.1,0.5c-0.4,0-0.8-0.2-1.1-0.5l-1.5-1.5c-0.6-0.6-0.6-1.6,0-2.3
								l1.7-1.7c0.3-0.3,0.4-0.8,0.2-1.2c-0.1-0.2-0.2-0.5-0.3-0.7c-0.2-0.4-0.6-0.7-1-0.7h-2.4c-0.9,0-1.6-0.7-1.6-1.6v-2.1
								c0-0.9,0.7-1.6,1.6-1.6h2.4c0.4,0,0.8-0.3,1-0.7c0.1-0.2,0.2-0.5,0.3-0.7c0.2-0.4,0.1-0.9-0.2-1.2l-1.7-1.7
								c-0.6-0.6-0.6-1.6,0-2.3L272,52c0.6-0.6,1.6-0.6,2.3,0l1.7,1.7c0.3,0.3,0.8,0.4,1.2,0.2c0.2-0.1,0.5-0.2,0.7-0.3
								c0.4-0.2,0.7-0.6,0.7-1v-2.4c0-0.9,0.7-1.6,1.6-1.6h2.1c0.9,0,1.6,0.7,1.6,1.6v2.4c0,0.4,0.3,0.8,0.7,1
								c0.2,0.1,0.5,0.2,0.7,0.3c0.4,0.2,0.9,0.1,1.2-0.2l1.7-1.7c0.6-0.6,1.6-0.6,2.3,0l1.5,1.5c0.6,0.6,0.6,1.6,0,2.3l-1.7,1.7
								c-0.3,0.3-0.4,0.8-0.2,1.2c0.1,0.2,0.2,0.5,0.3,0.7c0.2,0.4,0.6,0.7,1,0.7h2.4c0.9,0,1.6,0.7,1.6,1.6v2.1
								c0,0.9-0.7,1.6-1.6,1.6h-2.4c-0.4,0-0.8,0.3-1,0.7c-0.1,0.2-0.2,0.5-0.3,0.7c-0.2,0.4-0.1,0.9,0.2,1.2l1.7,1.7
								c0.6,0.6,0.6,1.6,0,2.3l-1.5,1.5c-0.3,0.3-0.7,0.5-1.1,0.5c-0.4,0-0.8-0.2-1.1-0.5l-1.7-1.7c-0.3-0.3-0.8-0.4-1.2-0.2
								c-0.2,0.1-0.5,0.2-0.7,0.3c-0.4,0.2-0.7,0.6-0.7,1v2.4C283.9,76.2,283.2,76.9,282.3,76.9z M276.7,71c0.2,0,0.5,0,0.7,0.2
								c0.2,0.1,0.5,0.2,0.7,0.3c0.6,0.2,1.1,0.8,1.1,1.5v2.4c0,0.6,0.5,1.1,1.1,1.1h2.1c0.6,0,1.1-0.5,1.1-1.1v-2.4
								c0-0.7,0.4-1.3,1.1-1.5c0.2-0.1,0.5-0.2,0.7-0.3c0.6-0.3,1.4-0.2,1.8,0.3l1.7,1.7c0.4,0.4,1.1,0.4,1.5,0l1.5-1.5
								c0.4-0.4,0.4-1.1,0-1.5l-1.7-1.7c-0.5-0.5-0.6-1.2-0.3-1.8c0.1-0.2,0.2-0.5,0.3-0.7c0.2-0.6,0.8-1.1,1.5-1.1h2.4
								c0.6,0,1.1-0.5,1.1-1.1v-2.1c0-0.6-0.5-1.1-1.1-1.1h-2.4c-0.7,0-1.3-0.4-1.5-1.1c-0.1-0.2-0.2-0.5-0.3-0.7
								c-0.3-0.6-0.2-1.3,0.3-1.8l1.7-1.7c0.4-0.4,0.4-1.1,0-1.5l-1.5-1.5c-0.4-0.4-1.1-0.4-1.5,0l-1.7,1.7
								c-0.5,0.5-1.2,0.6-1.8,0.3c-0.2-0.1-0.5-0.2-0.7-0.3c-0.6-0.2-1.1-0.8-1.1-1.5v-2.4c0-0.6-0.5-1.1-1.1-1.1h-2.1
								c-0.6,0-1.1,0.5-1.1,1.1v2.4c0,0.7-0.4,1.3-1.1,1.5c-0.2,0.1-0.5,0.2-0.7,0.3c-0.6,0.3-1.3,0.2-1.8-0.3l-1.7-1.7
								c-0.4-0.4-1.1-0.4-1.5,0l-1.5,1.5c-0.4,0.4-0.4,1.1,0,1.5l1.7,1.7c0.5,0.5,0.6,1.2,0.3,1.8c-0.1,0.2-0.2,0.5-0.3,0.7
								c-0.2,0.6-0.8,1.1-1.5,1.1h-2.4c-0.6,0-1.1,0.5-1.1,1.1v2.1c0,0.6,0.5,1.1,1.1,1.1h2.4c0.7,0,1.3,0.4,1.5,1.1
								c0.1,0.2,0.2,0.5,0.3,0.7c0.3,0.6,0.2,1.3-0.3,1.8l-1.7,1.7c-0.4,0.4-0.4,1.1,0,1.5l1.5,1.5c0.4,0.4,1.1,0.4,1.5,0l1.7-1.7
								C275.8,71.1,276.2,71,276.7,71z M281.2,70.2c-4.1,0-7.4-3.3-7.4-7.4c0-4.1,3.3-7.4,7.4-7.4s7.4,3.3,7.4,7.4
								C288.7,66.8,285.3,70.2,281.2,70.2z M281.2,55.9c-3.8,0-6.9,3.1-6.9,6.9c0,3.8,3.1,6.9,6.9,6.9c3.8,0,6.9-3.1,6.9-6.9
								C288.1,58.9,285,55.9,281.2,55.9z"/>
						</g>
						<g class="st13">
							<path class="st12" d="M278.4,115.5h-2.6c-0.6,0-1.2-0.4-1.4-1c-0.1-0.3-0.2-0.5-0.3-0.8c-0.3-0.6-0.2-1.2,0.3-1.7l1.9-1.9
								c0.6-0.6,0.6-1.5,0-2.1l-1.7-1.7c-0.6-0.6-1.5-0.6-2.1,0l-1.9,1.9c-0.4,0.4-1.1,0.6-1.7,0.3c-0.3-0.1-0.5-0.2-0.8-0.3
								c-0.6-0.2-1-0.8-1-1.4v-2.6c0-0.8-0.7-1.5-1.5-1.5h-2.3c-0.8,0-1.5,0.7-1.5,1.5v2.6c0,0.6-0.4,1.2-1,1.4
								c-0.3,0.1-0.5,0.2-0.8,0.3c-0.6,0.3-1.2,0.2-1.7-0.3l-1.9-1.9c-0.6-0.6-1.5-0.6-2.1,0l-1.7,1.7c-0.6,0.6-0.6,1.5,0,2.1
								l1.9,1.9c0.4,0.4,0.6,1.1,0.3,1.7c-0.1,0.3-0.2,0.5-0.3,0.8c-0.2,0.6-0.8,1-1.4,1h-2.6c-0.8,0-1.5,0.7-1.5,1.5v2.3
								c0,0.8,0.7,1.5,1.5,1.5h2.6c0.6,0,1.2,0.4,1.4,1c0.1,0.3,0.2,0.5,0.3,0.8c0.3,0.6,0.2,1.2-0.3,1.7l-1.9,1.9
								c-0.6,0.6-0.6,1.5,0,2.1l1.7,1.7c0.6,0.6,1.5,0.6,2.1,0l1.9-1.9c0.4-0.4,1.1-0.6,1.7-0.3c0.3,0.1,0.5,0.2,0.8,0.3
								c0.6,0.2,1,0.8,1,1.4v2.6c0,0.8,0.7,1.5,1.5,1.5h2.3c0.8,0,1.5-0.7,1.5-1.5v-2.6c0-0.6,0.4-1.2,1-1.4
								c0.3-0.1,0.5-0.2,0.8-0.3c0.6-0.3,1.2-0.2,1.7,0.3l1.9,1.9c0.6,0.6,1.5,0.6,2.1,0l1.7-1.7c0.6-0.6,0.6-1.5,0-2.1l-1.9-1.9
								c-0.4-0.4-0.6-1.1-0.3-1.7c0.1-0.3,0.2-0.5,0.3-0.8c0.2-0.6,0.8-1,1.4-1h2.6c0.8,0,1.5-0.7,1.5-1.5V117
								C279.8,116.2,279.2,115.5,278.4,115.5z M264.4,126.1c-4.4,0-7.9-3.6-7.9-7.9c0-4.4,3.6-7.9,7.9-7.9s7.9,3.6,7.9,7.9
								C272.4,122.5,268.8,126.1,264.4,126.1z"/>
						</g>
						<g>
							<path class="st12" d="M237.2,131.3h-1.8c-0.8,0-1.4-0.6-1.4-1.4v-2c0-0.4-0.2-0.7-0.6-0.8c-0.2-0.1-0.4-0.2-0.6-0.3
								c-0.3-0.2-0.7-0.1-1,0.2l-1.4,1.4c-0.3,0.3-0.6,0.4-1,0.4c-0.4,0-0.7-0.1-1-0.4l-1.3-1.3c-0.3-0.3-0.4-0.6-0.4-1
								c0-0.4,0.1-0.7,0.4-1l1.4-1.4c0.3-0.3,0.3-0.6,0.2-1c-0.1-0.2-0.2-0.4-0.3-0.6c-0.1-0.3-0.4-0.6-0.8-0.6h-2
								c-0.8,0-1.4-0.6-1.4-1.4v-1.8c0-0.8,0.6-1.4,1.4-1.4h2c0.4,0,0.7-0.2,0.8-0.6c0.1-0.2,0.2-0.4,0.3-0.6c0.2-0.3,0.1-0.7-0.2-1
								l-1.4-1.4c-0.3-0.3-0.4-0.6-0.4-1c0-0.4,0.1-0.7,0.4-1l1.3-1.3c0.5-0.5,1.4-0.5,2,0l1.4,1.4c0.3,0.3,0.6,0.3,1,0.2
								c0.2-0.1,0.4-0.2,0.6-0.3c0.3-0.1,0.6-0.4,0.6-0.8v-2c0-0.8,0.6-1.4,1.4-1.4h1.8c0.8,0,1.4,0.6,1.4,1.4v2
								c0,0.4,0.2,0.7,0.6,0.8c0.2,0.1,0.4,0.2,0.6,0.3c0.3,0.2,0.7,0.1,1-0.2l1.4-1.4c0.5-0.5,1.4-0.5,2,0l1.3,1.3
								c0.3,0.3,0.4,0.6,0.4,1c0,0.4-0.1,0.7-0.4,1l-1.4,1.4c-0.3,0.3-0.3,0.6-0.2,1c0.1,0.2,0.2,0.4,0.3,0.6
								c0.1,0.3,0.4,0.6,0.8,0.6h2c0.8,0,1.4,0.6,1.4,1.4v1.8c0,0.8-0.6,1.4-1.4,1.4h-2c-0.4,0-0.7,0.2-0.8,0.6
								c-0.1,0.2-0.2,0.4-0.3,0.6c-0.2,0.3-0.1,0.7,0.2,1l1.4,1.4c0.3,0.3,0.4,0.6,0.4,1c0,0.4-0.1,0.7-0.4,1l-1.3,1.3
								c-0.3,0.3-0.6,0.4-1,0.4c-0.4,0-0.7-0.1-1-0.4l-1.4-1.4c-0.3-0.3-0.6-0.3-1-0.2c-0.2,0.1-0.4,0.2-0.6,0.3
								c-0.3,0.1-0.6,0.4-0.6,0.8v2C238.5,130.7,237.9,131.3,237.2,131.3z M232.4,126.2c0.2,0,0.4,0,0.6,0.1
								c0.2,0.1,0.4,0.2,0.6,0.2c0.5,0.2,0.9,0.7,0.9,1.3v2c0,0.5,0.4,0.9,0.9,0.9h1.8c0.5,0,0.9-0.4,0.9-0.9v-2
								c0-0.6,0.4-1.1,0.9-1.3c0.2-0.1,0.4-0.2,0.6-0.2c0.5-0.2,1.2-0.1,1.6,0.3l1.4,1.4c0.3,0.3,0.9,0.3,1.2,0l1.3-1.3
								c0.2-0.2,0.2-0.4,0.2-0.6s-0.1-0.4-0.2-0.6l-1.4-1.4c-0.4-0.4-0.5-1-0.3-1.6c0.1-0.2,0.2-0.4,0.2-0.6
								c0.2-0.5,0.7-0.9,1.3-0.9h2c0.5,0,0.9-0.4,0.9-0.9v-1.8c0-0.5-0.4-0.9-0.9-0.9h-2c-0.6,0-1.1-0.4-1.3-0.9
								c-0.1-0.2-0.2-0.4-0.2-0.6c-0.2-0.5-0.1-1.2,0.3-1.6l1.4-1.4c0.2-0.2,0.2-0.4,0.2-0.6c0-0.2-0.1-0.4-0.2-0.6l-1.3-1.3
								c-0.3-0.3-0.9-0.3-1.2,0l-1.4,1.4c-0.4,0.4-1,0.5-1.6,0.3c-0.2-0.1-0.4-0.2-0.6-0.2c-0.5-0.2-0.9-0.7-0.9-1.3v-2
								c0-0.5-0.4-0.9-0.9-0.9h-1.8c-0.5,0-0.9,0.4-0.9,0.9v2c0,0.6-0.4,1.1-0.9,1.3c-0.2,0.1-0.4,0.2-0.6,0.2
								c-0.5,0.2-1.2,0.1-1.6-0.3l-1.4-1.4c-0.3-0.3-0.9-0.3-1.2,0l-1.3,1.3c-0.2,0.2-0.2,0.4-0.2,0.6c0,0.2,0.1,0.4,0.2,0.6
								l1.4,1.4c0.4,0.4,0.5,1,0.3,1.6c-0.1,0.2-0.2,0.4-0.2,0.6c-0.2,0.5-0.7,0.9-1.3,0.9h-2c-0.5,0-0.9,0.4-0.9,0.9v1.8
								c0,0.5,0.4,0.9,0.9,0.9h2c0.6,0,1.1,0.4,1.3,0.9c0.1,0.2,0.2,0.4,0.2,0.6c0.2,0.5,0.1,1.2-0.3,1.6l-1.4,1.4
								c-0.2,0.2-0.2,0.4-0.2,0.6s0.1,0.4,0.2,0.6l1.3,1.3c0.3,0.3,0.9,0.3,1.2,0l1.4-1.4C231.7,126.4,232.1,126.2,232.4,126.2z
								 M236.3,125.6c-3.5,0-6.3-2.8-6.3-6.3c0-3.5,2.8-6.3,6.3-6.3c3.5,0,6.3,2.8,6.3,6.3C242.5,122.8,239.7,125.6,236.3,125.6z
								 M236.3,113.6c-3.2,0-5.7,2.6-5.7,5.7c0,3.2,2.6,5.7,5.7,5.7c3.2,0,5.7-2.6,5.7-5.7C242,116.2,239.4,113.6,236.3,113.6z"/>
						</g>
					</g>
				</g>
				<g>
					<g class="st14">
						<path class="st12" d="M294.5,101.9H291c-0.1,0-0.3-0.1-0.3-0.3c0-0.1,0.1-0.3,0.3-0.3h3.5c0.1,0,0.3,0.1,0.3,0.3
							C294.8,101.8,294.7,101.9,294.5,101.9z"/>
						<path class="st12" d="M294.5,107.8H291c-0.1,0-0.3-0.1-0.3-0.3s0.1-0.3,0.3-0.3h3.5c0.1,0,0.3,0.1,0.3,0.3
							S294.7,107.8,294.5,107.8z"/>
						<g>
							<g>
								<g>
									<path class="st12" d="M297,113.6h-21.4c-0.4,0-0.7-0.3-0.7-0.7V95c0-0.4,0.3-0.7,0.7-0.7H297c0.4,0,0.7,0.3,0.7,0.7v17.9
										C297.8,113.3,297.4,113.6,297,113.6z M275.6,94.8c-0.1,0-0.2,0.1-0.2,0.2v17.9c0,0.1,0.1,0.2,0.2,0.2H297
										c0.1,0,0.2-0.1,0.2-0.2V95c0-0.1-0.1-0.2-0.2-0.2H275.6z"/>
									<path class="st15" d="M297,113.6h-21.4c-0.4,0-0.7-0.3-0.7-0.7V95c0-0.4,0.3-0.7,0.7-0.7H297c0.4,0,0.7,0.3,0.7,0.7v17.9
										C297.8,113.3,297.4,113.6,297,113.6z M275.6,94.8c-0.1,0-0.2,0.1-0.2,0.2v17.9c0,0.1,0.1,0.2,0.2,0.2H297
										c0.1,0,0.2-0.1,0.2-0.2V95c0-0.1-0.1-0.2-0.2-0.2H275.6z"/>
								</g>
							</g>
							<path class="st12" d="M294.5,99.1h-16.8c-0.1,0-0.3-0.1-0.3-0.3s0.1-0.3,0.3-0.3h16.8c0.1,0,0.3,0.1,0.3,0.3
								S294.7,99.1,294.5,99.1z"/>
							<path class="st12" d="M294.5,104.8h-16.8c-0.1,0-0.3-0.1-0.3-0.3c0-0.1,0.1-0.3,0.3-0.3h16.8c0.1,0,0.3,0.1,0.3,0.3
								C294.8,104.6,294.7,104.8,294.5,104.8z"/>
							<path class="st12" d="M286.8,101.9h-9.1c-0.1,0-0.3-0.1-0.3-0.3c0-0.1,0.1-0.3,0.3-0.3h9.1c0.1,0,0.3,0.1,0.3,0.3
								C287.1,101.8,286.9,101.9,286.8,101.9z"/>
							<path class="st12" d="M286.8,107.8h-9.1c-0.1,0-0.3-0.1-0.3-0.3s0.1-0.3,0.3-0.3h9.1c0.1,0,0.3,0.1,0.3,0.3
								S286.9,107.8,286.8,107.8z"/>
							<path class="st12" d="M283.8,110.4h-6.1c-0.1,0-0.3-0.1-0.3-0.3c0-0.1,0.1-0.3,0.3-0.3h6.1c0.1,0,0.3,0.1,0.3,0.3
								C284.1,110.3,284,110.4,283.8,110.4z"/>
						</g>
					</g>
					<g class="st14">
						<path class="st12" d="M225.9,72.4h-4c-0.1,0-0.3-0.1-0.3-0.3c0-0.1,0.1-0.3,0.3-0.3h4c0.1,0,0.3,0.1,0.3,0.3
							C226.2,72.2,226.1,72.4,225.9,72.4z"/>
						<path class="st12" d="M225.9,79h-4c-0.1,0-0.3-0.1-0.3-0.3c0-0.1,0.1-0.3,0.3-0.3h4c0.1,0,0.3,0.1,0.3,0.3
							C226.2,78.8,226.1,79,225.9,79z"/>
						<g>
							<g>
								<g>
									<path class="st12" d="M228.8,85.6h-24.5c-0.4,0-0.7-0.3-0.7-0.7V64.4c0-0.4,0.3-0.7,0.7-0.7h24.5c0.4,0,0.7,0.3,0.7,0.7
										v20.5C229.6,85.3,229.2,85.6,228.8,85.6z M204.4,64.2c-0.1,0-0.2,0.1-0.2,0.2v20.5c0,0.1,0.1,0.2,0.2,0.2h24.5
										c0.1,0,0.2-0.1,0.2-0.2V64.4c0-0.1-0.1-0.2-0.2-0.2H204.4z"/>
									<path class="st15" d="M228.8,85.6h-24.5c-0.4,0-0.7-0.3-0.7-0.7V64.4c0-0.4,0.3-0.7,0.7-0.7h24.5c0.4,0,0.7,0.3,0.7,0.7
										v20.5C229.6,85.3,229.2,85.6,228.8,85.6z M204.4,64.2c-0.1,0-0.2,0.1-0.2,0.2v20.5c0,0.1,0.1,0.2,0.2,0.2h24.5
										c0.1,0,0.2-0.1,0.2-0.2V64.4c0-0.1-0.1-0.2-0.2-0.2H204.4z"/>
								</g>
							</g>
							<path class="st12" d="M225.9,69.2h-19.1c-0.1,0-0.3-0.1-0.3-0.3c0-0.1,0.1-0.3,0.3-0.3h19.1c0.1,0,0.3,0.1,0.3,0.3
								C226.2,69,226.1,69.2,225.9,69.2z"/>
							<path class="st12" d="M225.9,75.6h-19.1c-0.1,0-0.3-0.1-0.3-0.3c0-0.1,0.1-0.3,0.3-0.3h19.1c0.1,0,0.3,0.1,0.3,0.3
								C226.2,75.4,226.1,75.6,225.9,75.6z"/>
							<path class="st12" d="M217.1,72.4h-10.3c-0.1,0-0.3-0.1-0.3-0.3c0-0.1,0.1-0.3,0.3-0.3h10.3c0.1,0,0.3,0.1,0.3,0.3
								C217.4,72.2,217.3,72.4,217.1,72.4z"/>
							<path class="st12" d="M217.1,79h-10.3c-0.1,0-0.3-0.1-0.3-0.3c0-0.1,0.1-0.3,0.3-0.3h10.3c0.1,0,0.3,0.1,0.3,0.3
								C217.4,78.8,217.3,79,217.1,79z"/>
							<path class="st12" d="M213.8,82h-6.9c-0.1,0-0.3-0.1-0.3-0.3c0-0.1,0.1-0.3,0.3-0.3h6.9c0.1,0,0.3,0.1,0.3,0.3
								C214.1,81.9,213.9,82,213.8,82z"/>
						</g>
					</g>
				</g>
			</g>
			<g>
				<g>
					<g>
						<path class="st16" d="M296.4,63.3h-2.1h-8.6h-1.5c-0.5,0-1,0.4-1.2,1l-0.4,1.3c-0.2,0.6-0.7,1-1.2,1H264
							c-0.7,0-1.3,0.7-1.3,1.5l0,0v19.7c0,0.8,0.6,1.5,1.3,1.5h0.1h30.2h2.1c0.8,0,1.4-0.7,1.4-1.5V69.6v-3v-1.8
							C297.7,63.9,297.1,63.3,296.4,63.3z"/>
						<path class="st17" d="M283.9,66.8l0.4-1.3c0.2-0.6,0.7-1,1.3-1h10.7c0.8,0,1.4,0.7,1.4,1.5v1.8v3V89c0,0.8-0.6,1.5-1.4,1.5
							h-32.3c-0.8,0-1.4-0.7-1.4-1.5V69.3c0-0.8,0.6-1.5,1.4-1.5h18.6C283.2,67.8,283.8,67.4,283.9,66.8z"/>
						<path class="st18" d="M284.7,68.2l0.4-1.3c0.2-0.6,0.7-0.9,1.2-0.9h10.1c0.7,0,1.3,0.6,1.3,1.4v1.7V72v17.1
							c0,0.8-0.6,1.4-1.3,1.4H266c-0.7,0-1.3-0.6-1.3-1.4V70.5c0-0.8,0.6-1.4,1.3-1.4h17.5C284.1,69.1,284.6,68.7,284.7,68.2z"/>
					</g>
					<path class="st12" d="M294,88.8h-8c-0.1,0-0.3-0.1-0.3-0.3c0-0.1,0.1-0.3,0.3-0.3h8c0.5,0,0.9-0.4,0.9-0.9V81
						c0-0.1,0.1-0.3,0.3-0.3s0.3,0.1,0.3,0.3v6.3C295.5,88.1,294.9,88.8,294,88.8z"/>
				</g>
				<g>
					<g>
						<g>
							<path class="st19" d="M201,85.7h2.1h8.6h1.5c0.5,0,1,0.4,1.2,1.1l0.4,1.5c0.2,0.7,0.7,1.1,1.2,1.1h17.5
								c0.7,0,1.3,0.7,1.3,1.7v0v22.2c0,0.9-0.6,1.7-1.3,1.7h-0.1h-30.4H201c-0.8,0-1.4-0.7-1.4-1.7V92.8v-3.4v-2.1
								C199.6,86.4,200.2,85.7,201,85.7z"/>
							<path class="st18" d="M213.5,89.7l-0.4-1.5c-0.2-0.7-0.7-1.1-1.3-1.1H201c-0.8,0-1.4,0.7-1.4,1.7v2.1v3.4v20.4
								c0,0.9,0.6,1.7,1.4,1.7h32.5c0.8,0,1.4-0.7,1.4-1.7V92.4c0-0.9-0.6-1.7-1.4-1.7h-18.7C214.2,90.8,213.7,90.3,213.5,89.7z"/>
							<path class="st18" d="M212.7,91.2l-0.4-1.4c-0.2-0.6-0.7-1-1.2-1h-10.2c-0.7,0-1.3,0.7-1.3,1.6v2v3.2v19.2
								c0,0.9,0.6,1.6,1.3,1.6h30.6c0.7,0,1.3-0.7,1.3-1.6V93.8c0-0.9-0.6-1.6-1.3-1.6h-17.6C213.4,92.2,212.9,91.8,212.7,91.2z"/>
						</g>
					</g>
					<path class="st12" d="M202.1,95.2c-0.1,0-0.2-0.1-0.2-0.3v-3.8c0-0.5,0.4-0.9,0.8-0.9h5c0.1,0,0.2,0.1,0.2,0.3
						c0,0.1-0.1,0.3-0.2,0.3h-5c-0.2,0-0.3,0.2-0.3,0.4v3.8C202.4,95.1,202.3,95.2,202.1,95.2z"/>
				</g>
			</g>
			<g>
				<g>
					<g>
						<g>
							<path class="st20" d="M269.7,74.1h-38.9c-4.6,0-8.4-3.8-8.4-8.4v-4.1c0-4.6,3.8-8.4,8.4-8.4h38.9c4.6,0,8.4,3.8,8.4,8.4v4.1
								C278.1,70.3,274.3,74.1,269.7,74.1z"/>
							<circle class="st21" cx="250.3" cy="54.8" r="14.7"/>
						</g>
					</g>
					<g>
						<path class="st21" d="M269.7,71h-38.9c-4.6,0-8.4-3.8-8.4-8.4v-4.1c0-4.6,3.8-8.4,8.4-8.4h38.9c4.6,0,8.4,3.8,8.4,8.4v4.1
							C278.1,67.2,274.3,71,269.7,71z"/>
						
							<ellipse transform="matrix(0.9184 -0.3957 0.3957 0.9184 -2.501943e-02 103.2391)" class="st21" cx="250.3" cy="51.7" rx="14.7" ry="14.7"/>
					</g>
					<g class="st22">
						<g>
							<path class="st23" d="M269.7,71h-38.9c-4.6,0-8.4-3.8-8.4-8.4v-4.1c0-4.6,3.8-8.4,8.4-8.4h38.9c4.6,0,8.4,3.8,8.4,8.4v4.1
								C278.1,67.2,274.3,71,269.7,71z"/>
							
								<ellipse transform="matrix(0.9184 -0.3957 0.3957 0.9184 -2.501943e-02 103.2391)" class="st23" cx="250.3" cy="51.7" rx="14.7" ry="14.7"/>
						</g>
					</g>
					<g>
						<g>
							<path class="st12" d="M246.8,53.9c-0.2,0-0.3-0.1-0.5-0.2c-0.3-0.3-0.3-0.7,0-1l3.9-3.9l3.9,3.9c0.3,0.3,0.3,0.7,0,1
								c-0.3,0.3-0.7,0.3-1,0l-2.9-2.9l-3,2.9C247.2,53.8,247,53.9,246.8,53.9z"/>
							<path class="st12" d="M250.3,59.2c-0.4,0-0.7-0.3-0.7-0.7v-8.8c0-0.4,0.3-0.7,0.7-0.7c0.4,0,0.7,0.3,0.7,0.7v8.8
								C250.9,58.9,250.6,59.2,250.3,59.2z"/>
						</g>
						<path class="st12" d="M256.6,63.4h-12.9c-0.9,0-1.7-0.8-1.7-1.7v-4.7c0-0.4,0.3-0.7,0.7-0.7c0.4,0,0.7,0.3,0.7,0.7v4.7
							c0,0.2,0.1,0.3,0.3,0.3h12.9c0.2,0,0.4-0.2,0.4-0.4v-4.6c0-0.4,0.3-0.7,0.7-0.7s0.7,0.3,0.7,0.7v4.6
							C258.4,62.6,257.6,63.4,256.6,63.4z"/>
					</g>
				</g>
				<g>
					<path class="st24" d="M270.7,108.2l-36.9,12.2c-0.9,0.3-1.9-0.2-2.2-1.1l-12.2-36.9c-0.3-0.9,0.2-1.9,1.1-2.2L257.4,68
						c0.9-0.3,1.9,0.2,2.2,1.1l12.2,36.9C272.1,106.9,271.6,107.9,270.7,108.2z"/>
					<path class="st12" d="M263.6,108.3l-28.1,9.3c-3.3,1.1-6.9-0.7-8-4l-9.3-28.1c-1.1-3.3,0.7-6.9,4-8l28.1-9.3
						c3.3-1.1,6.9,0.7,8,4l9.3,28.1C268.7,103.6,266.9,107.2,263.6,108.3z"/>
					<g>
						
							<rect x="225.4" y="75.3" transform="matrix(0.9495 -0.3137 0.3137 0.9495 -16.8603 80.8881)" class="st20" width="35.1" height="35.1"/>
						<path class="st25" d="M231.5,115.3l-2.5-7.5l3.6-8.8c0.5-1.2,1.8-1.8,3.1-1.4l6.7,2.1c0.4,0.1,0.8,0,1-0.4l5.6-9.3
							c1.2-2,3.7-2.8,5.8-1.9l6.2,2.7l0.1,0.2l4.4,13.2l-0.4,0.1L231.5,115.3z M229.8,107.8l2.1,6.5l32.5-10.7l-4.1-12.3l-5.8-2.5
							c-1.8-0.8-3.8-0.1-4.8,1.5l-5.6,9.3c-0.4,0.7-1.2,1-2,0.8l-6.7-2.1c-0.9-0.3-1.8,0.2-2.1,1L229.8,107.8z"/>
						<path class="st25" d="M242.6,89.3c-1.8,0-3.5-1.2-4.1-3c-0.7-2.3,0.5-4.7,2.7-5.5c2.3-0.7,4.7,0.5,5.5,2.7
							c0.7,2.3-0.5,4.7-2.7,5.5C243.5,89.2,243,89.3,242.6,89.3z M242.6,81.5c-0.4,0-0.7,0.1-1.1,0.2c-1.8,0.6-2.8,2.6-2.2,4.4
							c0.6,1.8,2.6,2.8,4.4,2.2c1.8-0.6,2.8-2.6,2.2-4.4C245.4,82.4,244.1,81.5,242.6,81.5z"/>
					</g>
				</g>
				<g>
					<path class="st24" d="M277.2,114.8h-19.5c-3.5,0-6.4-2.8-6.4-6.4V88.9c0-3.5,2.8-6.4,6.4-6.4h19.5c3.5,0,6.4,2.8,6.4,6.4v19.5
						C283.5,112,280.7,114.8,277.2,114.8z"/>
					<path class="st12" d="M275.5,113.2H256c-3.5,0-6.4-2.8-6.4-6.4V87.3c0-3.5,2.8-6.4,6.4-6.4h19.5c3.5,0,6.4,2.8,6.4,6.4v19.5
						C281.9,110.3,279,113.2,275.5,113.2z"/>
					<g>
						<rect x="252.4" y="83.7" class="st26" width="26.7" height="26.7"/>
						<path class="st25" d="M279.6,110.7H252v-6.2l4.8-5.5c0.7-0.8,1.9-0.9,2.7-0.3l4.4,3.1c0.2,0.2,0.5,0.1,0.7,0l6.3-5.4
							c1.4-1.2,3.4-1.2,4.8,0l3.9,3.4V110.7z M252.8,109.8h25.9v-9.7l-3.6-3.2c-1.1-0.9-2.7-0.9-3.7,0l-6.3,5.4
							c-0.5,0.4-1.2,0.5-1.7,0.1l-4.4-3.1c-0.5-0.4-1.2-0.3-1.6,0.2l-4.6,5.3V109.8z"/>
						<path class="st25" d="M267.4,94.7c-1.9,0-3.4-1.5-3.4-3.4s1.5-3.4,3.4-3.4s3.4,1.5,3.4,3.4S269.3,94.7,267.4,94.7z
							 M267.4,88.7c-1.4,0-2.6,1.2-2.6,2.6c0,1.4,1.2,2.6,2.6,2.6s2.6-1.2,2.6-2.6C270,89.9,268.8,88.7,267.4,88.7z"/>
					</g>
				</g>
				<g>
					<path class="st24" d="M256.9,119.2l-7.6,2.8c-3.3,1.2-7-0.4-8.2-3.7l-2.8-7.6c-1.2-3.3,0.4-7,3.7-8.2l7.6-2.8
						c3.3-1.2,7,0.4,8.2,3.7l2.8,7.6C261.9,114.3,260.2,118,256.9,119.2z"/>
					<path class="st12" d="M255.6,118.6l-7.6,2.8c-3.3,1.2-7-0.4-8.2-3.7l-2.8-7.6c-1.2-3.3,0.4-7,3.7-8.2l7.6-2.8
						c3.3-1.2,7,0.4,8.2,3.7l2.8,7.6C260.5,113.7,258.8,117.3,255.6,118.6z"/>
					<g>
						
							<rect x="239.5" y="101.6" transform="matrix(0.9364 -0.3509 0.3509 0.9364 -22.9125 94.0564)" class="st21" width="17.3" height="17.3"/>
						<path class="st25" d="M242.8,121.8l-1.5-3.9l1.6-4.5c0.3-0.7,1-1.1,1.7-0.9l3.4,0.9c0.1,0,0.2,0,0.3-0.1l2.6-4.7
							c0.6-1.1,1.9-1.6,3.1-1.1l3.2,1.2l2.5,6.8L242.8,121.8z M242.2,117.9l1.1,2.9l15.4-5.8l-2.1-5.7l-2.8-1.1
							c-0.8-0.3-1.7,0-2.1,0.8l-2.6,4.7c-0.2,0.4-0.7,0.6-1.2,0.5l-3.4-0.9c-0.3-0.1-0.7,0.1-0.8,0.4L242.2,117.9z"/>
						<path class="st25" d="M247.8,108.7c-0.9,0-1.8-0.6-2.2-1.5c-0.5-1.2,0.2-2.6,1.4-3c1.2-0.5,2.6,0.2,3,1.4l0,0
							c0.5,1.2-0.2,2.6-1.4,3C248.3,108.7,248.1,108.7,247.8,108.7z M247.8,104.9c-0.2,0-0.4,0-0.5,0.1c-0.8,0.3-1.2,1.2-0.9,2
							c0.3,0.8,1.2,1.2,2,0.9c0.8-0.3,1.2-1.2,0.9-2C249,105.3,248.4,104.9,247.8,104.9z"/>
					</g>
				</g>
			</g>
		</g>
		<g>
			<path class="st27" d="M201.4,171c-1.5,0-2.7-0.4-3.5-1.1c-0.8-0.8-1.2-1.8-1.2-3.2v-7.5h2.2v7.3c0,1,0.2,1.7,0.6,2.1
				c0.4,0.4,1,0.7,1.9,0.7c0.9,0,1.5-0.2,1.9-0.7c0.4-0.4,0.6-1.2,0.6-2.1v-7.3h2.2v7.5c0,1.4-0.4,2.4-1.2,3.2
				C204.1,170.6,202.9,171,201.4,171z"/>
			<path class="st27" d="M208.3,174.5v-12.4h1.8l0.2,1.2c0.3-0.5,0.7-0.8,1.1-1.1c0.5-0.3,1-0.4,1.6-0.4c0.7,0,1.3,0.2,1.9,0.6
				c0.5,0.4,1,0.9,1.2,1.6s0.4,1.5,0.4,2.3c0,1.4-0.3,2.5-1,3.3c-0.7,0.9-1.5,1.3-2.7,1.3c-0.6,0-1.1-0.1-1.5-0.3
				c-0.4-0.2-0.8-0.5-1.1-0.9c0,0.8,0.1,1.2,0.1,1.3v3.3L208.3,174.5z M212.5,169.4c0.6,0,1.1-0.3,1.5-0.8c0.4-0.5,0.5-1.3,0.5-2.2
				c0-1-0.2-1.7-0.5-2.2s-0.9-0.7-1.5-0.7c-1.4,0-2.1,0.9-2.1,2.8c0,1.1,0.2,1.9,0.5,2.4C211.3,169.2,211.8,169.4,212.5,169.4z"/>
			<path class="st27" d="M221.4,171c-0.6,0-1.1-0.1-1.5-0.2s-0.7-0.4-0.9-0.7s-0.4-0.7-0.5-1.1c-0.1-0.4-0.1-1-0.1-1.6v-8.5l2.1-0.1
				v8.6c0,0.8,0.1,1.3,0.3,1.6c0.2,0.3,0.5,0.4,1.1,0.4c0.3,0,0.6,0,1-0.1l0.1,1.5c0,0-0.1,0-0.2,0c-0.1,0-0.2,0-0.4,0.1
				c-0.1,0-0.3,0-0.4,0.1C221.7,170.9,221.6,171,221.4,171z"/>
			<path class="st27" d="M227.6,171c-1.3,0-2.3-0.4-3.1-1.3c-0.7-0.8-1.1-1.9-1.1-3.3c0-1.4,0.4-2.5,1.1-3.3
				c0.7-0.8,1.8-1.2,3.1-1.2c1.3,0,2.3,0.4,3.1,1.2c0.7,0.8,1.1,1.9,1.1,3.3c0,1.4-0.4,2.5-1.1,3.3C230,170.6,229,171,227.6,171z
				 M227.7,169.4c0.7,0,1.2-0.3,1.6-0.8c0.4-0.5,0.5-1.3,0.5-2.2c0-1-0.2-1.7-0.5-2.2c-0.4-0.5-0.9-0.8-1.6-0.8
				c-0.7,0-1.2,0.3-1.6,0.8c-0.4,0.5-0.5,1.3-0.5,2.2c0,1,0.2,1.7,0.5,2.2C226.4,169.2,227,169.4,227.7,169.4z"/>
			<path class="st27" d="M235.9,171c-0.8,0-1.5-0.2-2-0.7c-0.5-0.4-0.8-1.1-0.8-1.9c0-0.9,0.3-1.6,0.9-2c0.6-0.4,1.5-0.7,2.7-0.8
				c0.2,0,0.3,0,0.5-0.1c0.2,0,0.4,0,0.6-0.1c0.2,0,0.4,0,0.6-0.1v-0.5c0-0.5-0.1-0.9-0.4-1.2c-0.2-0.2-0.6-0.4-1.1-0.4
				c-0.7,0-1.6,0.2-2.6,0.6c0,0-0.1-0.3-0.3-0.7c-0.2-0.5-0.3-0.7-0.3-0.7c1-0.4,2.1-0.7,3.3-0.7c1.2,0,2,0.3,2.6,0.8
				c0.5,0.5,0.8,1.3,0.8,2.5v5.7H239c0,0-0.1-0.2-0.2-0.5c-0.1-0.3-0.2-0.5-0.2-0.5c-0.4,0.4-0.9,0.7-1.3,0.9
				C237,170.9,236.5,171,235.9,171z M236.5,169.5c0.5,0,0.9-0.1,1.3-0.3c0.4-0.2,0.6-0.5,0.8-0.8v-1.7c0,0-0.2,0-0.4,0
				c-0.3,0-0.4,0-0.4,0c-0.8,0.1-1.5,0.2-1.9,0.5c-0.4,0.2-0.6,0.6-0.6,1.2c0,0.4,0.1,0.7,0.3,0.9
				C235.7,169.4,236.1,169.5,236.5,169.5z"/>
			<path class="st27" d="M245.9,171c-1.1,0-2-0.4-2.7-1.3c-0.7-0.8-1-2-1-3.4c0-1.4,0.3-2.5,1-3.3c0.7-0.8,1.5-1.2,2.7-1.2
				c1.2,0,2.1,0.4,2.6,1.3c-0.1-0.5-0.1-1-0.1-1.5v-2.8l2.1-0.1v12.1h-1.8l-0.2-1.2c-0.1,0.1-0.2,0.3-0.3,0.4
				c-0.1,0.1-0.2,0.2-0.3,0.4c-0.1,0.1-0.3,0.2-0.5,0.3c-0.2,0.1-0.4,0.2-0.7,0.2S246.3,171,245.9,171z M246.4,169.4
				c1.4,0,2.1-1,2.1-2.9c0-1.1-0.2-1.9-0.5-2.4c-0.4-0.5-0.9-0.7-1.6-0.7c-0.6,0-1.1,0.3-1.5,0.8c-0.4,0.5-0.6,1.2-0.6,2.2
				c0,1,0.2,1.7,0.6,2.2C245.3,169.2,245.8,169.4,246.4,169.4z"/>
			<path class="st27" d="M257.3,170.8v-11.7h2.2v11.7H257.3z"/>
			<path class="st27" d="M261.8,170.8v-8.8h1.7l0.2,1.1c0.1-0.1,0.2-0.3,0.3-0.4c0.1-0.1,0.2-0.2,0.4-0.4c0.2-0.1,0.4-0.2,0.5-0.3
				c0.2-0.1,0.4-0.2,0.7-0.2c0.3-0.1,0.6-0.1,0.9-0.1c0.7,0,1.3,0.1,1.7,0.4c0.4,0.3,0.7,0.6,0.9,1c0.3-0.5,0.7-0.8,1.2-1
				c0.5-0.2,1.1-0.4,1.7-0.4c1,0,1.7,0.3,2.2,0.9c0.5,0.6,0.7,1.4,0.7,2.5v5.6h-2.1v-5c0-0.9-0.1-1.5-0.3-1.9
				c-0.2-0.4-0.5-0.6-1.1-0.6c-0.8,0-1.4,0.4-1.8,1.1c-0.1,0.3-0.2,0.7-0.3,1.2v5.1h-2.1v-5.1c0-0.8-0.1-1.4-0.3-1.7
				c-0.2-0.4-0.6-0.6-1.1-0.6c-0.4,0-0.8,0.1-1.1,0.3c-0.3,0.2-0.6,0.5-0.7,0.9c-0.1,0.5-0.2,1.2-0.2,1.9v4.2H261.8z"/>
			<path class="st27" d="M279.4,171c-0.8,0-1.5-0.2-2-0.7c-0.5-0.4-0.8-1.1-0.8-1.9c0-0.9,0.3-1.6,0.9-2c0.6-0.4,1.5-0.7,2.7-0.8
				c0.2,0,0.3,0,0.5-0.1c0.2,0,0.4,0,0.6-0.1c0.2,0,0.4,0,0.6-0.1v-0.5c0-0.5-0.1-0.9-0.4-1.2c-0.2-0.2-0.6-0.4-1.1-0.4
				c-0.7,0-1.6,0.2-2.6,0.6c0,0-0.1-0.3-0.3-0.7c-0.2-0.5-0.3-0.7-0.3-0.7c1-0.4,2.1-0.7,3.3-0.7c1.2,0,2,0.3,2.6,0.8
				c0.5,0.5,0.8,1.3,0.8,2.5v5.7h-1.5c0,0-0.1-0.2-0.2-0.5c-0.1-0.3-0.2-0.5-0.2-0.5c-0.4,0.4-0.9,0.7-1.3,0.9
				C280.5,170.9,280,171,279.4,171z M279.9,169.5c0.5,0,0.9-0.1,1.3-0.3s0.6-0.5,0.8-0.8v-1.7c0,0-0.2,0-0.4,0c-0.3,0-0.4,0-0.4,0
				c-0.8,0.1-1.5,0.2-1.9,0.5c-0.4,0.2-0.6,0.6-0.6,1.2c0,0.4,0.1,0.7,0.3,0.9C279.2,169.4,279.5,169.5,279.9,169.5z"/>
			<path class="st27" d="M287.9,174.8l-0.1-1.7h1.1c1.2,0,2.1-0.2,2.6-0.5c0.5-0.3,0.7-0.9,0.7-1.8c0-0.4,0-0.7,0-1.2
				c-0.1,0.2-0.3,0.3-0.4,0.5c-0.1,0.1-0.3,0.2-0.5,0.4c-0.2,0.1-0.4,0.2-0.7,0.3c-0.3,0.1-0.6,0.1-0.9,0.1c-1.2,0-2.1-0.4-2.9-1.3
				c-0.7-0.8-1.1-1.9-1.1-3.2c0-0.7,0.1-1.3,0.3-1.9c0.2-0.6,0.5-1.1,0.8-1.4c0.4-0.4,0.8-0.7,1.2-0.9c0.5-0.2,1-0.3,1.5-0.3
				c1.2,0,2,0.4,2.6,1.3l0.1-1.1h1.9v8.1c0,0.4,0,0.8-0.1,1.2c0,0.3-0.1,0.7-0.2,1c-0.1,0.3-0.2,0.6-0.4,0.8
				c-0.2,0.2-0.4,0.5-0.6,0.7c-0.3,0.2-0.6,0.4-0.9,0.5c-0.4,0.1-0.8,0.2-1.2,0.3c-0.5,0.1-1,0.1-1.6,0.1H287.9z M290,169.4
				c1.4,0,2.2-1,2.2-2.9v-0.3c0-0.9-0.2-1.5-0.5-2c-0.4-0.5-0.9-0.7-1.5-0.7c-0.8,0-1.3,0.3-1.7,0.8c-0.4,0.5-0.6,1.2-0.6,2.1
				c0,0.9,0.2,1.6,0.6,2.2C288.8,169.1,289.3,169.4,290,169.4z"/>
			<path class="st27" d="M300.3,171c-1.4,0-2.5-0.4-3.3-1.2c-0.8-0.8-1.2-1.9-1.2-3.4c0-1.4,0.4-2.5,1.1-3.3c0.7-0.8,1.7-1.2,3-1.2
				c1.2,0,2.1,0.4,2.8,1.1c0.7,0.8,1,1.8,1,3c0,0.1,0,0.2,0,0.4c0,0.2,0,0.4,0,0.4h-5.8c0,0.8,0.2,1.5,0.7,1.9
				c0.4,0.4,1,0.7,1.8,0.7c1,0,1.9-0.2,2.8-0.7l0.3,1.5C302.6,170.7,301.5,171,300.3,171z M298,165.6h3.8c0-0.7-0.2-1.3-0.5-1.6
				c-0.3-0.4-0.8-0.6-1.3-0.6c-0.5,0-1,0.2-1.4,0.6C298.3,164.3,298,164.8,298,165.6z"/>
		</g>
	</g>
</g>
</svg>
