<?xml version="1.0" encoding="utf-8"?>
<!-- Generator: Adobe Illustrator 22.0.0, SVG Export Plug-In . SVG Version: 6.00 Build 0)  -->
<svg version="1.1" id="Layer_5" xmlns="http://www.w3.org/2000/svg" xmlns:xlink="http://www.w3.org/1999/xlink" x="0px" y="0px"
	 width="512px" height="512px" viewBox="0 0 512 512" style="enable-background:new 0 0 512 512;" xml:space="preserve">
<style type="text/css">
	.st0{fill:url(#SVGID_1_);}
</style>
<linearGradient id="SVGID_1_" gradientUnits="userSpaceOnUse" x1="22.4945" y1="101.4075" x2="424.7103" y2="503.6234">
	<stop  offset="0" style="stop-color:#F75273"/>
	<stop  offset="1" style="stop-color:#8D69EF"/>
</linearGradient>
<path class="st0" d="M404.4,290.4l-4.4-2.9l-4.4,2.9c-18,11.8-38.8,19.1-60.3,21.1l-7.3,0.7v50.7c0,45.8,27,87.5,68.7,106.2l3.3,1.5
	l3.3-1.5C445,450.3,472,408.6,472,362.8v-50.7l-7.3-0.7C443.2,309.4,422.4,302.2,404.4,290.4L404.4,290.4z M456,362.8
	c0,35.2-18.5,67.6-48,85.6V360h-16v88.4c-29.5-18-48-50.4-48-85.6v-36.3c16.8-2.4,33-7.8,48-15.7V344h16v-33.2
	c15,7.8,31.2,13.3,48,15.7V362.8z M405.7,250.3l-5.7-5.7l-5.7,5.7c-10.8,10.8-23.7,18.8-37.8,23.8c12.7-25.4,19.4-53.4,19.4-82.1
	C376,90.5,293.5,8,192,8S8,90.5,8,192c0,61.3,30.8,118.1,80.5,152H32c-13.2,0-24,10.8-24,24v16c0,13.2,10.8,24,24,24h8v40
	c0,13.2,10.8,24,24,24h16c13.2,0,24-10.8,24-24v-8h32v8c0,13.2,10.8,24,24,24h16c13.2,0,24-10.8,24-24v-40h103
	c14.1,44.3,48.6,80.3,94.4,95.6l2.5,0.8l2.5-0.8C463.2,483.4,504,426.8,504,362.8V280h-26.7C450.2,280,424.8,269.5,405.7,250.3
	L405.7,250.3z M322.7,280H304h-8h-33c9.1-22.9,15.7-49.6,16.7-80h80c-1.3,28-9.6,55.2-24.1,79.1C331.4,279.6,327.1,280,322.7,280
	L322.7,280z M179.1,344c-10-11.2-22.3-27.3-33.2-48h92.2c-10.9,20.7-23.2,36.8-33.2,48H179.1z M24.3,200h80c1,30.4,7.6,57.1,16.7,80
	H49.1C34.4,256.2,25.7,228.8,24.3,200z M192,26.7c9.1,8.5,29.2,29.5,45.9,61.3h-91.8C162.8,56.2,182.9,35.3,192,26.7z M245.7,104
	c9.7,22.5,16.9,49.3,18,80H120.4c1.1-30.6,8.3-57.5,18.1-80H245.7z M359.6,184h-79.8c-1-30.4-7.6-57.2-16.6-80h71.6
	C349.4,127.5,358.2,154.8,359.6,184z M104.2,184H24.4c1.4-29.2,10.2-56.5,24.8-80h71.6C111.7,126.8,105.2,153.6,104.2,184z
	 M120.2,200h143.5c-1.1,30.7-8.3,57.5-18,80H138.2C128.5,257.5,121.3,230.7,120.2,200L120.2,200z M256.1,296H296v48h-70.2
	C235.7,331.6,246.6,315.5,256.1,296z M323.7,88h-67.5c-13.7-28.3-30.4-49.4-42.7-62.5C258,31.3,297.1,54.4,323.7,88z M170.5,25.5
	c-12.2,13.1-29,34.1-42.7,62.5H60.3C86.9,54.4,126,31.3,170.5,25.5z M60.3,296h67.7c9.4,19.5,20.3,35.6,30.2,48h-37.7
	C96.5,332.7,76.1,316.1,60.3,296L60.3,296z M184,448c0,4.4-3.6,8-8,8h-16c-4.4,0-8-3.6-8-8v-24H88v24c0,4.4-3.6,8-8,8H64
	c-4.4,0-8-3.6-8-8v-40h128V448z M32,392c-4.4,0-8-3.6-8-8v-16c0-4.4,3.6-8,8-8h264v2.8c0,10,1.1,19.7,3,29.2H32z M488,362.8
	c0,56.2-35.2,106-88,124.7c-52.8-18.8-88-68.5-88-124.7V296h10.7c28.7,0,55.9-10.3,77.3-29c21.4,18.8,48.5,29,77.3,29H488L488,362.8
	z M292.9,152.5l15.8-2.5c0.8,5.3,1.5,10.8,2.1,16.4l-15.9,1.5C294.4,162.6,293.7,157.5,292.9,152.5L292.9,152.5z M286.3,122.2
	l15.4-4.4c1.5,5.2,2.8,10.5,4.1,16l-15.6,3.4C288.9,132.1,287.7,127.1,286.3,122.2L286.3,122.2z M91.1,231.5L75.2,234
	c-0.8-5.3-1.5-10.8-2.1-16.4l15.9-1.5C89.6,221.4,90.3,226.5,91.1,231.5L91.1,231.5z M97.7,261.8l-15.4,4.4
	c-1.5-5.2-2.8-10.5-4.1-16l15.6-3.4C95.1,251.9,96.3,256.9,97.7,261.8L97.7,261.8z M248,232h-16v-16h16V232z M200,216h16v16h-16V216
	z M168,216h16v16h-16V216z M136,168v-16h16v16H136z M184,168h-16v-16h16V168z M216,168h-16v-16h16V168z"/>
</svg>
